<svg xmlns="http://www.w3.org/2000/svg" viewBox="0 0 470 626" width="470" height="626" preserveAspectRatio="xMidYMid meet" style="width: 100%; height: 100%; transform: translate3d(0px, 0px, 0px);"><defs><clipPath id="__lottie_element_2"><rect width="470" height="626" x="0" y="0"></rect></clipPath></defs><g clip-path="url(#__lottie_element_2)"><g transform="matrix(1,0,0,1,254,316.093994140625)" opacity="1" style="display: block;"><g opacity="1" transform="matrix(1,0,0,1,-31.489999771118164,246.28900146484375)"><path fill="rgb(231,231,231)" fill-opacity="1" d=" M0,-49.827999114990234 C62.777523040771484,-49.827999114990234 113.74800109863281,-27.500072479248047 113.74800109863281,0 C113.74800109863281,27.500072479248047 62.777523040771484,49.827999114990234 0,49.827999114990234 C-62.777523040771484,49.827999114990234 -113.74800109863281,27.500072479248047 -113.74800109863281,0 C-113.74800109863281,-27.500072479248047 -62.777523040771484,-49.827999114990234 0,-49.827999114990234z"></path><path stroke-linecap="butt" stroke-linejoin="miter" fill-opacity="0" stroke-miterlimit="4" stroke="rgb(0,0,0)" stroke-opacity="1" stroke-width="0" d=" M0,-49.827999114990234 C62.777523040771484,-49.827999114990234 113.74800109863281,-27.500072479248047 113.74800109863281,0 C113.74800109863281,27.500072479248047 62.777523040771484,49.827999114990234 0,49.827999114990234 C-62.777523040771484,49.827999114990234 -113.74800109863281,27.500072479248047 -113.74800109863281,0 C-113.74800109863281,-27.500072479248047 -62.777523040771484,-49.827999114990234 0,-49.827999114990234z"></path></g></g><g transform="matrix(1.992099404335022,0.17759443819522858,-0.17759443819522858,1.992099404335022,108.86072540283203,1.0307804346084595)" opacity="1" style="display: block;"><g opacity="1" transform="matrix(1,0,0,1,11.564000129699707,18.83300018310547)"><path fill="rgb(255,159,170)" fill-opacity="1" d=" M6.382999897003174,17.694000244140625 C6.382999897003174,17.694000244140625 4.763999938964844,9.005999565124512 4.763999938964844,9.005999565124512 C4.763999938964844,9.005999565124512 7.363999843597412,6.2170000076293945 7.974999904632568,2.325000047683716 C8.583999633789062,-1.562999963760376 8.187000274658203,-4.936999797821045 8.53499984741211,-7.765999794006348 C8.859000205993652,-10.406000137329102 11.314000129699707,-15.755000114440918 9.378000259399414,-17.045000076293945 C7.556000232696533,-18.260000228881836 5.145999908447266,-17.107999801635742 4.465000152587891,-12.927000045776367 C3.7699999809265137,-8.659000396728516 3.1089999675750732,-7.0329999923706055 3.1089999675750732,-7.0329999923706055 C3.1089999675750732,-7.0329999923706055 2.430000066757202,-13.223999977111816 2.430000066757202,-14.812000274658203 C2.430000066757202,-16.399999618530273 1.3389999866485596,-18.58300018310547 -0.15000000596046448,-18.086999893188477 C-0.15000000596046448,-18.086999893188477 -2.305999994277954,-18.01799964904785 -2.0850000381469727,-13.968999862670898 C-1.8669999837875366,-9.993000030517578 -1.7610000371932983,-6.5960001945495605 -1.7610000371932983,-6.5960001945495605 C-1.7610000371932983,-6.5960001945495605 -3.2639999389648438,-9.331999778747559 -4.714000225067139,-9.154999732971191 C-6.748000144958496,-8.906999588012695 -6.995999813079834,-6.9720001220703125 -6.995999813079834,-6.9720001220703125 C-6.995999813079834,-6.9720001220703125 -8.534000396728516,-7.666999816894531 -9.923999786376953,-6.9720001220703125 C-11.312999725341797,-6.2769999504089355 -11.312999725341797,-4.3420000076293945 -10.916000366210938,-2.803999900817871 C-10.519000053405762,-1.2649999856948853 -9.279000282287598,0.9670000076293945 -9.279000282287598,0.9670000076293945 C-9.279000282287598,0.9670000076293945 -10.369999885559082,5.184999942779541 -9.130000114440918,7.218999862670898 C-7.888999938964844,9.253999710083008 -6.500999927520752,10.04800033569336 -6.500999927520752,10.04800033569336 C-6.500999927520752,10.04800033569336 -5.309000015258789,18.58300018310547 -5.309000015258789,18.58300018310547 C-5.309000015258789,18.58300018310547 6.382999897003174,17.694000244140625 6.382999897003174,17.694000244140625z"></path></g><g opacity="1" transform="matrix(1,0,0,1,7.2820000648498535,16.01799964904785)"><path fill="rgb(0,0,0)" fill-opacity="1" d=" M-3.0399999618530273,-3.8369998931884766 C-3.0239999294281006,-2.6670000553131104 -2.9070000648498535,-1.4980000257492065 -2.688999891281128,-0.3479999899864197 C-2.5829999446868896,0.2150000035762787 -2.453000068664551,0.7730000019073486 -2.2960000038146973,1.3240000009536743 C-2.1470000743865967,1.8509999513626099 -1.996999979019165,2.4040000438690186 -1.7300000190734863,2.885999917984009 C-0.8479999899864197,4.48199987411499 1.6770000457763672,4.514999866485596 2.5199999809265137,2.864000082015991 C2.947000026702881,2.0260000228881836 3.0480000972747803,0.9589999914169312 2.76200008392334,0.061000000685453415 C2.558000087738037,-0.5820000171661377 1.5440000295639038,-0.3070000112056732 1.7489999532699585,0.3400000035762787 C1.968999981880188,1.034000039100647 1.9140000343322754,1.9529999494552612 1.4800000190734863,2.559000015258789 C1.055999994277954,3.1510000228881836 0.09399999678134918,3.203000068664551 -0.4690000116825104,2.7829999923706055 C-0.8730000257492065,2.4809999465942383 -1.0080000162124634,1.9459999799728394 -1.149999976158142,1.4880000352859497 C-1.3259999752044678,0.9200000166893005 -1.4759999513626099,0.3440000116825104 -1.5980000495910645,-0.23800000548362732 C-1.847000002861023,-1.4229999780654907 -1.9709999561309814,-2.627000093460083 -1.9880000352859497,-3.8369998931884766 C-1.996999979019165,-4.513000011444092 -3.0490000247955322,-4.514999866485596 -3.0399999618530273,-3.8369998931884766z"></path></g><g opacity="1" transform="matrix(1,0,0,1,4.084000110626221,19.701000213623047)"><path fill="rgb(0,0,0)" fill-opacity="1" d=" M-2.11899995803833,0.1720000058412552 C-1.6469999551773071,0.9079999923706055 -0.7760000228881836,1.2039999961853027 0.06599999964237213,1.0779999494552612 C0.9259999990463257,0.9490000009536743 1.6119999885559082,0.3330000042915344 2.11299991607666,-0.3400000035762787 C2.2780001163482666,-0.5609999895095825 2.1570000648498535,-0.9369999766349792 1.9249999523162842,-1.059000015258789 C1.649999976158142,-1.2050000429153442 1.38100004196167,-1.1069999933242798 1.2050000429153442,-0.8700000047683716 C1.1540000438690186,-0.8019999861717224 1.2079999446868896,-0.8709999918937683 1.1749999523162842,-0.8309999704360962 C1.152999997138977,-0.8040000200271606 1.13100004196167,-0.7770000100135803 1.1080000400543213,-0.75 C1.0570000410079956,-0.6899999976158142 1.003999948501587,-0.6309999823570251 0.9480000138282776,-0.5740000009536743 C0.8939999938011169,-0.5170000195503235 0.8370000123977661,-0.4620000123977661 0.7770000100135803,-0.4099999964237213 C0.7450000047683716,-0.3799999952316284 0.7120000123977661,-0.35199999809265137 0.6779999732971191,-0.3240000009536743 C0.6579999923706055,-0.3070000112056732 0.6150000095367432,-0.2770000100135803 0.6600000262260437,-0.3100000023841858 C0.5329999923706055,-0.21799999475479126 0.4000000059604645,-0.13899999856948853 0.25999999046325684,-0.0689999982714653 C0.11500000208616257,0.003000000026077032 0.3050000071525574,-0.0820000022649765 0.21899999678134918,-0.04899999871850014 C0.17800000309944153,-0.03400000184774399 0.1379999965429306,-0.019999999552965164 0.09600000083446503,-0.007000000216066837 C0.02500000037252903,0.01600000075995922 -0.04899999871850014,0.03500000014901161 -0.12200000137090683,0.04899999871850014 C-0.1340000033378601,0.050999999046325684 -0.23000000417232513,0.06300000101327896 -0.16699999570846558,0.05700000002980232 C-0.09600000083446503,0.05000000074505806 -0.23800000548362732,0.05999999865889549 -0.2370000034570694,0.05999999865889549 C-0.3070000112056732,0.06400000303983688 -0.37700000405311584,0.06400000303983688 -0.44699999690055847,0.05900000035762787 C-0.4569999873638153,0.057999998331069946 -0.5559999942779541,0.04800000041723251 -0.49300000071525574,0.0560000017285347 C-0.42100000381469727,0.06499999761581421 -0.546999990940094,0.04500000178813934 -0.5609999895095825,0.041999999433755875 C-0.6290000081062317,0.027000000700354576 -0.6959999799728394,0.008999999612569809 -0.7620000243186951,-0.014000000432133675 C-0.7710000276565552,-0.01600000075995922 -0.8610000014305115,-0.052000001072883606 -0.8069999814033508,-0.028999999165534973 C-0.7440000176429749,-0.003000000026077032 -0.8569999933242798,-0.05400000140070915 -0.8690000176429749,-0.05999999865889549 C-0.9290000200271606,-0.09200000017881393 -0.9850000143051147,-0.13099999725818634 -1.0429999828338623,-0.1679999977350235 C-1.1069999933242798,-0.20999999344348907 -0.9869999885559082,-0.11800000071525574 -1.0429999828338623,-0.17100000381469727 C-1.0700000524520874,-0.19699999690055847 -1.0989999771118164,-0.22200000286102295 -1.125,-0.24899999797344208 C-1.1460000276565552,-0.27000001072883606 -1.1660000085830688,-0.2919999957084656 -1.1859999895095825,-0.3149999976158142 C-1.1150000095367432,-0.2329999953508377 -1.2020000219345093,-0.3440000116825104 -1.2109999656677246,-0.3580000102519989 C-1.3589999675750732,-0.5889999866485596 -1.684999942779541,-0.7049999833106995 -1.9299999475479126,-0.546999990940094 C-2.1610000133514404,-0.39800000190734863 -2.2780001163482666,-0.07599999755620956 -2.11899995803833,0.1720000058412552z"></path></g><g opacity="1" transform="matrix(1,0,0,1,13.621000289916992,15.680000305175781)"><path fill="rgb(0,0,0)" fill-opacity="1" d=" M5.019999980926514,2.8239998817443848 C4.394000053405762,1.4210000038146973 3.696000099182129,0.050999999046325684 2.9170000553131104,-1.2730000019073486 C2.2839999198913574,-2.3480000495910645 1.5049999952316284,-3.430999994277954 0.24300000071525574,-3.7829999923706055 C-0.4320000112056732,-3.9719998836517334 -1.1440000534057617,-3.944000005722046 -1.8350000381469727,-3.8980000019073486 C-2.4609999656677246,-3.8550000190734863 -3.0989999771118164,-3.803999900817871 -3.681999921798706,-3.552999973297119 C-4.854000091552734,-3.0480000972747803 -5.291999816894531,-1.7829999923706055 -5.01200008392334,-0.5889999866485596 C-4.691999912261963,0.7710000276565552 -3.4549999237060547,1.815999984741211 -2.1019999980926514,2.0480000972747803 C-1.4390000104904175,2.1610000133514404 -1.1549999713897705,1.1480000019073486 -1.8220000267028809,1.034000039100647 C-2.996999979019165,0.8330000042915344 -4.111999988555908,-0.13300000131130219 -4.047999858856201,-1.409999966621399 C-3.9739999771118164,-2.88700008392334 -2.184000015258789,-2.871000051498413 -1.0809999704360962,-2.881999969482422 C-0.3869999945163727,-2.88700008392334 0.2709999978542328,-2.7730000019073486 0.8140000104904175,-2.313999891281128 C1.3049999475479126,-1.899999976158142 1.6510000228881836,-1.3480000495910645 1.975000023841858,-0.8009999990463257 C2.7690000534057617,0.5410000085830688 3.4760000705718994,1.930999994277954 4.111000061035156,3.3550000190734863 C4.386000156402588,3.9709999561309814 5.293000221252441,3.437000036239624 5.019999980926514,2.8239998817443848z"></path></g><g opacity="1" transform="matrix(1,0,0,1,10.206999778747559,21.500999450683594)"><path fill="rgb(0,0,0)" fill-opacity="1" d=" M0.9359999895095825,-4.413000106811523 C-0.07699999958276749,-3.1689999103546143 -1.031999945640564,-1.8519999980926514 -1.5720000267028809,-0.3269999921321869 C-2.1029999256134033,1.1699999570846558 -2.0920000076293945,2.759000062942505 -1.6859999895095825,4.284999847412109 C-1.5119999647140503,4.938000202178955 -0.4970000088214874,4.660999774932861 -0.6710000038146973,4.005000114440918 C-1.031999945640564,2.6480000019073486 -1.027999997138977,1.281999945640564 -0.5569999814033508,-0.04800000041723251 C-0.0820000022649765,-1.3899999856948853 0.7889999747276306,-2.575000047683716 1.6799999475479126,-3.6689999103546143 C2.1029999256134033,-4.190000057220459 1.3639999628067017,-4.938000202178955 0.9359999895095825,-4.413000106811523z"></path></g><g opacity="1" transform="matrix(1,0,0,1,14.942999839782715,28.06399917602539)"><path fill="rgb(0,0,0)" fill-opacity="1" d=" M1.055999994277954,-0.8119999766349792 C0.8569999933242798,-0.6859999895095825 0.6510000228881836,-0.5709999799728394 0.43700000643730164,-0.4729999899864197 C0.4090000092983246,-0.46000000834465027 0.3799999952316284,-0.4480000138282776 0.35100001096725464,-0.4359999895095825 C0.4050000011920929,-0.4580000042915344 0.40400001406669617,-0.4569999873638153 0.34700000286102295,-0.43299999833106995 C0.30300000309944153,-0.41600000858306885 0.25999999046325684,-0.39899998903274536 0.2150000035762787,-0.38199999928474426 C0.10499999672174454,-0.3409999907016754 -0.006000000052154064,-0.3050000071525574 -0.11900000274181366,-0.2709999978542328 C-0.33899998664855957,-0.2070000022649765 -0.5600000023841858,-0.16099999845027924 -0.7850000262260437,-0.12300000339746475 C-0.847000002861023,-0.11400000005960464 -0.847000002861023,-0.11400000005960464 -0.7850000262260437,-0.12300000339746475 C-0.8159999847412109,-0.11900000274181366 -0.847000002861023,-0.11500000208616257 -0.878000020980835,-0.11100000143051147 C-0.925000011920929,-0.10599999874830246 -0.972000002861023,-0.10400000214576721 -1.0190000534057617,-0.10000000149011612 C-1.1440000534057617,-0.09000000357627869 -1.2690000534057617,-0.08399999886751175 -1.3949999809265137,-0.08399999886751175 C-1.6699999570846558,-0.0820000022649765 -1.9329999685287476,0.15700000524520874 -1.9199999570846558,0.44200000166893005 C-1.906999945640564,0.7260000109672546 -1.6890000104904175,0.9700000286102295 -1.3949999809265137,0.9679999947547913 C-0.3440000116825104,0.9610000252723694 0.699999988079071,0.6610000133514404 1.5870000123977661,0.09700000286102295 C1.819000005722046,-0.05000000074505806 1.9329999685287476,-0.37700000405311584 1.774999976158142,-0.6230000257492065 C1.6260000467300415,-0.8539999723434448 1.3049999475479126,-0.9700000286102295 1.055999994277954,-0.8119999766349792z"></path></g></g><g transform="matrix(1.99769127368927,-0.09607076644897461,0.09607076644897461,1.99769127368927,108.64092254638672,65.5632095336914)" opacity="1" style="display: block;"><g opacity="1" transform="matrix(1,0,0,1,12.111000061035156,29.218000411987305)"><path fill="rgb(17,164,22)" fill-opacity="1" d=" M-11.49899959564209,-26.35700035095215 C-11.567999839782715,-26.88800048828125 -11.192999839782715,-27.368000030517578 -10.66100025177002,-27.43400001525879 C-10.66100025177002,-27.43400001525879 1.1339999437332153,-28.908000946044922 1.1339999437332153,-28.908000946044922 C1.6150000095367432,-28.968000411987305 2.065000057220459,-28.663000106811523 2.187999963760376,-28.19499969482422 C2.187999963760376,-28.19499969482422 10.87399959564209,4.739999771118164 10.87399959564209,4.739999771118164 C11.861000061035156,8.480999946594238 9.812000274658203,12.909000396728516 6.322000026702881,14.581000328063965 C6.322000026702881,14.581000328063965 6.248000144958496,14.616999626159668 6.248000144958496,14.616999626159668 C5.195000171661377,15.121000289916992 4.23199987411499,15.78499984741211 3.3289999961853027,16.524999618530273 C-11.862000465393066,28.968000411987305 -10.994000434875488,-22.492000579833984 -11.49899959564209,-26.35700035095215z"></path></g><g opacity="1" transform="matrix(1,0,0,1,7.909999847412109,3.6010000705718994)"><path fill="rgb(0,0,0)" fill-opacity="1" d=" M6.390999794006348,-2.5789999961853027 C6.267000198364258,-3.046999931335449 5.816999912261963,-3.3499999046325684 5.336999893188477,-3.2899999618530273 C5.336999893188477,-3.2899999618530273 -6.460000038146973,-1.815999984741211 -6.460000038146973,-1.815999984741211 C-6.991000175476074,-1.7489999532699585 -7.367000102996826,-1.2649999856948853 -7.297999858856201,-0.734000027179718 C-7.184000015258789,0.13500000536441803 -6.998000144958496,1.5540000200271606 -6.760000228881836,3.3499999046325684 C-6.760000228881836,3.3499999046325684 7.367000102996826,1.1239999532699585 7.367000102996826,1.1239999532699585 C7.367000102996826,1.1239999532699585 6.390999794006348,-2.5789999961853027 6.390999794006348,-2.5789999961853027z"></path></g></g><g transform="matrix(1.9999815225601196,0.008611980825662613,-0.008611980825662613,1.9999815225601196,125.79078674316406,126.05572509765625)" opacity="1" style="display: block;"><g opacity="1" transform="matrix(1,0,0,1,14.008000373840332,26.20800018310547)"><path fill="rgb(0,0,0)" fill-opacity="1" d=" M-1.2940000295639038,25.202999114990234 C-1.2940000295639038,25.202999114990234 -12.458000183105469,-9.57800006866455 -12.458000183105469,-9.57800006866455 C-12.458000183105469,-9.57800006866455 -13.756999969482422,-15.543000221252441 -7.997000217437744,-20.75 C-2.236999988555908,-25.95800018310547 0.10999999940395355,-25.839000701904297 2.3010001182556152,-24.323999404907227 C2.3010001182556152,-24.323999404907227 8.871000289916992,-8.270000457763672 8.871000289916992,-8.270000457763672 C8.871000289916992,-8.270000457763672 13.756999969482422,4.978000164031982 13.756999969482422,4.978000164031982 C13.756999969482422,4.978000164031982 16.23699951171875,10.253999710083008 15.284000396728516,13.142999649047852 C13.807000160217285,17.621999740600586 8.079000473022461,20.829999923706055 3.0139999389648438,24.29599952697754 C0.5860000252723694,25.95800018310547 -1.2940000295639038,25.202999114990234 -1.2940000295639038,25.202999114990234z"></path></g><g opacity="1" transform="matrix(1,0,0,1,8.920000076293945,8.64900016784668)"><path fill="rgb(158,159,159)" fill-opacity="1" d=" M7.388999938964844,-6.764999866485596 C6.130000114440918,-7.636000156402588 4.815999984741211,-8.038000106811523 2.8350000381469727,-7.241000175476074 C1.7389999628067017,-6.636000156402588 0.5960000157356262,-5.946000099182129 -0.5529999732971191,-5.169000148773193 C-1.2719999551773071,-4.616000175476074 -2.0490000247955322,-3.9700000286102295 -2.9100000858306885,-3.190999984741211 C-8.670000076293945,2.0169999599456787 -7.369999885559082,7.98199987411499 -7.369999885559082,7.98199987411499 C-7.369999885559082,7.98199987411499 -7.353000164031982,8.038000106811523 -7.353000164031982,8.038000106811523 C-5.302000045776367,5.0370001792907715 -2.191999912261963,1.3839999437332153 1.7940000295639038,-0.6119999885559082 C4.9720001220703125,-2.203000068664551 7.176000118255615,-3.11299991607666 8.668999671936035,-3.638000011444092 C8.668999671936035,-3.638000011444092 7.388999938964844,-6.764999866485596 7.388999938964844,-6.764999866485596z"></path></g></g><g transform="matrix(2,0,0,2,260,524)" opacity="1" style="display: block;"><g opacity="1" transform="matrix(1,0,0,1,12.024999618530273,22.37299919128418)"><path fill="rgb(0,71,88)" fill-opacity="1" d=" M0.421999990940094,-13.244999885559082 C1.0750000476837158,-12.526000022888184 0.8999999761581421,-10.892000198364258 0.9570000171661377,-9.930000305175781 C0.9860000014305115,-9.428000450134277 1.3240000009536743,-7.419000148773193 1.4290000200271606,-7.243000030517578 C2.2090001106262207,-5.934000015258789 5.260000228881836,-0.16899999976158142 6.526000022888184,1.940999984741211 C7.958000183105469,4.326000213623047 10.232000350952148,9.112000465393066 8.119000434875488,11.565999984741211 C6.00600004196167,14.019000053405762 1.440000057220459,14.5649995803833 -1.0140000581741333,14.291999816894531 C-3.4670000076293945,14.019000053405762 -6.466000080108643,12.043000221252441 -6.942999839782715,9.385000228881836 C-7.366000175476074,7.025000095367432 -8.017999649047852,-3.134999990463257 -7.949999809265137,-5.263999938964844 C-7.940999984741211,-5.541999816894531 -8.015000343322754,-5.815000057220459 -8.15999984741211,-6.052999973297119 C-8.473999977111816,-6.561999797821045 -9.07800006866455,-8.29800033569336 -9.418000221252441,-8.965999603271484 C-9.857000350952148,-9.829000473022461 -10.232000350952148,-10.680999755859375 -9.04800033569336,-11.640999794006348 C-7.392000198364258,-12.982999801635742 -0.7760000228881836,-14.564000129699707 0.421999990940094,-13.244999885559082z"></path></g><g opacity="1" transform="matrix(1,0,0,1,6.204999923706055,7.065000057220459)"><path fill="rgb(255,159,170)" fill-opacity="1" d=" M-5.955999851226807,-3.0829999446868896 C-5.955999851226807,-3.0829999446868896 -3.115000009536743,5.166999816894531 -3.115000009536743,5.166999816894531 C-3.115000009536743,5.166999816894531 -1.6160000562667847,6.815000057220459 1.8009999990463257,5.929999828338623 C5.541999816894531,4.961999893188477 5.955999851226807,3.437999963760376 5.955999851226807,3.437999963760376 C5.955999851226807,3.437999963760376 4.182000160217285,-6.814000129699707 4.182000160217285,-6.814000129699707 C4.182000160217285,-6.814000129699707 -5.955999851226807,-3.0829999446868896 -5.955999851226807,-3.0829999446868896z"></path></g><g opacity="1" transform="matrix(1,0,0,1,6.3979997634887695,5.044000148773193)"><path fill="rgb(0,0,0)" fill-opacity="1" d=" M-5.070000171661377,2.2190001010894775 C-3.1760001182556152,2.7269999980926514 0.44699999690055847,3.4649999141693115 5.4070000648498535,3.434000015258789 C5.4070000648498535,3.434000015258789 4.218999862670898,-3.4649999141693115 4.218999862670898,-3.4649999141693115 C4.218999862670898,-3.4649999141693115 -5.4070000648498535,1.1929999589920044 -5.4070000648498535,1.1929999589920044 C-5.4070000648498535,1.1929999589920044 -5.070000171661377,2.2190001010894775 -5.070000171661377,2.2190001010894775z"></path></g></g><g transform="matrix(1.9987672567367554,0.07020983099937439,-0.07020983099937439,1.9987672567367554,132.84378051757812,322.9429931640625)" opacity="1" style="display: block;"><g opacity="1" transform="matrix(1,0,0,1,20.666000366210938,23.78499984741211)"><path fill="rgb(0,104,128)" fill-opacity="1" d=" M7.682000160217285,13.418000221252441 C7.682000160217285,13.418000221252441 16.951000213623047,-4.946000099182129 16.951000213623047,-4.946000099182129 C20.41699981689453,-11.814000129699707 16.406999588012695,-20.097999572753906 8.869999885559082,-21.641000747680664 C8.869999885559082,-21.641000747680664 5.76800012588501,-22.277000427246094 5.76800012588501,-22.277000427246094 C-0.3779999911785126,-23.53499984741211 -6.420000076293945,-19.708999633789062 -7.910999774932861,-13.614999771118164 C-7.910999774932861,-13.614999771118164 -8.352999687194824,-11.814000129699707 -8.352999687194824,-11.814000129699707 C-8.432000160217285,-11.48900032043457 -8.526000022888184,-11.168000221252441 -8.633000373840332,-10.850000381469727 C-8.633000373840332,-10.850000381469727 -14.767999649047852,5.739999771118164 -14.767999649047852,5.739999771118164 C-16.920000076293945,12.104000091552734 -20.416000366210938,19.850000381469727 -10.493000030517578,21.902000427246094 C-10.493000030517578,21.902000427246094 -8.357000350952148,22.069000244140625 -8.357000350952148,22.069000244140625 C-3.003000020980835,23.534000396728516 2.7190001010894775,23.152000427246094 7.682000160217285,13.418000221252441z"></path></g></g><g transform="matrix(0.9987098574638367,0.05078079178929329,-0.05078079178929329,0.9987098574638367,236.72085571289062,315.27886962890625)" opacity="1" style="display: block;"><g opacity="1" transform="matrix(1,0,0,1,0,0)"><path fill="rgb(0,0,0)" fill-opacity="1" d=" M-42.625,50.125 C-42.75,55.125 -38.683998107910156,70.9010009765625 -38.683998107910156,70.9010009765625 C-38.683998107910156,70.9010009765625 -36.375,66 -36.375,66 C-36.375,66 -27.405000686645508,50.03799819946289 -27.405000686645508,50.03799819946289 C-27.405000686645508,50.03799819946289 -37.422000885009766,48.374000549316406 -42.625,50.125z"></path><path stroke-linecap="butt" stroke-linejoin="miter" fill-opacity="0" stroke-miterlimit="4" stroke="rgb(0,0,0)" stroke-opacity="1" stroke-width="0" d=" M-42.625,50.125 C-42.75,55.125 -38.683998107910156,70.9010009765625 -38.683998107910156,70.9010009765625 C-38.683998107910156,70.9010009765625 -36.375,66 -36.375,66 C-36.375,66 -27.405000686645508,50.03799819946289 -27.405000686645508,50.03799819946289 C-27.405000686645508,50.03799819946289 -37.422000885009766,48.374000549316406 -42.625,50.125z"></path></g></g><g transform="matrix(2,0.00001248873468284728,-0.00001248873468284728,2,174.00003051757812,324.9998474121094)" opacity="1" style="display: none;"><g opacity="1" transform="matrix(1,0,0,1,27.761999130249023,53.98899841308594)"><path fill="rgb(0,104,128)" fill-opacity="1" d=" M-21.665000915527344,-53.63100051879883 C-21.665000915527344,-53.63100051879883 11.491000175476074,-52.68899917602539 11.491000175476074,-52.68899917602539 C13.652999877929688,-52.62699890136719 15.425000190734863,-50.959999084472656 15.611000061035156,-48.80500030517578 C16.645000457763672,-36.84199905395508 19.829999923706055,-0.4189999997615814 20.492000579833984,2.052999973297119 C22.17099952697754,8.319999694824219 26.006999969482422,37.75299835205078 27.2189998626709,47.224998474121094 C27.511999130249023,49.516998291015625 26.218000411987305,51.7239990234375 24.05900001525879,52.54800033569336 C23.20400047302246,52.874000549316406 22.16200065612793,53.16600036621094 20.90399932861328,53.367000579833984 C19.49799919128418,53.59000015258789 18.333999633789062,53.685001373291016 17.375999450683594,53.70100021362305 C15.107999801635742,53.73899841308594 13.107000350952148,52.25400161743164 12.510000228881836,50.06700134277344 C10.11299991607666,41.277000427246094 2.9539999961853027,15.059000015258789 1.628000020980835,10.637999534606934 C0.28299999237060547,6.1539998054504395 -6.258999824523926,-21.948999404907227 -8.295999526977539,-30.733999252319336 C-8.668000221252441,-32.34000015258789 -9.932000160217285,-33.577999114990234 -11.543000221252441,-33.92599868774414 C-12.35200023651123,-34.10100173950195 -13.092000007629395,-34.50699996948242 -13.673999786376953,-35.09600067138672 C-13.673999786376953,-35.09600067138672 -29.06599998474121,-36.382999420166016 -29.06599998474121,-36.382999420166016 C-31.761999130249023,-39.11399841308594 -25.50200080871582,-53.7400016784668 -21.665000915527344,-53.63100051879883z"></path></g><g opacity="1" transform="matrix(1,0,0,1,14.527999877929688,20.224000930786133)"><path fill="rgb(0,0,0)" fill-opacity="1" d=" M0.18799999356269836,0.05900000035762787 C1.6519999504089355,0.4169999957084656 3.0880000591278076,0.8899999856948853 4.4710001945495605,1.4989999532699585 C5.0879998207092285,1.7710000276565552 5.626999855041504,0.8610000014305115 5.005000114440918,0.5860000252723694 C1.8550000190734863,-0.8019999861717224 -1.5049999952316284,-1.5950000286102295 -4.947000026702881,-1.7419999837875366 C-5.625999927520752,-1.7710000276565552 -5.625,-0.7129999995231628 -4.947000026702881,-0.6850000023841858 C-4.5929999351501465,-0.6700000166893005 -4.243000030517578,-0.6190000176429749 -3.8910000324249268,-0.5899999737739563"></path></g></g><g transform="matrix(2,0,0,2,174,325)" opacity="1" style="display: block;"><g opacity="1" transform="matrix(1,0,0,1,27.761999130249023,53.98899841308594)"><path fill="rgb(0,104,128)" fill-opacity="1" d=" M-21.665000915527344,-53.63100051879883 C-21.665000915527344,-53.63100051879883 11.491000175476074,-52.68899917602539 11.491000175476074,-52.68899917602539 C13.652999877929688,-52.62699890136719 15.425000190734863,-50.959999084472656 15.611000061035156,-48.80500030517578 C16.645000457763672,-36.84199905395508 19.829999923706055,-0.4189999997615814 20.492000579833984,2.052999973297119 C22.17099952697754,8.319999694824219 26.006999969482422,37.75299835205078 27.2189998626709,47.224998474121094 C27.511999130249023,49.516998291015625 26.218000411987305,51.7239990234375 24.05900001525879,52.54800033569336 C23.20400047302246,52.874000549316406 22.16200065612793,53.16600036621094 20.90399932861328,53.367000579833984 C19.49799919128418,53.59000015258789 18.333999633789062,53.685001373291016 17.375999450683594,53.70100021362305 C15.107999801635742,53.73899841308594 13.107000350952148,52.25400161743164 12.510000228881836,50.06700134277344 C10.11299991607666,41.277000427246094 2.9539999961853027,15.059000015258789 1.628000020980835,10.637999534606934 C0.28299999237060547,6.1539998054504395 -6.258999824523926,-21.948999404907227 -8.295999526977539,-30.733999252319336 C-8.668000221252441,-32.34000015258789 -7.932000160217285,-33.077999114990234 -9.543000221252441,-33.42599868774414 C-10.35200023651123,-33.60100173950195 -13.092000007629395,-34.50699996948242 -13.673999786376953,-35.09600067138672 C-13.673999786376953,-35.09600067138672 -27.31599998474121,-35.132999420166016 -27.31599998474121,-35.132999420166016 C-30.011999130249023,-37.86399841308594 -25.50200080871582,-53.7400016784668 -21.665000915527344,-53.63100051879883z"></path></g><g opacity="1" transform="matrix(1,0,0,1,14.527999877929688,20.224000930786133)"><path fill="rgb(0,0,0)" fill-opacity="1" d=" M0.18799999356269836,0.05900000035762787 C1.6519999504089355,0.4169999957084656 3.0880000591278076,0.8899999856948853 4.4710001945495605,1.4989999532699585 C5.0879998207092285,1.7710000276565552 5.626999855041504,0.8610000014305115 5.005000114440918,0.5860000252723694 C1.8550000190734863,-0.8019999861717224 -1.5049999952316284,-1.5950000286102295 -4.947000026702881,-1.7419999837875366 C-5.625999927520752,-1.7710000276565552 -5.625,-0.7129999995231628 -4.947000026702881,-0.6850000023841858 C-4.5929999351501465,-0.6700000166893005 -4.243000030517578,-0.6190000176429749 -3.8910000324249268,-0.5899999737739563"></path></g></g><g transform="matrix(1.9994274377822876,-0.0478520393371582,0.0478520393371582,1.9994274377822876,141.59323120117188,465.42364501953125)" opacity="1" style="display: block;"><g opacity="1" transform="matrix(1,0,0,1,14.854999542236328,23.354000091552734)"><path fill="rgb(0,71,88)" fill-opacity="1" d=" M0.2639999985694885,-8.086999893188477 C-0.07500000298023224,-9.39900016784668 -1.4559999704360962,-11.074000358581543 -0.7319999933242798,-12.5 C-0.09600000083446503,-13.75100040435791 8.243000030517578,-16.77199935913086 9.583999633789062,-15.843000411987305 C10.925999641418457,-14.913999557495117 10.720000267028809,-12.850000381469727 11.029000282287598,-11.817000389099121 C11.33899974822998,-10.78499984741211 13.505999565124512,-3.3540000915527344 13.505999565124512,-3.3540000915527344 C13.505999565124512,-3.3540000915527344 14.605999946594238,1.0210000276565552 7.004000186920166,5.109000205993652 C7.004000186920166,5.109000205993652 4.113999843597412,8.206000328063965 2.4630000591278076,10.78600025177002 C0.8109999895095825,13.366000175476074 -1.5640000104904175,15.32800006866455 -4.557000160217285,16.049999237060547 C-7.550000190734863,16.77199935913086 -10.723999977111816,15.998000144958496 -12.503999710083008,14.192000389099121 C-14.605999946594238,12.057999610900879 -14.541000366210938,8.670000076293945 -12.993000030517578,6.090000152587891 C-11.444999694824219,3.509999990463257 -6.928999900817871,1.600000023841858 -4.76200008392334,-0.15399999916553497 C-2.5950000286102295,-1.909000039100647 -0.42800000309944153,-3.6640000343322754 0.19099999964237213,-5.418000221252441 C0.8100000023841858,-7.172999858856201 0.43299999833106995,-7.433000087738037 0.2639999985694885,-8.086999893188477z"></path></g><g opacity="1" transform="matrix(1,0,0,1,18.34000015258789,6.466000080108643)"><path fill="rgb(255,159,170)" fill-opacity="1" d=" M-5.88700008392334,-0.5699999928474426 C-5.88700008392334,-0.5699999928474426 -3.184000015258789,5.584000110626221 -3.184000015258789,5.584000110626221 C-3.184000015258789,5.584000110626221 -1.36899995803833,6.216000080108643 1.7070000171661377,5.388000011444092 C5.5970001220703125,4.340000152587891 5.88700008392334,2.5869998931884766 5.88700008392334,2.5869998931884766 C5.88700008392334,2.5869998931884766 2.7880001068115234,-6.216000080108643 2.7880001068115234,-6.216000080108643 C2.7880001068115234,-6.216000080108643 -5.88700008392334,-0.5699999928474426 -5.88700008392334,-0.5699999928474426z"></path></g><g opacity="1" transform="matrix(1,0,0,1,18.496000289916992,5.855999946594238)"><path fill="rgb(0,0,0)" fill-opacity="1" d=" M-4.943999767303467,2.5409998893737793 C-3.38700008392334,2.9790000915527344 -0.1469999998807907,3.4049999713897705 5.331999778747559,2.063999891281128 C5.331999778747559,2.063999891281128 3.4070000648498535,-3.4049999713897705 3.4070000648498535,-3.4049999713897705 C3.4070000648498535,-3.4049999713897705 -5.331999778747559,1.659000039100647 -5.331999778747559,1.659000039100647 C-5.331999778747559,1.659000039100647 -4.943999767303467,2.5409998893737793 -4.943999767303467,2.5409998893737793z"></path></g></g><g transform="matrix(1.9995677471160889,0.04158102348446846,-0.04158102348446846,1.9995677471160889,150.15060424804688,176.9515380859375)" opacity="1" style="display: block;"><g opacity="1" transform="matrix(1,0,0,1,28.590999603271484,40.5620002746582)"><path fill="rgb(17,164,22)" fill-opacity="1" d=" M-15.26099967956543,-38.97700119018555 C-19.878000259399414,-38.361000061035156 -26.895999908447266,-29.243000030517578 -27.725000381469727,-13.277000427246094 C-28.340999603271484,-1.4279999732971191 -26.368000030517578,2.640000104904175 -24.020999908447266,11.03600025177002 C-23.365999221801758,13.378000259399414 -23.552000045776367,23.395999908447266 -22.724000930786133,26.375999450683594 C-22.07900047302246,28.69700050354004 -20.26799964904785,29.92799949645996 -20.26799964904785,29.92799949645996 C-20.26799964904785,29.92799949645996 -21.261999130249023,33.02799987792969 -20.117000579833984,34.665000915527344 C-18.97100067138672,36.30099868774414 -6.367000102996826,40.3129997253418 5.745999813079834,39.821998596191406 C17.858999252319336,39.33100128173828 27.43400001525879,36.30099868774414 27.43400001525879,36.30099868774414 C27.43400001525879,36.30099868774414 27.961000442504883,35.14099884033203 27.816999435424805,33.606998443603516 C27.709999084472656,32.4630012512207 27.10700035095215,31.882999420166016 27.10700035095215,31.882999420166016 C27.10700035095215,31.882999420166016 28.340999603271484,27.80900001525879 28.094999313354492,24.698999404907227 C27.850000381469727,21.589000701904297 24.815000534057617,16.33300018310547 23.996999740600586,12.07699966430664 C23.17799949645996,7.821000099182129 21.945999145507812,2.867000102996826 23.055999755859375,-7.429999828338623 C24.16699981689453,-17.72599983215332 27.19700050354004,-28.80900001525879 21.847000122070312,-31.433000564575195 C16.496999740600586,-34.05799865722656 -5.238999843597412,-40.3129997253418 -15.26099967956543,-38.97700119018555z"></path></g><g opacity="1" transform="matrix(1,0,0,1,10.050999641418457,24.75200080871582)"><path fill="rgb(158,159,159)" fill-opacity="1" d=" M-0.8529999852180481,-0.8769999742507935 C-3.4030001163482666,0.9599999785423279 -7.065999984741211,2.8329999446868896 -9.236000061035156,3.884000062942505 C-9.281000137329102,5.609000205993652 -9.230999946594238,7.1539998054504395 -9.104000091552734,8.560999870300293 C-6.829999923706055,7.228000164031982 -2.9170000553131104,4.822999954223633 0.7429999709129333,2.0390000343322754 C5.671000003814697,-1.7100000381469727 9.281000137329102,-6.567999839782715 9.281000137329102,-6.567999839782715 C9.281000137329102,-6.567999839782715 7.189000129699707,-8.560999870300293 7.189000129699707,-8.560999870300293 C7.189000129699707,-8.560999870300293 3.5840001106262207,-4.072000026702881 -0.8529999852180481,-0.8769999742507935z"></path></g><g opacity="1" transform="matrix(1,0,0,1,30.680999755859375,51.832000732421875)"><path fill="rgb(0,0,0)" fill-opacity="1" d=" M25.884000778198242,12.609000205993652 C25.884000778198242,12.609000205993652 25.884000778198242,12.609000205993652 25.884000778198242,12.609000205993652 C25.56800079345703,10.993000030517578 24.73200035095215,8.961999893188477 23.888999938964844,6.8420000076293945 C23.756999969482422,6.508999824523926 23.625,6.175000190734863 23.493999481201172,5.839000225067139 C23.488000869750977,5.822000026702881 23.481000900268555,5.804999828338623 23.474000930786133,5.788000106811523 C23.334999084472656,5.428999900817871 23.198999404907227,5.068999767303467 23.066999435424805,4.710000038146973 C23.038999557495117,4.633999824523926 23.01099967956543,4.559000015258789 22.983999252319336,4.482999801635742 C22.84600067138672,4.103000164031982 22.711999893188477,3.7230000495910645 22.589000701904297,3.3459999561309814 C22.58799934387207,3.3459999561309814 22.58799934387207,3.3450000286102295 22.58799934387207,3.3440001010894775 C18.43400001525879,0.847000002861023 12.116999626159668,-2.9019999504089355 8.487000465393066,-4.811999797821045 C2.869999885559082,-7.76800012588501 -8.862000465393066,-12.609000205993652 -8.862000465393066,-12.609000205993652 C-8.862000465393066,-12.609000205993652 -15.656999588012695,-7.4730000495910645 -18.416000366210938,-4.910999774932861 C-19.68899917602539,-3.7279999256134033 -24.05699920654297,-0.609000027179718 -25.884000778198242,1.1460000276565552 C-25.663000106811523,3.1589999198913574 -25.576000213623047,6.4730000495910645 -25.420000076293945,9.463000297546387 C-22.70199966430664,6.955999851226807 -18.29800033569336,3.6389999389648438 -16.740999221801758,2.184999942779541 C-13.784000396728516,-0.5740000009536743 -8.265999794006348,-4.714000225067139 -8.265999794006348,-4.714000225067139 C-8.265999794006348,-4.714000225067139 1.3350000381469727,-1.3559999465942383 7.4029998779296875,1.7899999618530273 C11.531000137329102,3.930999994277954 21.583999633789062,9.996999740600586 25.884000778198242,12.609000205993652z"></path></g><g opacity="1" transform="matrix(1,0,0,1,26.597999572753906,42.321998596191406)"><path fill="rgb(2,121,13)" fill-opacity="1" d=" M11.281999588012695,-25.48900032043457 C11.935999870300293,-25.9689998626709 11.302000045776367,-27.076000213623047 10.638999938964844,-26.59000015258789 C7.158999919891357,-24.034000396728516 1.3890000581741333,-22.597000122070312 -3.2639999389648438,-23.53700065612793 C-3.247999906539917,-23.589000701904297 -3.2249999046325684,-23.63599967956543 -3.2209999561309814,-23.69700050354004 C-3.1110000610351562,-25.33099937438965 -2.6110000610351562,-26.839000701904297 -1.75,-28.23200035095215 C-1.3179999589920044,-28.93199920654297 -2.4200000762939453,-29.57200050354004 -2.8510000705718994,-28.875 C-3.803999900817871,-27.333999633789062 -4.335000038146973,-25.641000747680664 -4.478000164031982,-23.840999603271484 C-7.803999900817871,-24.87299919128418 -10.329000473022461,-27.312000274658203 -10.609000205993652,-31.698999404907227 C-10.66100025177002,-32.513999938964844 -11.9350004196167,-32.52000045776367 -11.883000373840332,-31.698999404907227 C-11.562999725341797,-26.687999725341797 -8.600000381469727,-23.834999084472656 -4.73799991607666,-22.641000747680664 C-4.738999843597412,-22.632999420166016 -4.74399995803833,-22.628000259399414 -4.744999885559082,-22.6200008392334 C-7.129000186920166,-4.676000118255615 -4.888999938964844,14.199999809265137 -0.7039999961853027,31.722000122070312 C-0.5139999985694885,32.52000045776367 0.7160000205039978,32.18199920654297 0.5249999761581421,31.384000778198242 C-3.614000082015991,14.057999610900879 -5.813000202178955,-4.559000015258789 -3.505000114440918,-22.320999145507812 C1.4079999923706055,-21.280000686645508 7.388999938964844,-22.6299991607666 11.281999588012695,-25.48900032043457z"></path></g><g opacity="1" transform="matrix(1,0,0,1,40.96699905395508,31.166000366210938)"><path fill="rgb(158,159,159)" fill-opacity="1" d=" M10.336000442504883,12.770999908447266 C10.227999687194824,11.04699993133545 10.201000213623047,9.088000297546387 10.303000450134277,6.814000129699707 C7.751999855041504,5.1620001792907715 3.828000068664551,2.36899995803833 0.7710000276565552,-0.9380000233650208 C-5.578999996185303,-7.809000015258789 -6.7789998054504395,-12.770999908447266 -6.7789998054504395,-12.770999908447266 C-6.7789998054504395,-12.770999908447266 -10.336000442504883,-11.550999641418457 -10.336000442504883,-11.550999641418457 C-10.336000442504883,-11.550999641418457 -8.630000114440918,-4.747000217437744 -2.750999927520752,1.562000036239624 C1.7669999599456787,6.4120001792907715 8.039999961853027,11.107999801635742 10.336000442504883,12.770999908447266z"></path></g><g opacity="1" transform="matrix(1,0,0,1,31.940000534057617,75.68199920654297)"><path fill="rgb(2,121,13)" fill-opacity="1" d=" M2.3970000743865967,4.701000213623047 C14.510000228881836,4.210000038146973 24.084999084472656,1.1820000410079956 24.084999084472656,1.1820000410079956 C24.084999084472656,1.1820000410079956 24.611000061035156,0.019999999552965164 24.466999053955078,-1.5140000581741333 C24.37299919128418,-2.515000104904175 23.900999069213867,-3.0820000171661377 23.78499984741211,-3.2100000381469727 C15.098999977111816,-0.9369999766349792 4.681000232696533,-0.6940000057220459 -4.622000217437744,-0.9520000219345093 C-14.333000183105469,-1.222000002861023 -23.617000579833984,-5.192999839782715 -23.617000579833984,-5.192999839782715 C-23.617000579833984,-5.192999839782715 -24.61199951171875,-2.0910000801086426 -23.466999053955078,-0.45399999618530273 C-22.320999145507812,1.1820000410079956 -9.715999603271484,5.191999912261963 2.3970000743865967,4.701000213623047z"></path></g></g><g transform="matrix(1.9924815893173218,0.17325465381145477,-0.17325465381145477,1.9924815893173218,241.57363891601562,190.05279541015625)" opacity="1" style="display: block;"><g opacity="1" transform="matrix(1,0,0,1,25.225000381469727,17.687000274658203)"><path fill="rgb(17,164,22)" fill-opacity="1" d=" M-19.28700065612793,-15.581999778747559 C-16.211000442504883,-15.906000137329102 -9.531999588012695,-6.51200008392334 -2.244999885559082,-6.285999774932861 C3.2820000648498535,-6.113999843597412 6.829999923706055,-9.776000022888184 8.892999649047852,-13.067999839782715 C10.72599983215332,-15.994000434875488 14.206999778747559,-17.437000274658203 17.576000213623047,-16.680999755859375 C22.190000534057617,-15.645000457763672 24.974000930786133,-10.916999816894531 23.60700035095215,-6.390999794006348 C21.23200035095215,1.4739999771118164 16.235000610351562,12.307999610900879 6.394999980926514,14.765999794006348 C-4.296000003814697,17.437000274658203 -18,13.864999771118164 -20.867000579833984,8.800999641418457 C-24.187000274658203,2.937999963760376 -24.974000930786133,-14.982999801635742 -19.28700065612793,-15.581999778747559z"></path></g><g opacity="1" transform="matrix(1,0,0,1,36.066001892089844,5.761000156402588)"><path fill="rgb(0,0,0)" fill-opacity="1" d=" M0.46399998664855957,-3.5899999141693115 C-0.48399999737739563,-2.9639999866485596 -1.319000005722046,-2.1489999294281006 -1.9490000009536743,-1.1430000066757202 C-2.0250000953674316,-1.0219999551773071 -2.1070001125335693,-0.8999999761581421 -2.187000036239624,-0.7770000100135803 C-2.2230000495910645,-0.7229999899864197 -2.256999969482422,-0.6679999828338623 -2.2929999828338623,-0.6129999756813049 C-2.4600000381469727,-0.36399999260902405 -2.634999990463257,-0.11400000005960464 -2.819000005722046,0.13600000739097595 C-2.8320000171661377,0.15299999713897705 -2.8459999561309814,0.16899999976158142 -2.8580000400543213,0.1860000044107437 C-3.0260000228881836,0.41200000047683716 -3.203000068664551,0.6359999775886536 -3.384999990463257,0.859000027179718 C-3.4070000648498535,0.8849999904632568 -3.4260001182556152,0.9120000004768372 -3.447999954223633,0.9390000104904175 C-3.447999954223633,0.9390000104904175 3.447999954223633,3.5899999141693115 3.447999954223633,3.5899999141693115 C3.447999954223633,3.5899999141693115 0.46399998664855957,-3.5899999141693115 0.46399998664855957,-3.5899999141693115z"></path></g><g opacity="1" transform="matrix(1,0,0,1,15.050999641418457,18.253999710083008)"><path fill="rgb(0,0,0)" fill-opacity="1" d=" M14.800999641418457,14.576000213623047 C12.979000091552734,10.13700008392334 10.286999702453613,1.5609999895095825 11.935999870300293,-7.460000038146973 C10.734000205993652,-7.039999961853027 9.402999877929688,-6.807000160217285 7.927999973297119,-6.853000164031982 C0.640999972820282,-7.079999923706055 -6.035999774932861,-16.472999572753906 -9.11299991607666,-16.149999618530273 C-14.800000190734863,-15.550000190734863 -14.01200008392334,2.369999885559082 -10.692999839782715,8.234000205993652 C-7.980999946594238,13.022000312805176 4.421000003814697,16.472999572753906 14.800999641418457,14.576000213623047z"></path></g><g opacity="1" transform="matrix(1,0,0,1,30.325000762939453,20.395999908447266)"><path fill="rgb(158,159,159)" fill-opacity="1" d=" M4.473999977111816,10.901000022888184 C3.563999891281128,9.045999526977539 2.4089999198913574,6.331999778747559 1.315000057220459,2.7269999980926514 C-0.48399999737739563,-3.197999954223633 0.6159999966621399,-9.866000175476074 1.1790000200271606,-12.484000205993652 C-0.164000004529953,-11.166000366210938 -1.812000036239624,-10.043000221252441 -3.805000066757202,-9.447999954223633 C-4.119999885559082,-8.12600040435791 -4.473999977111816,-5.6020002365112305 -4.2270002365112305,-1.3270000219345093 C-3.944000005722046,3.5739998817443848 -2.0420000553131104,9.156999588012695 -0.7369999885559082,12.484000205993652 C-0.050999999046325684,12.36400032043457 0.6269999742507935,12.222999572753906 1.2940000295639038,12.057000160217285 C2.4170000553131104,11.777000427246094 3.4739999771118164,11.383000373840332 4.473999977111816,10.901000022888184z"></path></g></g><g transform="matrix(1.9999446868896484,-0.01486955862492323,0.01486955862492323,1.9999446868896484,131.22073364257812,368.3746337890625)" opacity="1" style="display: block;"><g opacity="1" transform="matrix(1,0,0,1,14.17199993133545,28.33300018310547)"><path fill="rgb(0,104,128)" fill-opacity="1" d=" M0.36000001430511475,28.08300018310547 C0.36000001430511475,28.08300018310547 -13.920999526977539,2.4660000801086426 -11.413000106811523,-12.809000015258789 C-8.906000137329102,-28.083999633789062 12.420999526977539,-22.64900016784668 9.734000205993652,-7.025000095367432 C7.500999927520752,5.960000038146973 13.92199993133545,23.22800064086914 13.92199993133545,23.22800064086914 C13.92199993133545,23.22800064086914 10.986000061035156,28.049999237060547 0.36000001430511475,28.08300018310547z"></path></g></g><g transform="matrix(1.9995677471160889,0.04158102348446846,-0.04158102348446846,1.9995677471160889,150.64773559570312,104.9463119506836)" opacity="1" style="display: block;"><g opacity="1" transform="matrix(1,0,0,1,30.551000595092773,24.114999771118164)"><path fill="rgb(0,0,0)" fill-opacity="1" d=" M-0.8410000205039978,-10.892000198364258 C0.07699999958276749,-9.871000289916992 2.6470000743865967,-10.16100025177002 3.9619998931884766,-10.581000328063965 C5.943999767303467,-11.21399974822998 10.897000312805176,-9.696000099182129 9.541999816894531,-3.6070001125335693 C8.185999870300293,2.4820001125335693 2.7929999828338623,17.889999389648438 7.974999904632568,21.466999053955078 C11.447999954223633,23.86400032043457 12.543999671936035,16.784000396728516 16.9689998626709,18.722999572753906 C19.667999267578125,19.9060001373291 21.097000122070312,19.768999099731445 21.08099937438965,11.777000427246094 C21.066999435424805,4.551000118255615 22.191999435424805,-10.727999687194824 17.34000015258789,-16.586999893188477 C13.942000389099121,-20.68899917602539 10.175000190734863,-22.426000595092773 4.583000183105469,-21.697999954223633 C3.2839999198913574,-21.52899932861328 2.930000066757202,-21.940000534057617 1.7139999866485596,-22.426000595092773 C-0.04800000041723251,-23.131000518798828 -2.999000072479248,-23.86400032043457 -6.322000026702881,-22.8439998626709 C-10.751999855041504,-21.483999252319336 -16.722000122070312,-12.154000282287598 -18.94700050354004,-4.256999969482422 C-21.25,3.9159998893737793 -22.19099998474121,10.82699966430664 -19.590999603271484,14.345000267028809 C-17.30299949645996,17.44300079345703 -15.324000358581543,15.729999542236328 -15.324000358581543,15.729999542236328 C-15.324000358581543,15.729999542236328 -18.3799991607666,9.27400016784668 -15.505000114440918,-0.3009999990463257 C-12.630000114440918,-9.87600040435791 -10.001999855041504,-11.04800033569336 -5.336999893188477,-12.595999717712402 C-2.315999984741211,-13.597999572753906 -1.9359999895095825,-12.109999656677246 -0.8410000205039978,-10.892000198364258z"></path></g><g opacity="1" transform="matrix(1,0,0,1,26.968000411987305,28.6200008392334)"><path fill="rgb(255,159,170)" fill-opacity="1" d=" M-13.37600040435791,10.635000228881836 C-13.37600040435791,10.635000228881836 -15.878000259399414,3.9070000648498535 -12.175000190734863,-5.427999973297119 C-8.472000122070312,-14.763999938964844 -7.168000221252441,-19.385000228881836 -2.365000009536743,-20.531999588012695 C0.7450000047683716,-21.274999618530273 2.2039999961853027,-20.40399932861328 3.194000005722046,-19.09000015258789 C4.025000095367432,-17.98900032043457 5.452000141143799,-17.493999481201172 6.804999828338623,-17.802000045776367 C8.843000411987305,-18.263999938964844 11.604999542236328,-18.52199935913086 13.175000190734863,-17.114999771118164 C15.878000259399414,-14.696000099182129 15.562999725341797,-12.696000099182129 14.413999557495117,-6.534999847412109 C13.097000122070312,0.5199999809265137 14.281000137329102,4.699999809265137 12.180000305175781,14.595999717712402 C12.135000228881836,14.807000160217285 11.38700008392334,17.733999252319336 11.553999900817871,17.85300064086914 C9.253999710083008,19.277999877929688 3.993000030517578,21.274999618530273 -2.010999917984009,20.2189998626709 C-7.133999824523926,19.319000244140625 -6.857999801635742,14.86400032043457 -6.857999801635742,14.86400032043457 C-6.857999801635742,14.86400032043457 -10.392999649047852,14.515000343322754 -11.770000457763672,13.687999725341797 C-12.878999710083008,13.020999908447266 -13.6850004196167,12.090999603271484 -14.241000175476074,10.96399974822998 C-13.711000442504883,10.876999855041504 -13.37600040435791,10.635000228881836 -13.37600040435791,10.635000228881836z"></path></g><g opacity="1" transform="matrix(1,0,0,1,25.113000869750977,28.780000686645508)"><path fill="rgb(0,0,0)" fill-opacity="1" d=" M0.01600000075995922,-0.029999999329447746 C-0.013000000268220901,0.019999999552965164 -0.01600000075995922,0.029999999329447746 -0.006000000052154064,0.014999999664723873 C-0.0020000000949949026,0.007000000216066837 0.004000000189989805,-0.003000000026077032 0.00800000037997961,-0.012000000104308128 C0.010999999940395355,-0.017999999225139618 0.014000000432133675,-0.023000000044703484 0.01600000075995922,-0.029999999329447746z"></path></g><g opacity="1" transform="matrix(1,0,0,1,24.920000076293945,29.003999710083008)"><path fill="rgb(0,0,0)" fill-opacity="1" d=" M0.02800000086426735,-0.017000000923871994 C0.028999999165534973,-0.017999999225139618 0.029999999329447746,-0.01899999938905239 0.03099999949336052,-0.019999999552965164 C-0.02500000037252903,0.010999999940395355 -0.03099999949336052,0.01899999938905239 -0.01600000075995922,0.012000000104308128 C-0.0020000000949949026,0.0020000000949949026 0.013000000268220901,-0.007000000216066837 0.027000000700354576,-0.017000000923871994 C0.02800000086426735,-0.017000000923871994 0.02800000086426735,-0.017000000923871994 0.02800000086426735,-0.017000000923871994z"></path></g><g opacity="1" transform="matrix(1,0,0,1,24.26099967956543,29.013999938964844)"><path fill="rgb(0,0,0)" fill-opacity="1" d=" M0.004000000189989805,0.003000000026077032 C0.0010000000474974513,0.0010000000474974513 -0.0010000000474974513,0 -0.004000000189989805,-0.003000000026077032 C-0.0020000000949949026,-0.0010000000474974513 0,0.0010000000474974513 0.0020000000949949026,0.003000000026077032 C0.003000000026077032,0.003000000026077032 0.004000000189989805,0.003000000026077032 0.004000000189989805,0.003000000026077032z"></path></g><g opacity="1" transform="matrix(1,0,0,1,23.60099983215332,25.358999252319336)"><path fill="rgb(0,0,0)" fill-opacity="1" d=" M2.246999979019165,2.9809999465942383 C1.531000018119812,2.818000078201294 1.6019999980926514,3.799999952316284 0.9539999961853027,3.756999969482422 C0.2750000059604645,3.7119998931884766 0.5910000205039978,2.984999895095825 0.22300000488758087,2.6649999618530273 C-0.0949999988079071,2.388000011444092 -0.6179999709129333,2.4809999465942383 -0.7039999961853027,2.9260001182556152 C-0.7459999918937683,3.1429998874664307 -0.8820000290870667,3.3480000495910645 -1.1349999904632568,3.2769999504089355 C-1.4040000438690186,3.203000068664551 -1.4190000295639038,2.8980000019073486 -1.3830000162124634,2.6670000553131104 C-1.2699999809265137,1.9390000104904175 -0.8009999990463257,1.2239999771118164 -0.47099998593330383,0.578000009059906 C0.29899999499320984,-0.9279999732971191 1.1519999504089355,-2.390000104904175 2.0759999752044678,-3.806999921798706 C2.486999988555908,-4.436999797821045 1.4769999980926514,-5.02400016784668 1.0679999589920044,-4.395999908447266 C-0.18299999833106995,-2.4769999980926514 -1.4160000085830688,-0.4440000057220459 -2.2899999618530273,1.6799999475479126 C-2.635999917984009,2.5199999809265137 -2.750999927520752,3.6540000438690186 -1.8630000352859497,4.214000225067139 C-1.38100004196167,4.517000198364258 -0.8140000104904175,4.500999927520752 -0.35899999737739563,4.263999938964844 C-0.09000000357627869,4.604000091552734 0.2919999957084656,4.849999904632568 0.7379999756813049,4.909999847412109 C1.5820000171661377,5.02400016784668 2.382999897003174,4.499000072479248 2.6540000438690186,3.6989998817443848 C2.752000093460083,3.4100000858306885 2.5420000553131104,3.0480000972747803 2.246999979019165,2.9809999465942383z"></path></g><g opacity="1" transform="matrix(1,0,0,1,28.224000930786133,32)"><path fill="rgb(0,0,0)" fill-opacity="1" d=" M4.2789998054504395,-0.27300000190734863 C4.145999908447266,-0.30300000309944153 4.00600004196167,-0.328000009059906 3.878000020980835,-0.36899998784065247 C3.5169999599456787,-0.4869999885559082 3.2090001106262207,-0.7590000033378601 3.0480000972747803,-1.1030000448226929 C2.809999942779541,-1.6069999933242798 3.3380000591278076,-2.75 2.5940001010894775,-2.9189999103546143 C2.2720000743865967,-2.993000030517578 1.9809999465942383,-2.822000026702881 1.878000020980835,-2.51200008392334 C1.7130000591278076,-2.0169999599456787 1.7239999771118164,-1.4609999656677246 1.8609999418258667,-0.9359999895095825 C1.2699999809265137,0.03099999949336052 0.3409999907016754,0.7329999804496765 -0.6959999799728394,1.1740000247955322 C-1.722000002861023,1.6109999418258667 -3.009999990463257,1.7860000133514404 -4.072000026702881,1.3860000371932983 C-4.367000102996826,1.274999976158142 -4.710000038146973,1.5099999904632568 -4.788000106811523,1.7940000295639038 C-4.877999782562256,2.121000051498413 -4.677999973297119,2.4000000953674316 -4.381999969482422,2.510999917984009 C-3.1019999980926514,2.993000030517578 -1.5360000133514404,2.7769999504089355 -0.29899999499320984,2.263000011444092 C0.8169999718666077,1.7990000247955322 1.7990000247955322,1.0740000009536743 2.5250000953674316,0.11599999666213989 C2.994999885559082,0.574999988079071 3.6080000400543213,0.8579999804496765 4.281000137329102,0.8830000162124634 C4.586999893188477,0.8939999938011169 4.879000186920166,0.6060000061988831 4.864999771118164,0.30000001192092896 C4.8470001220703125,-0.10400000214576721 4.579999923706055,-0.20399999618530273 4.2789998054504395,-0.27300000190734863z"></path></g><g opacity="1" transform="matrix(1,0,0,1,31.155000686645508,30.486000061035156)"><path fill="rgb(0,0,0)" fill-opacity="1" d=" M-0.004999999888241291,-0.01600000075995922 C0,-0.007000000216066837 0.0020000000949949026,0.008999999612569809 0.006000000052154064,0.024000000208616257 C0.007000000216066837,0.013000000268220901 0.003000000026077032,-0.00800000037997961 -0.007000000216066837,-0.024000000208616257 C-0.007000000216066837,-0.024000000208616257 -0.007000000216066837,-0.023000000044703484 -0.007000000216066837,-0.023000000044703484 C-0.007000000216066837,-0.01899999938905239 -0.004999999888241291,-0.01899999938905239 -0.004999999888241291,-0.01600000075995922z"></path></g><g opacity="1" transform="matrix(1,0,0,1,32.387001037597656,31.70800018310547)"><path fill="rgb(0,0,0)" fill-opacity="1" d=" M0.008999999612569809,0.0010000000474974513 C0.003000000026077032,0 -0.003000000026077032,0 -0.008999999612569809,-0.0010000000474974513 C-0.004999999888241291,0 0,0 0.004000000189989805,0.0010000000474974513 C0.004000000189989805,0.0010000000474974513 0.008999999612569809,0.0010000000474974513 0.008999999612569809,0.0010000000474974513z"></path></g><g opacity="1" transform="matrix(1,0,0,1,27.652999877929688,35.694000244140625)"><path fill="rgb(0,0,0)" fill-opacity="1" d=" M-1.812999963760376,1.1330000162124634 C-0.4230000078678131,1.434999942779541 1.093999981880188,0.9819999933242798 2.0480000972747803,-0.08699999749660492 C2.250999927520752,-0.3149999976158142 2.2890000343322754,-0.6909999847412109 2.0480000972747803,-0.9120000004768372 C1.4780000448226929,-1.434999942779541 0.9559999704360962,-0.5839999914169312 0.4950000047683716,-0.32600000500679016 C0.03200000151991844,-0.06700000166893005 -0.5,0.07100000232458115 -1.031000018119812,0.05999999865889549 C-1.437999963760376,0.052000001072883606 -2.0889999866485596,-0.16699999570846558 -2.2209999561309814,0.41600000858306885 C-2.2890000343322754,0.7099999785423279 -2.131999969482422,1.0640000104904175 -1.812999963760376,1.1330000162124634z"></path></g><g opacity="1" transform="matrix(1,0,0,1,32.43199920654297,21.740999221801758)"><path fill="rgb(255,248,255)" fill-opacity="1" d=" M-3.4010000228881836,-0.07599999755620956 C-3.486999988555908,0.8970000147819519 -1.5180000066757202,1.3700000047683716 0.296999990940094,1.690999984741211 C1.6440000534057617,1.9290000200271606 2.88100004196167,2.078000068664551 3.2230000495910645,1.3380000591278076 C3.486999988555908,0.765999972820282 3.2799999713897705,-0.2199999988079071 2.6410000324249268,-0.6890000104904175 C1.5850000381469727,-1.4639999866485596 -0.9160000085830688,-2.078000068664551 -2.3989999294281006,-1.4819999933242798 C-2.9719998836517334,-1.2519999742507935 -3.3399999141693115,-0.7639999985694885 -3.4010000228881836,-0.07599999755620956z"></path></g><g opacity="1" transform="matrix(1,0,0,1,20.361000061035156,19.656999588012695)"><path fill="rgb(255,248,255)" fill-opacity="1" d=" M-3.4010000228881836,-0.07599999755620956 C-3.486999988555908,0.8970000147819519 -1.5180000066757202,1.3700000047683716 0.296999990940094,1.690999984741211 C1.6440000534057617,1.9290000200271606 2.88100004196167,2.078000068664551 3.2230000495910645,1.3380000591278076 C3.486999988555908,0.765999972820282 3.2799999713897705,-0.2199999988079071 2.6410000324249268,-0.6890000104904175 C1.5850000381469727,-1.4639999866485596 -0.9160000085830688,-2.078000068664551 -2.3989999294281006,-1.4819999933242798 C-2.9719998836517334,-1.2519999742507935 -3.3399999141693115,-0.7639999985694885 -3.4010000228881836,-0.07599999755620956z"></path></g><g opacity="1" transform="matrix(1,0,0,1,21.23900032043457,20.069000244140625)"><path fill="rgb(0,0,0)" fill-opacity="1" d=" M0,1.1100000143051147 C1.4279999732971191,1.1100000143051147 1.430999994277954,-1.1100000143051147 0,-1.1100000143051147 C-1.4279999732971191,-1.1100000143051147 -1.430999994277954,1.1100000143051147 0,1.1100000143051147z"></path></g><g opacity="1" transform="matrix(1,0,0,1,33.047000885009766,21.964000701904297)"><path fill="rgb(0,0,0)" fill-opacity="1" d=" M0,1.1100000143051147 C1.4290000200271606,1.1100000143051147 1.430999994277954,-1.1100000143051147 0,-1.1100000143051147 C-1.4279999732971191,-1.1100000143051147 -1.430999994277954,1.1100000143051147 0,1.1100000143051147z"></path></g><g opacity="1" transform="matrix(1,0,0,1,33.87900161743164,17.81800079345703)"><path fill="rgb(0,0,0)" fill-opacity="1" d=" M-3.562000036239624,0.014999999664723873 C-2.871999979019165,0.006000000052154064 -2.072999954223633,-0.19099999964237213 -1.6480000019073486,-0.13300000131130219 C-0.6589999794960022,0 0.29100000858306885,0.45500001311302185 1.00600004196167,1.1510000228881836 C1.5809999704360962,1.7100000381469727 2.13700008392334,3.253999948501587 3.1659998893737793,2.6600000858306885 C4.835000038146973,1.6970000267028809 1.9900000095367432,-0.7580000162124634 1.1699999570846558,-1.2549999952316284 C0.1720000058412552,-1.8600000143051147 -4.785999774932861,-3.253999948501587 -4.822000026702881,-0.9649999737739563 C-4.835000038146973,-0.15299999713897705 -4.252999782562256,0.02500000037252903 -3.562000036239624,0.014999999664723873z"></path></g><g opacity="1" transform="matrix(1,0,0,1,21.325000762939453,15.029000282287598)"><path fill="rgb(0,0,0)" fill-opacity="1" d=" M-2.257999897003174,0.9879999756813049 C-1.6399999856948853,0.6990000009536743 -0.9990000128746033,0.2199999988079071 -0.4320000112056732,0.1720000058412552 C0.3569999933242798,0.10400000214576721 1.1690000295639038,0.33399999141693115 1.8049999475479126,0.8050000071525574 C2.3519999980926514,1.2089999914169312 3.0510001182556152,1.9199999570846558 3.7039999961853027,1.2079999446868896 C4.076000213623047,0.8019999861717224 4.09499979019165,0.19099999964237213 3.7039999961853027,-0.21199999749660492 C2.75600004196167,-1.190000057220459 1.4620000123977661,-1.7680000066757202 0.10400000214576721,-1.843000054359436 C-1.2929999828338623,-1.9199999570846558 -2.6510000228881836,-1.3769999742507935 -3.697000026702881,-0.47200000286102295 C-4.09499979019165,-0.12800000607967377 -4.076000213623047,0.5989999771118164 -3.697000026702881,0.9480000138282776 C-3.2739999294281006,1.3370000123977661 -2.7739999294281006,1.2289999723434448 -2.257999897003174,0.9879999756813049z"></path></g><g opacity="1" transform="matrix(1,0,0,1,22.19099998474121,27.093000411987305)"><path fill="rgb(0,0,0)" fill-opacity="1" d=" M-4.294000148773193,-16.33300018310547 C-7.36899995803833,-10.342000007629395 -9.54699993133545,-3.634999990463257 -10.289999961853027,3.063999891281128 C-10.633000373840332,6.163000106811523 -10.810999870300293,9.885000228881836 -9.357000350952148,12.748000144958496 C-8.062000274658203,15.300000190734863 -5.386000156402588,16.510000228881836 -2.6730000972747803,16.892000198364258 C1.5240000486373901,17.483999252319336 5.535999774932861,16.552000045776367 9.565999984741211,15.461000442504883 C10.810999870300293,15.12399959564209 10.282999992370605,13.187000274658203 9.031999588012695,13.526000022888184 C5.660999774932861,14.437999725341797 2.3610000610351562,15.258999824523926 -1.1629999876022339,15.038999557495117 C-3.5439999103546143,14.890999794006348 -6.2129998207092285,14.241999626159668 -7.47599983215332,12.01099967956543 C-8.887999534606934,9.517999649047852 -8.59000015258789,5.986999988555908 -8.300999641418457,3.249000072479248 C-7.959000110626221,0.0010000000474974513 -7.171000003814697,-3.2039999961853027 -6.192999839782715,-6.314000129699707 C-5.2220001220703125,-9.404000282287598 -4.041999816894531,-12.437000274658203 -2.562000036239624,-15.319999694824219 C-1.9739999771118164,-16.466999053955078 -3.7039999961853027,-17.483999252319336 -4.294000148773193,-16.33300018310547z"></path></g><g opacity="1" transform="matrix(1,0,0,1,44.1619987487793,32.40999984741211)"><path fill="rgb(0,0,0)" fill-opacity="1" d=" M-1.996999979019165,-17.916000366210938 C-1.7330000400543213,-18.072999954223633 -3.6559998989105225,-10.017999649047852 -6.109000205993652,-2.5409998893737793 C-8.347000122070312,4.275000095367432 -9.46500015258789,11.663999557495117 -6.882999897003174,14.192000389099121 C-2.9200000762939453,18.072999954223633 2.2320001125335693,13.394000053405762 4.0980000495910645,12.706000328063965 C5.666999816894531,12.128000259399414 6.98799991607666,11.633000373840332 9.46500015258789,13.03600025177002 C9.46500015258789,13.03600025177002 5.419000148773193,4.861000061035156 5.749000072479248,-0.5049999952316284 C5.927000045776367,-3.4079999923706055 4.185999870300293,-9.642999649047852 2.114000082015991,-13.354000091552734 C0.35600000619888306,-16.503999710083008 -1.996999979019165,-17.916000366210938 -1.996999979019165,-17.916000366210938z"></path></g><g opacity="1" transform="matrix(1,0,0,1,11.800000190734863,46.323001861572266)"><path fill="rgb(0,0,0)" fill-opacity="1" d=" M-1.093000054359436,-19.983999252319336 C-1.093000054359436,-19.983999252319336 -11.550000190734863,12.637999534606934 -2.118000030517578,15.63700008392334 C11.550000190734863,19.983999252319336 10.503999710083008,-3.23799991607666 10.503999710083008,-3.23799991607666 C10.503999710083008,-3.23799991607666 4.939000129699707,-1.187999963760376 2.196000099182129,-6.070000171661377 C-0.546999990940094,-10.95199966430664 -1.093000054359436,-19.983999252319336 -1.093000054359436,-19.983999252319336z"></path></g><g opacity="1" transform="matrix(1,0,0,1,8.444999694824219,34.46500015258789)"><path fill="rgb(255,255,255)" fill-opacity="1" d=" M1.3880000114440918,-9.996999740600586 C1.3880000114440918,-9.996999740600586 1.3880000114440918,-9.996999740600586 1.3880000114440918,-9.996999740600586 C-0.2720000147819519,-3.4000000953674316 -1.5880000591278076,3.2070000171661377 -2.2279999256134033,9.984999656677246 C-2.2769999504089355,10.493000030517578 -1.4839999675750732,10.489999771118164 -1.4359999895095825,9.984999656677246 C-0.8019999861717224,3.2760000228881836 0.5099999904632568,-3.257999897003174 2.1519999504089355,-9.786999702453613 C2.2769999504089355,-10.281000137329102 1.5130000114440918,-10.493000030517578 1.3880000114440918,-9.996999740600586z"></path></g></g><g transform="matrix(0.9999200701713562,0.012642858549952507,-0.012642858549952507,0.9999200701713562,235.1996612548828,313.4554443359375)" opacity="1" style="display: none;"><g opacity="1" transform="matrix(1,0,0,1,0,0)"><path stroke-linecap="butt" stroke-linejoin="miter" fill-opacity="0" stroke-miterlimit="4" stroke="rgb(0,0,0)" stroke-opacity="1" stroke-width="2" d=" M-53.625,-168.25 C-53.625,-168.25 -52.06700134277344,-169.0260009765625 -49.12099838256836,-168.656005859375 C-46.90399932861328,-168.3780059814453 -43.36000061035156,-167.39700317382812 -42.125,-165.25"></path></g></g><g transform="matrix(0.9998635649681091,0.016517074778676033,-0.016517074778676033,0.9998635649681091,258.6872253417969,318.1760559082031)" opacity="1" style="display: none;"><g opacity="1" transform="matrix(1,0,0,1,0,0)"><path stroke-linecap="butt" stroke-linejoin="miter" fill-opacity="0" stroke-miterlimit="4" stroke="rgb(0,0,0)" stroke-opacity="1" stroke-width="2" d=" M-53.625,-168.25 C-53.625,-168.25 -52.06700134277344,-169.0260009765625 -49.12099838256836,-168.656005859375 C-46.90399932861328,-168.3780059814453 -43.36000061035156,-167.39700317382812 -42.125,-165.25"></path></g></g><g transform="matrix(1.9924815893173218,0.17325465381145477,-0.17325465381145477,1.9924815893173218,246.727783203125,49.97269058227539)" opacity="1" style="display: block;"><g opacity="1" transform="matrix(1,0,0,1,58.43600082397461,59.03499984741211)"><path fill="rgb(248,116,125)" fill-opacity="1" d=" M2.6449999809265137,1.6419999599456787 C2.0399999618530273,2.5799999237060547 0.16500000655651093,4.291999816894531 0.16500000655651093,4.291999816894531 C0.16500000655651093,4.291999816894531 -3.0439999103546143,4.21999979019165 -3.0439999103546143,4.21999979019165 C-3.0439999103546143,4.21999979019165 -4.269000053405762,-0.11599999666213989 -4.269000053405762,-0.11599999666213989 C-4.269000053405762,-0.11599999666213989 0.24899999797344208,-4.291999816894531 2.565999984741211,-2.1089999675750732 C4.269000053405762,-0.5049999952316284 3.013000011444092,1.0720000267028809 2.6449999809265137,1.6419999599456787z"></path></g><g opacity="1" transform="matrix(1,0,0,1,40.5620002746582,42.486000061035156)"><path fill="rgb(255,207,0)" fill-opacity="1" d=" M12.24899959564209,-37.553001403808594 C12.24899959564209,-37.553001403808594 15.5649995803833,-16.375999450683594 15.5649995803833,-16.375999450683594 C15.774999618530273,-15.034000396728516 16.631999969482422,-13.881999969482422 17.856000900268555,-13.293999671936035 C17.856000900268555,-13.293999671936035 37.18199920654297,-4.021999835968018 37.18199920654297,-4.021999835968018 C40.263999938964844,-2.5429999828338623 40.3120002746582,1.8289999961853027 37.263999938964844,3.375999927520752 C37.263999938964844,3.375999927520752 18.148000717163086,13.074000358581543 18.148000717163086,13.074000358581543 C16.937000274658203,13.687999725341797 16.106000900268555,14.859000205993652 15.925999641418457,16.20400047302246 C15.925999641418457,16.20400047302246 13.079000473022461,37.45100021362305 13.079000473022461,37.45100021362305 C12.62399959564209,40.8390007019043 8.482999801635742,42.23500061035156 6.070000171661377,39.81399917602539 C6.070000171661377,39.81399917602539 -9.062000274658203,24.631999969482422 -9.062000274658203,24.631999969482422 C-10.020000457763672,23.670000076293945 -11.390999794006348,23.240999221801758 -12.72599983215332,23.486000061035156 C-12.72599983215332,23.486000061035156 -33.8120002746582,27.341999053955078 -33.8120002746582,27.341999053955078 C-37.17499923706055,27.957000732421875 -39.78200149536133,24.448999404907227 -38.224998474121094,21.4060001373291 C-38.224998474121094,21.4060001373291 -28.461999893188477,2.3239998817443848 -28.461999893188477,2.3239998817443848 C-27.843000411987305,1.1150000095367432 -27.857999801635742,-0.32100000977516174 -28.503000259399414,-1.5149999856948853 C-28.503000259399414,-1.5149999856948853 -38.68899917602539,-20.375999450683594 -38.68899917602539,-20.375999450683594 C-40.3129997253418,-23.384000778198242 -37.78200149536133,-26.950000762939453 -34.40599822998047,-26.409000396728516 C-34.40599822998047,-26.409000396728516 -13.241000175476074,-23.020000457763672 -13.241000175476074,-23.020000457763672 C-11.899999618530273,-22.80500030517578 -10.541000366210938,-23.263999938964844 -9.604000091552734,-24.246999740600586 C-9.604000091552734,-24.246999740600586 5.188000202178955,-39.7599983215332 5.188000202178955,-39.7599983215332 C7.546999931335449,-42.23500061035156 11.720000267028809,-40.93000030517578 12.24899959564209,-37.553001403808594z"></path></g><g opacity="1" transform="matrix(1,0,0,1,56.12699890136719,72.93299865722656)"><path fill="rgb(255,159,170)" fill-opacity="1" d=" M6.2170000076293945,-3.941999912261963 C6.2170000076293945,-3.941999912261963 9.027000427246094,-5.625999927520752 8.885000228881836,-8.17300033569336 C8.744000434875488,-10.736000061035156 3.6449999809265137,-11.961999893188477 1.440999984741211,-12.062000274658203 C-0.7630000114440918,-12.161999702453613 -4.835999965667725,-12.104999542236328 -5.4079999923706055,-9.277999877929688 C-5.796999931335449,-7.355000019073486 -3.572000026702881,-6.406000137329102 -3.572000026702881,-6.406000137329102 C-3.572000026702881,-6.406000137329102 -5.413000106811523,-7.052000045776367 -6.830999851226807,-6.0970001220703125 C-9.026000022888184,-4.617000102996826 -7.921000003814697,-2.5450000762939453 -6.589000225067139,-1.6150000095367432 C-5.047999858856201,-0.5400000214576721 -3.378000020980835,-0.40799999237060547 -3.378000020980835,-0.40799999237060547 C-3.378000020980835,-0.40799999237060547 -6.235000133514404,-0.3880000114440918 -6.796000003814697,1.25 C-7.419000148773193,3.066999912261963 -4.933000087738037,5.38700008392334 -3.007999897003174,5.288000106811523 C-3.007999897003174,5.288000106811523 -5.593999862670898,4.763999938964844 -5.743000030517578,7.822000026702881 C-5.854000091552734,10.079000473022461 0.24699999392032623,12.163000106811523 1.843999981880188,10.42300033569336 C3.441999912261963,8.684000015258789 2.01200008392334,6.892000198364258 2.01200008392334,6.892000198364258 C2.01200008392334,6.892000198364258 4.139999866485596,6.586999893188477 4.676000118255615,4.478000164031982 C5.2129998207092285,2.36899995803833 4.195000171661377,1.781000018119812 4.195000171661377,1.781000018119812 C4.195000171661377,1.781000018119812 6.479000091552734,1.6460000276565552 7.288000106811523,-0.7900000214576721 C8.097999572753906,-3.2249999046325684 6.2170000076293945,-3.941999912261963 6.2170000076293945,-3.941999912261963z"></path></g><g opacity="1" transform="matrix(1,0,0,1,56.68600082397461,66.48999786376953)"><path fill="rgb(0,0,0)" fill-opacity="1" d=" M4.747000217437744,0.08699999749660492 C1.621999979019165,-0.546999990940094 -1.5199999809265137,-1.0870000123977661 -4.676000118255615,-1.534999966621399 C-5.046000003814697,-1.5870000123977661 -5.408999919891357,-1.444000005722046 -5.520999908447266,-1.0549999475479126 C-5.61299991607666,-0.734000027179718 -5.408999919891357,-0.2619999945163727 -5.041999816894531,-0.20999999344348907 C-1.8860000371932983,0.2370000034570694 1.2569999694824219,0.777999997138977 4.381999969482422,1.4110000133514404 C5.244999885559082,1.5859999656677246 5.613999843597412,0.2619999945163727 4.747000217437744,0.08699999749660492z"></path></g><g opacity="1" transform="matrix(1,0,0,1,54.959999084472656,72.76799774169922)"><path fill="rgb(0,0,0)" fill-opacity="1" d=" M3.4660000801086426,-0.004999999888241291 C1.1519999504089355,-0.7289999723434448 -1.2170000076293945,-1.2309999465942383 -3.621000051498413,-1.5379999876022339 C-3.990000009536743,-1.5850000381469727 -4.308000087738037,-1.1890000104904175 -4.308000087738037,-0.8510000109672546 C-4.308000087738037,-0.4410000145435333 -3.990999937057495,-0.21199999749660492 -3.621000051498413,-0.164000004529953 C-1.343000054359436,0.12600000202655792 0.9089999794960022,0.6340000033378601 3.1010000705718994,1.3200000524520874 C3.946000099182129,1.5850000381469727 4.308000087738037,0.257999986410141 3.4660000801086426,-0.004999999888241291z"></path></g><g opacity="1" transform="matrix(1,0,0,1,54.095001220703125,78.4219970703125)"><path fill="rgb(0,0,0)" fill-opacity="1" d=" M2.378999948501587,0.05400000140070915 C1.031000018119812,-0.5960000157356262 -0.3930000066757202,-1.0720000267028809 -1.8669999837875366,-1.3350000381469727 C-2.2190001010894775,-1.3969999551773071 -2.622999906539917,-1.2389999628067017 -2.7109999656677246,-0.8550000190734863 C-2.7880001068115234,-0.5199999809265137 -2.609999895095825,-0.07800000160932541 -2.2320001125335693,-0.009999999776482582 C-0.859000027179718,0.23399999737739563 0.4970000088214874,0.6669999957084656 1.6859999895095825,1.2400000095367432 C2.009000062942505,1.3960000276565552 2.443000078201294,1.3389999866485596 2.625999927520752,0.9929999709129333 C2.7880001068115234,0.6859999895095825 2.7249999046325684,0.22100000083446503 2.378999948501587,0.05400000140070915z"></path></g></g><g transform="matrix(-0.7921040654182434,-1.8364485502243042,1.8364485502243042,-0.7921040654182434,360.12518310546875,116.92713165283203)" opacity="0.000034466505453139004" style="display: none;"><g opacity="1" transform="matrix(1,0,0,1,9.482999801635742,10.288000106811523)"><path fill="rgb(227,227,227)" fill-opacity="1" d=" M8.37600040435791,0.8569999933242798 C3.4779999256134033,1.968999981880188 1.8109999895095825,3.7809998989105225 0.7879999876022339,9.107000350952148 C0.609000027179718,10.038000106811523 -0.6100000143051147,10.038000106811523 -0.7889999747276306,9.107000350952148 C-1.812000036239624,3.7809998989105225 -3.4779999256134033,1.968999981880188 -8.376999855041504,0.8569999933242798 C-9.232999801635742,0.6629999876022339 -9.232999801635742,-0.6629999876022339 -8.376999855041504,-0.8569999933242798 C-3.4779999256134033,-1.968999981880188 -1.812000036239624,-3.7809998989105225 -0.7889999747276306,-9.107000350952148 C-0.6100000143051147,-10.038000106811523 0.609000027179718,-10.038000106811523 0.7879999876022339,-9.107000350952148 C1.8109999895095825,-3.7809998989105225 3.4779999256134033,-1.968999981880188 8.37600040435791,-0.8569999933242798 C9.232999801635742,-0.6629999876022339 9.232999801635742,0.6629999876022339 8.37600040435791,0.8569999933242798z"></path></g></g><g transform="matrix(-0.6294081807136536,-1.8983796834945679,1.8983796834945679,-0.6294081807136536,384.2348937988281,219.3199920654297)" opacity="0.00013528289776516545" style="display: none;"><g opacity="1" transform="matrix(1,0,0,1,9.482999801635742,10.288000106811523)"><path fill="rgb(227,227,227)" fill-opacity="1" d=" M8.37600040435791,0.8569999933242798 C3.4779999256134033,1.968999981880188 1.8109999895095825,3.7809998989105225 0.7879999876022339,9.107000350952148 C0.609000027179718,10.038000106811523 -0.6100000143051147,10.038000106811523 -0.7889999747276306,9.107000350952148 C-1.812000036239624,3.7809998989105225 -3.4779999256134033,1.968999981880188 -8.376999855041504,0.8569999933242798 C-9.232999801635742,0.6629999876022339 -9.232999801635742,-0.6629999876022339 -8.376999855041504,-0.8569999933242798 C-3.4779999256134033,-1.968999981880188 -1.812000036239624,-3.7809998989105225 -0.7889999747276306,-9.107000350952148 C-0.6100000143051147,-10.038000106811523 0.609000027179718,-10.038000106811523 0.7879999876022339,-9.107000350952148 C1.8109999895095825,-3.7809998989105225 3.4779999256134033,-1.968999981880188 8.37600040435791,-0.8569999933242798 C9.232999801635742,-0.6629999876022339 9.232999801635742,0.6629999876022339 8.37600040435791,0.8569999933242798z"></path></g></g><g transform="matrix(-1.8223042488098145,0.8241400122642517,-0.8241400122642517,-1.8223042488098145,326.7925720214844,81.75923156738281)" opacity="0.9631146006287148" style="display: block;"><g opacity="1" transform="matrix(1,0,0,1,9.482999801635742,10.288000106811523)"><path fill="rgb(227,227,227)" fill-opacity="1" d=" M8.37600040435791,0.8569999933242798 C3.4779999256134033,1.968999981880188 1.8109999895095825,3.7809998989105225 0.7879999876022339,9.107000350952148 C0.609000027179718,10.038000106811523 -0.6100000143051147,10.038000106811523 -0.7889999747276306,9.107000350952148 C-1.812000036239624,3.7809998989105225 -3.4779999256134033,1.968999981880188 -8.376999855041504,0.8569999933242798 C-9.232999801635742,0.6629999876022339 -9.232999801635742,-0.6629999876022339 -8.376999855041504,-0.8569999933242798 C-3.4779999256134033,-1.968999981880188 -1.812000036239624,-3.7809998989105225 -0.7889999747276306,-9.107000350952148 C-0.6100000143051147,-10.038000106811523 0.609000027179718,-10.038000106811523 0.7879999876022339,-9.107000350952148 C1.8109999895095825,-3.7809998989105225 3.4779999256134033,-1.968999981880188 8.37600040435791,-0.8569999933242798 C9.232999801635742,-0.6629999876022339 9.232999801635742,0.6629999876022339 8.37600040435791,0.8569999933242798z"></path></g></g><g transform="matrix(-0.3388563394546509,-1.9710851907730103,1.9710851907730103,-0.3388563394546509,302.4989318847656,237.69528198242188)" opacity="0.00019905728462930484" style="display: none;"><g opacity="1" transform="matrix(1,0,0,1,9.482999801635742,10.288000106811523)"><path fill="rgb(227,227,227)" fill-opacity="1" d=" M8.37600040435791,0.8569999933242798 C3.4779999256134033,1.968999981880188 1.8109999895095825,3.7809998989105225 0.7879999876022339,9.107000350952148 C0.609000027179718,10.038000106811523 -0.6100000143051147,10.038000106811523 -0.7889999747276306,9.107000350952148 C-1.812000036239624,3.7809998989105225 -3.4779999256134033,1.968999981880188 -8.376999855041504,0.8569999933242798 C-9.232999801635742,0.6629999876022339 -9.232999801635742,-0.6629999876022339 -8.376999855041504,-0.8569999933242798 C-3.4779999256134033,-1.968999981880188 -1.812000036239624,-3.7809998989105225 -0.7889999747276306,-9.107000350952148 C-0.6100000143051147,-10.038000106811523 0.609000027179718,-10.038000106811523 0.7879999876022339,-9.107000350952148 C1.8109999895095825,-3.7809998989105225 3.4779999256134033,-1.968999981880188 8.37600040435791,-0.8569999933242798 C9.232999801635742,-0.6629999876022339 9.232999801635742,0.6629999876022339 8.37600040435791,0.8569999933242798z"></path></g></g><g transform="matrix(-0.6216766238212585,-1.9009255170822144,1.9009255170822144,-0.6216766238212585,256.1463928222656,163.350341796875)" opacity="0.00007681598043262738" style="display: none;"><g opacity="1" transform="matrix(1,0,0,1,9.482999801635742,10.288000106811523)"><path fill="rgb(227,227,227)" fill-opacity="1" d=" M8.37600040435791,0.8569999933242798 C3.4779999256134033,1.968999981880188 1.8109999895095825,3.7809998989105225 0.7879999876022339,9.107000350952148 C0.609000027179718,10.038000106811523 -0.6100000143051147,10.038000106811523 -0.7889999747276306,9.107000350952148 C-1.812000036239624,3.7809998989105225 -3.4779999256134033,1.968999981880188 -8.376999855041504,0.8569999933242798 C-9.232999801635742,0.6629999876022339 -9.232999801635742,-0.6629999876022339 -8.376999855041504,-0.8569999933242798 C-3.4779999256134033,-1.968999981880188 -1.812000036239624,-3.7809998989105225 -0.7889999747276306,-9.107000350952148 C-0.6100000143051147,-10.038000106811523 0.609000027179718,-10.038000106811523 0.7879999876022339,-9.107000350952148 C1.8109999895095825,-3.7809998989105225 3.4779999256134033,-1.968999981880188 8.37600040435791,-0.8569999933242798 C9.232999801635742,-0.6629999876022339 9.232999801635742,0.6629999876022339 8.37600040435791,0.8569999933242798z"></path></g></g></g></svg>