<svg xmlns="http://www.w3.org/2000/svg" viewBox="0 0 470 626" width="470" height="626" preserveAspectRatio="xMidYMid meet" style="width: 100%; height: 100%; transform: translate3d(0px, 0px, 0px);"><defs><clipPath id="__lottie_element_72"><rect width="470" height="626" x="0" y="0"></rect></clipPath></defs><g clip-path="url(#__lottie_element_72)"><g transform="matrix(2,0,0,2,61,131)" opacity="1" style="display: block;"><g opacity="1" transform="matrix(1,0,0,1,55.29199981689453,201.14300537109375)"><path fill="rgb(234,232,228)" fill-opacity="1" d=" M55.04199981689453,0 C55.04199981689453,11.67300033569336 30.398000717163086,21.136999130249023 0,21.136999130249023 C-30.39900016784668,21.136999130249023 -55.04199981689453,11.67300033569336 -55.04199981689453,0 C-55.04199981689453,-11.673999786376953 -30.39900016784668,-21.136999130249023 0,-21.136999130249023 C30.398000717163086,-21.136999130249023 55.04199981689453,-11.673999786376953 55.04199981689453,0z"></path></g><g opacity="1" transform="matrix(1,0,0,1,64.19499969482422,197.53700256347656)"><path fill="rgb(185,2,106)" fill-opacity="1" d=" M19.950000762939453,-2.6540000438690186 C19.950000762939453,-2.6540000438690186 19.566999435424805,1.3960000276565552 18.96500015258789,2.2170000076293945 C18.363000869750977,3.0380001068115234 -0.9580000042915344,4.078000068664551 -8.784000396728516,3.312000036239624 C-16.61199951171875,2.5450000762939453 -19.950000762939453,1.503999948501587 -19.731000900268555,0.24500000476837158 C-19.511999130249023,-1.0130000114440918 -10.097999572753906,-4.077000141143799 -10.097999572753906,-4.077000141143799 C-10.097999572753906,-4.077000141143799 19.950000762939453,-2.6540000438690186 19.950000762939453,-2.6540000438690186z"></path></g><g opacity="1" transform="matrix(1,0,0,1,46.41400146484375,203.5850067138672)"><path fill="rgb(185,2,106)" fill-opacity="1" d=" M-16.85099983215332,-10.550000190734863 C-16.85099983215332,-10.550000190734863 -17.055999755859375,-7.019999980926514 -16.357999801635742,-4.7210001945495605 C-16.357999801635742,-4.7210001945495605 -4.125,7.019000053405762 5.561999797821045,8.78499984741211 C15.25,10.550000190734863 16.76799964904785,5.952000141143799 16.76799964904785,5.952000141143799 C16.76799964904785,5.952000141143799 17.055999755859375,2.7100000381469727 16.85099983215332,1.9290000200271606 C16.645000457763672,1.1490000486373901 -16.85099983215332,-10.550000190734863 -16.85099983215332,-10.550000190734863z"></path></g><g opacity="1" transform="matrix(1,0,0,1,54.5620002746582,181.99400329589844)"><path fill="rgb(248,110,139)" fill-opacity="1" d=" M-5.336999893188477,-5.2820000648498535 C-5.336999893188477,-5.2820000648498535 -5.775000095367432,1.559000015258789 -5.336999893188477,3.802999973297119 C-4.89900016784668,6.046999931335449 0.3009999990463257,6.59499979019165 3.0369999408721924,5.5 C5.77400016784668,4.406000137329102 4.131999969482422,-6.59499979019165 4.131999969482422,-6.59499979019165 C4.131999969482422,-6.59499979019165 -5.336999893188477,-5.2820000648498535 -5.336999893188477,-5.2820000648498535z"></path></g><g opacity="1" transform="matrix(1,0,0,1,65.30799865722656,188.64300537109375)"><path fill="rgb(239,17,131)" fill-opacity="1" d=" M-19.746999740600586,-2.3350000381469727 C-19.812999725341797,-4.27400016784668 -19.378999710083008,-7.063000202178955 -16.354999542236328,-7.169000148773193 C-16.354999542236328,-7.169000148773193 -13.619999885559082,-3.1740000247955322 -8.529999732971191,-4.377999782562256 C-8.529999732971191,-4.377999782562256 -8.74899959564209,-7.989999771118164 -6.122000217437744,-8.536999702453613 C-3.494999885559082,-9.085000038146973 -1.9620000123977661,-7.388000011444092 1.7599999904632568,-4.377999782562256 C5.480999946594238,-1.3669999837875366 10.298999786376953,1.36899995803833 15.170000076293945,2.244999885559082 C20.04199981689453,3.119999885559082 19.426000595092773,6.526000022888184 18.523000717163086,7.676000118255615 C17.63800048828125,8.803000450134277 -5.9029998779296875,9.085000038146973 -11.977999687194824,8.37399959564209 C-18.05299949645996,7.6620001792907715 -18.929000854492188,8.154999732971191 -19.641000747680664,7.442999839782715 C-20.04199981689453,7.040999889373779 -19.95599937438965,4.561999797821045 -19.80299949645996,2.4790000915527344 C-19.68600082397461,0.8769999742507935 -19.691999435424805,-0.7300000190734863 -19.746999740600586,-2.3350000381469727z"></path></g><g opacity="1" transform="matrix(1,0,0,1,37.430999755859375,189.82000732421875)"><path fill="rgb(249,138,161)" fill-opacity="1" d=" M-5.336999893188477,-5.2820000648498535 C-5.336999893188477,-5.2820000648498535 -5.77400016784668,1.559999942779541 -5.336999893188477,3.803999900817871 C-4.89900016784668,6.047999858856201 0.3009999990463257,6.59499979019165 3.0380001068115234,5.5 C5.77400016784668,4.406000137329102 4.131999969482422,-6.59499979019165 4.131999969482422,-6.59499979019165 C4.131999969482422,-6.59499979019165 -5.336999893188477,-5.2820000648498535 -5.336999893188477,-5.2820000648498535z"></path></g><g opacity="1" transform="matrix(1,0,0,1,60.93899917602539,120.61100006103516)"><path fill="rgb(7,5,6)" fill-opacity="1" d=" M-14.395000457763672,-43.40299987792969 C-14.395000457763672,-43.40299987792969 -16.256000518798828,43.402000427246094 -15.489999771118164,49.3129997253418 C-14.723999977111816,55.2239990234375 -12.314000129699707,55.553001403808594 -12.314000129699707,55.553001403808594 C-12.314000129699707,55.553001403808594 -13.519000053405762,58.06999969482422 -12.314000129699707,58.61800003051758 C-11.109999656677246,59.165000915527344 -2.134000062942505,58.94599914550781 -0.9300000071525574,58.39899826049805 C0.27399998903274536,57.85100173950195 -0.16500000655651093,54.02000045776367 -0.16500000655651093,54.02000045776367 C-0.16500000655651093,54.02000045776367 3.2290000915527344,54.45800018310547 4.980000019073486,47.124000549316406 C6.730999946594238,39.790000915527344 14.065999984741211,-5.85699987411499 14.395000457763672,-12.534000396728516 C14.723999977111816,-19.211000442504883 16.2549991607666,-47.34400177001953 12.532999992370605,-53.255001068115234 C8.812000274658203,-59.16600036621094 -14.395000457763672,-43.40299987792969 -14.395000457763672,-43.40299987792969z"></path></g><g opacity="1" transform="matrix(1,0,0,1,38.16999816894531,129.6820068359375)"><path fill="rgb(7,5,6)" fill-opacity="1" d=" M-16.475000381469727,-52.3650016784668 C-16.475000381469727,-52.3650016784668 -11.220999717712402,10.029999732971191 -11.220999717712402,23.166000366210938 C-11.220999717712402,36.301998138427734 -14.067000389099121,46.15299987792969 -7.936999797821045,52.06399917602539 C-7.936999797821045,52.06399917602539 -9.263999938964844,56.66299819946289 -6.677999973297119,57.03200149536133 C-4.0920000076293945,57.4010009765625 3.4619998931884766,56.909000396728516 4.5289998054504395,56.00600051879883 C5.5970001220703125,55.10200119018555 5.8420000076293945,53.33700180053711 5.63700008392334,51.612998962402344 C5.63700008392334,51.612998962402344 9.25,50.96900177001953 10.67300033569336,40.67900085449219 C12.095999717712402,30.389999389648438 13.73799991607666,-3.1050000190734863 13.73799991607666,-3.1050000190734863 C13.73799991607666,-3.1050000190734863 16.475000381469727,-57.400001525878906 16.475000381469727,-57.400001525878906 C16.475000381469727,-57.400001525878906 -16.475000381469727,-52.3650016784668 -16.475000381469727,-52.3650016784668z"></path></g><g opacity="1" transform="matrix(1,0,0,1,50.32400131225586,159.8979949951172)"><path fill="rgb(234,232,226)" fill-opacity="1" d=" M0.8069999814033508,-11.015999794006348 C0.07199999690055847,-3.688999891281128 -0.46700000762939453,3.6600000858306885 -0.8069999814033508,11.015999794006348"></path></g><g opacity="1" transform="matrix(1,0,0,1,50.3380012512207,159.89999389648438)"><path fill="rgb(254,254,255)" fill-opacity="1" d=" M0.3720000088214874,-11.017000198364258 C-0.35899999737739563,-3.688999891281128 -0.8980000019073486,3.6579999923706055 -1.2419999837875366,11.013999938964844 C-1.2669999599456787,11.555999755859375 -0.4259999990463257,11.553999900817871 -0.4000000059604645,11.013999938964844 C-0.0560000017285347,3.6579999923706055 0.4819999933242798,-3.688999891281128 1.2130000591278076,-11.017000198364258 C1.2669999599456787,-11.555999755859375 0.42500001192092896,-11.552000045776367 0.3720000088214874,-11.017000198364258z"></path></g><g opacity="1" transform="matrix(1,0,0,1,46.40700149536133,197.86599731445312)"><path fill="rgb(239,17,131)" fill-opacity="1" d=" M-14.42300033569336,-8.894000053405762 C-14.42300033569336,-8.894000053405762 -13.711999893188477,-3.311000108718872 -6.869999885559082,-5.118000030517578 C-6.869999885559082,-5.118000030517578 -7.580999851226807,-8.83899974822998 -5.172999858856201,-10.317000389099121 C-2.765000104904175,-11.793999671936035 -0.3400000035762787,-11.472999572753906 1.996999979019165,-9.057999610900879 C5.281000137329102,-5.664999961853027 14.913999557495117,3.8589999675750732 16.17300033569336,5.718999862670898 C17.43199920654297,7.580999851226807 17.59600067138672,9.496000289916992 12.121999740600586,10.645000457763672 C6.64900016784668,11.793999671936035 0.7379999756813049,9.496000289916992 -5.447000026702881,5.390999794006348 C-11.630999565124512,1.2860000133514404 -15.517999649047852,-1.340999960899353 -16.55699920654297,-2.872999906539917 C-17.597000122070312,-4.406000137329102 -16.61199951171875,-8.949000358581543 -14.42300033569336,-8.894000053405762z"></path></g><g opacity="1" transform="matrix(1,0,0,1,35.84299850463867,182.23899841308594)"><path fill="rgb(234,232,226)" fill-opacity="1" d=" M-0.7239999771118164,-0.984000027179718 C-0.7789999842643738,-0.328000009059906 -0.8330000042915344,0.32899999618530273 -0.8880000114440918,0.9860000014305115 C-0.9049999713897705,1.1820000410079956 -0.7860000133514404,1.4210000038146973 -0.6520000100135803,1.555999994277954 C-0.5120000243186951,1.6959999799728394 -0.28299999237060547,1.8009999990463257 -0.08100000023841858,1.7920000553131104 C0.12700000405311584,1.7829999923706055 0.34299999475479126,1.7139999866485596 0.48899999260902405,1.555999994277954 C0.6399999856948853,1.3910000324249268 0.7059999704360962,1.2089999914169312 0.7250000238418579,0.9860000014305115 C0.7789999842643738,0.32899999618530273 0.8349999785423279,-0.328000009059906 0.8889999985694885,-0.984000027179718 C0.9049999713897705,-1.1799999475479126 0.7870000004768372,-1.4220000505447388 0.652999997138977,-1.5549999475479126 C0.5130000114440918,-1.6959999799728394 0.28299999237060547,-1.8009999990463257 0.08299999684095383,-1.7920000553131104 C-0.12600000202655792,-1.7829999923706055 -0.34200000762939453,-1.7139999866485596 -0.4880000054836273,-1.5549999475479126 C-0.6389999985694885,-1.3910000324249268 -0.7049999833106995,-1.2079999446868896 -0.7239999771118164,-0.984000027179718z"></path></g><g opacity="1" transform="matrix(1,0,0,1,39.814998626708984,182.1580047607422)"><path fill="rgb(234,232,226)" fill-opacity="1" d=" M-0.6959999799728394,-0.6259999871253967 C-0.7509999871253967,-0.35199999809265137 -0.8050000071525574,-0.07800000160932541 -0.8600000143051147,0.19499999284744263 C-0.8939999938011169,0.30300000309944153 -0.8980000019073486,0.41100001335144043 -0.8740000128746033,0.5180000066757202 C-0.8690000176429749,0.625 -0.8379999995231628,0.7250000238418579 -0.7789999842643738,0.8159999847412109 C-0.7279999852180481,0.9110000133514404 -0.6589999794960022,0.9869999885559082 -0.5709999799728394,1.0440000295639038 C-0.49300000071525574,1.1150000095367432 -0.4020000100135803,1.1629999876022339 -0.296999990940094,1.187999963760376 C-0.22499999403953552,1.1979999542236328 -0.15399999916553497,1.2070000171661377 -0.0820000022649765,1.2170000076293945 C0.06300000101327896,1.215999960899353 0.19900000095367432,1.1799999475479126 0.32499998807907104,1.1069999933242798 C0.3790000081062317,1.065000057220459 0.4339999854564667,1.0219999551773071 0.4880000054836273,0.9800000190734863 C0.5879999995231628,0.8799999952316284 0.6570000052452087,0.7609999775886536 0.6959999799728394,0.6240000128746033 C0.75,0.35100001096725464 0.8050000071525574,0.07699999958276749 0.8600000143051147,-0.19699999690055847 C0.8930000066757202,-0.30399999022483826 0.8980000019073486,-0.4099999964237213 0.8740000128746033,-0.5180000066757202 C0.8690000176429749,-0.625 0.8370000123977661,-0.7260000109672546 0.777999997138977,-0.8180000185966492 C0.7279999852180481,-0.9120000004768372 0.6579999923706055,-0.9860000014305115 0.5709999799728394,-1.0440000295639038 C0.492000013589859,-1.1150000095367432 0.4009999930858612,-1.1640000343322754 0.29600000381469727,-1.187999963760376 C0.22499999403953552,-1.1979999542236328 0.15399999916553497,-1.2070000171661377 0.0820000022649765,-1.2170000076293945 C-0.06400000303983688,-1.2170000076293945 -0.19900000095367432,-1.180999994277954 -0.32499998807907104,-1.1069999933242798 C-0.3799999952316284,-1.065000057220459 -0.4339999854564667,-1.0219999551773071 -0.4880000054836273,-0.9800000190734863 C-0.5889999866485596,-0.8799999952316284 -0.6570000052452087,-0.7630000114440918 -0.6959999799728394,-0.6259999871253967z"></path></g><g opacity="1" transform="matrix(1,0,0,1,53.928001403808594,175.6959991455078)"><path fill="rgb(234,232,226)" fill-opacity="1" d=" M-0.7300000190734863,-0.6290000081062317 C-0.7260000109672546,-0.6000000238418579 -0.7210000157356262,-0.5690000057220459 -0.7170000076293945,-0.5389999747276306 C-0.7260000109672546,-0.6100000143051147 -0.7369999885559082,-0.6819999814033508 -0.746999979019165,-0.7540000081062317 C-0.7049999833106995,-0.44200000166893005 -0.703000009059906,-0.12800000607967377 -0.7429999709129333,0.18400000035762787 C-0.7329999804496765,0.11299999803304672 -0.7239999771118164,0.041999999433755875 -0.7139999866485596,-0.029999999329447746 C-0.7419999837875366,0.18199999630451202 -0.7900000214576721,0.3889999985694885 -0.8539999723434448,0.5910000205039978 C-0.9160000085830688,0.7860000133514404 -0.875,1.0390000343322754 -0.7730000019073486,1.2130000591278076 C-0.675000011920929,1.3799999952316284 -0.4819999933242798,1.5399999618530273 -0.28999999165534973,1.5829999446868896 C0.15000000596046448,1.684000015258789 0.5649999976158142,1.4509999752044678 0.7020000219345093,1.0199999809265137 C0.8069999814033508,0.6859999895095825 0.8640000224113464,0.3370000123977661 0.890999972820282,-0.012000000104308128 C0.9160000085830688,-0.3630000054836273 0.8799999952316284,-0.7099999785423279 0.8240000009536743,-1.0579999685287476 C0.7940000295639038,-1.2450000047683716 0.6100000143051147,-1.4479999542236328 0.45399999618530273,-1.5399999618530273 C0.2809999883174896,-1.6410000324249268 0.027000000700354576,-1.684000015258789 -0.16699999570846558,-1.621000051498413 C-0.3619999885559082,-1.5579999685287476 -0.5509999990463257,-1.437999963760376 -0.6499999761581421,-1.2510000467300415 C-0.6769999861717224,-1.187000036239624 -0.703000009059906,-1.121999979019165 -0.7300000190734863,-1.0579999685287476 C-0.7689999938011169,-0.9150000214576721 -0.7689999938011169,-0.7730000019073486 -0.7300000190734863,-0.6290000081062317z"></path></g><g opacity="1" transform="matrix(1,0,0,1,57.15700149536133,176.07400512695312)"><path fill="rgb(234,232,226)" fill-opacity="1" d=" M-0.5659999847412109,-1.125 C-0.7070000171661377,-0.5180000066757202 -0.8489999771118164,0.09000000357627869 -0.9900000095367432,0.6970000267028809 C-1.0379999876022339,0.906000018119812 -1.0180000066757202,1.13100004196167 -0.9079999923706055,1.3179999589920044 C-0.8109999895095825,1.4859999418258667 -0.6190000176429749,1.6460000276565552 -0.4259999990463257,1.6890000104904175 C-0.2199999988079071,1.7359999418258667 0.012000000104308128,1.7269999980926514 0.19499999284744263,1.6080000400543213 C0.36800000071525574,1.496999979019165 0.5180000066757202,1.3320000171661377 0.5659999847412109,1.1260000467300415 C0.5659999847412109,1.1260000467300415 0.9890000224113464,-0.6970000267028809 0.9890000224113464,-0.6970000267028809 C1.0379999876022339,-0.906000018119812 1.0180000066757202,-1.1299999952316284 0.9079999923706055,-1.3170000314712524 C0.8100000023841858,-1.4850000143051147 0.6179999709129333,-1.6449999809265137 0.4259999990463257,-1.687999963760376 C0.2199999988079071,-1.7350000143051147 -0.012000000104308128,-1.7259999513626099 -0.19499999284744263,-1.6069999933242798 C-0.36800000071525574,-1.496000051498413 -0.5180000066757202,-1.3309999704360962 -0.5659999847412109,-1.125z"></path></g><g opacity="1" transform="matrix(1,0,0,1,41.529998779296875,68.5979995727539)"><path fill="rgb(47,152,43)" fill-opacity="1" d=" M-18.5310001373291,-15.038999557495117 C-18.5310001373291,-15.038999557495117 -20.95400047302246,1.3550000190734863 -20.66900062561035,11.04800033569336 C-20.66900062561035,11.04800033569336 -5.843999862670898,15.038999557495117 7.554999828338623,12.901000022888184 C20.95400047302246,10.762999534606934 19.10099983215332,-9.906999588012695 19.10099983215332,-9.906999588012695 C19.10099983215332,-9.906999588012695 -18.5310001373291,-15.038999557495117 -18.5310001373291,-15.038999557495117z"></path></g><g opacity="1" transform="matrix(1,0,0,1,61.255001068115234,37.85900115966797)"><path fill="rgb(47,152,43)" fill-opacity="1" d=" M-18.621000289916992,-33.15299987792969 C-18.621000289916992,-33.15299987792969 15.968000411987305,-32.20100021362305 21.73699951171875,-32.42100143432617 C26.101999282836914,-32.58700180053711 32.266998291015625,-33.819000244140625 35.0099983215332,-34.409000396728516 C35.75699996948242,-34.56999969482422 36.47200012207031,-34.03200149536133 36.527000427246094,-33.270999908447266 C36.527000427246094,-33.270999908447266 38.05500030517578,-12.031000137329102 38.05500030517578,-12.031000137329102 C38.0989990234375,-11.418000221252441 37.69300079345703,-10.861000061035156 37.09400177001953,-10.718000411987305 C37.09400177001953,-10.718000411987305 18.235000610351562,-6.198999881744385 18.235000610351562,-6.198999881744385 C18.235000610351562,-6.198999881744385 19.034000396728516,-0.8640000224113464 18.80500030517578,7.014999866485596 C18.665000915527344,11.805999755859375 17.374000549316406,34.56999969482422 17.374000549316406,34.56999969482422 C17.374000549316406,34.56999969482422 -38.0989990234375,19.238000869750977 -38.0989990234375,19.238000869750977 C-38.0989990234375,19.238000869750977 -34.7869987487793,-30.24799919128418 -18.621000289916992,-33.15299987792969z"></path></g><g opacity="1" transform="matrix(1,0,0,1,52.20800018310547,75.87000274658203)"><path fill="rgb(184,2,105)" fill-opacity="1" d=" M27.518999099731445,-3.9619998931884766 C27.336999893188477,-14.02299976348877 30.170000076293945,-34.06999969482422 27.283000946044922,-44.209999084472656 C23.19700050354004,-58.56100082397461 16.242000579833984,-67.38400268554688 16.242000579833984,-67.38400268554688 C16.242000579833984,-67.38400268554688 9.305000305175781,-68.06700134277344 9.305000305175781,-68.06700134277344 C17.91200065612793,-59.01499938964844 21.163999557495117,-46.39799880981445 20.40399932861328,-44.742000579833984 C19.72800064086914,-43.270999908447266 16.663999557495117,-43.41999816894531 13.343999862670898,-43.32099914550781 C8.331999778747559,-43.172000885009766 3.180999994277954,-43.40800094604492 2.76200008392334,-45.18899917602539 C-1.0720000267028809,-61.48400115966797 -10.050999641418457,-68.6729965209961 -10.050999641418457,-68.6729965209961 C-10.050999641418457,-68.6729965209961 -17.086999893188477,-68.80400085449219 -17.086999893188477,-68.80400085449219 C-17.086999893188477,-68.80400085449219 -12.862000465393066,-60.41899871826172 -12.265000343322754,-57.70100021362305 C-10.340999603271484,-48.9370002746582 -11.343000411987305,-25.371000289916992 -16.43199920654297,-23.17099952697754 C-19.742000579833984,-21.739999771118164 -26.023000717163086,-23.59000015258789 -28.368000030517578,-24.326000213623047 C-28.952999114990234,-24.509000778198242 -29.559999465942383,-24.12299919128418 -29.645000457763672,-23.516000747680664 C-29.645000457763672,-23.516000747680664 -30.08099937438965,-20.299999237060547 -30.08099937438965,-20.299999237060547 C-30.16900062561035,-19.649999618530273 -29.836999893188477,-19.020999908447266 -29.249000549316406,-18.731000900268555 C-27.707000732421875,-17.972000122070312 -24.711000442504883,-16.32699966430664 -22.90999984741211,-14.220000267028809 C-17.55699920654297,-7.961999893188477 -18.018999099731445,8.038000106811523 -18.018999099731445,8.038000106811523 C-18.018999099731445,8.652999877929688 -16.788000106811523,21.26799964904785 -18.172000885009766,32.49800109863281 C-19.55699920654297,43.72800064086914 -20.17099952697754,65.11199951171875 -20.17099952697754,65.11199951171875 C-20.17099952697754,65.11199951171875 -10.788000106811523,68.80400085449219 4.5960001945495605,68.49600219726562 C19.979999542236328,68.18900299072266 25.05699920654297,65.5739974975586 25.05699920654297,65.5739974975586 C25.05699920654297,65.5739974975586 27.636999130249023,2.549999952316284 27.518999099731445,-3.9619998931884766z"></path></g><g opacity="1" transform="matrix(1,0,0,1,56.15700149536133,8.692000389099121)"><path fill="rgb(230,228,223)" fill-opacity="1" d=" M-5.607999801635742,7.256999969482422 C-15.289999961853027,3.802000045776367 -16.684999465942383,-8.255999565124512 -2.490999937057495,-8.359000205993652 C8.843999862670898,-8.442000389099121 16.684999465942383,1.7860000133514404 9.76200008392334,6.265999794006348 C8.996999740600586,6.760000228881836 8.072999954223633,7.185999870300293 6.978000164031982,7.519999980926514 C5.882999897003174,7.853000164031982 3.312000036239624,3.6540000438690186 2.252000093460083,3.0999999046325684 C1.8420000076293945,2.885999917984009 1.1740000247955322,8.440999984741211 -0.8690000176429749,8.265999794006348 C-2.2709999084472656,8.145999908447266 -3.9119999408721924,7.861999988555908 -5.607999801635742,7.256999969482422z"></path></g><g opacity="1" transform="matrix(1,0,0,1,66.45700073242188,42.50400161743164)"><path fill="rgb(238,15,130)" fill-opacity="1" d=" M-1.3389999866485596,-3.4049999713897705 C-1.3389999866485596,-3.4049999713897705 4.71999979019165,-4.021999835968018 6.7270002365112305,-2.0139999389648438 C8.734000205993652,-0.007000000216066837 5.881999969482422,1.8450000286102295 3.6459999084472656,2.566999912261963 C1.409999966621399,3.2869999408721924 -7.3470001220703125,4.021999835968018 -8.039999961853027,0.5849999785423279 C-8.732999801635742,-2.8529999256134033 -1.3389999866485596,-3.4049999713897705 -1.3389999866485596,-3.4049999713897705z"></path></g><g opacity="1" transform="matrix(1,0,0,1,53.577999114990234,194.21400451660156)"><path fill="rgb(7,5,6)" fill-opacity="1" d=" M-6.833000183105469,-6.2210001945495605 C-2.371000051498413,-1.9809999465942383 1.7350000143051147,2.615999937057495 6.197000026702881,6.855999946594238 C6.617000102996826,7.25600004196167 7.254000186920166,6.619999885559082 6.834000110626221,6.21999979019165 C2.371000051498413,1.9800000190734863 -1.7339999675750732,-2.617000102996826 -6.197000026702881,-6.857999801635742 C-6.617000102996826,-7.25600004196167 -7.254000186920166,-6.620999813079834 -6.833000183105469,-6.2210001945495605z"></path></g></g><g transform="matrix(1.9994561672210693,0.04663897305727005,-0.04663897305727005,1.9994561672210693,231.75439453125,69.35584259033203)" opacity="1" style="display: block;"><g opacity="1" transform="matrix(1,0,0,1,33.53300094604492,4.459000110626221)"><path fill="rgb(248,82,105)" fill-opacity="1" d=" M1.9179999828338623,-1.6360000371932983 C2.486999988555908,-0.9179999828338623 3.322999954223633,0.9900000095367432 3.322999954223633,0.9900000095367432 C3.322999954223633,0.9900000095367432 2.4200000762939453,3.4639999866485596 2.4200000762939453,3.4639999866485596 C2.4200000762939453,3.4639999866485596 -1.2710000276565552,3.2709999084472656 -1.2710000276565552,3.2709999084472656 C-1.2710000276565552,3.2709999084472656 -3.322999954223633,-1.340000033378601 -1.0169999599456787,-2.563999891281128 C0.6779999732971191,-3.4639999866485596 1.5720000267028809,-2.072000026702881 1.9179999828338623,-1.6360000371932983z"></path></g><g opacity="1" transform="matrix(1,0,0,1,42.439998626708984,45.944000244140625)"><path fill="rgb(168,216,74)" fill-opacity="1" d=" M41.75199890136719,-16.954999923706055 C41.577999114990234,-23.36400032043457 41.01499938964844,-29.416000366210938 35.779998779296875,-35.35900115966797 C32.814998626708984,-38.7239990234375 26.400999069213867,-40.51100158691406 19.08300018310547,-40.744998931884766 C-0.12200000137090683,-41.358001708984375 -1.6100000143051147,-41.33599853515625 -19.39699935913086,-41.01900100708008 C-22.360000610351562,-40.96699905395508 -31.299999237060547,-40.28499984741211 -34.9370002746582,-37.00199890136719 C-41.64699935913086,-30.94499969482422 -41.819000244140625,-25.42300033569336 -41.83300018310547,-21.652000427246094 C-41.8380012512207,-20.211000442504883 -41.875999450683594,-13.569999694824219 -41.875999450683594,-13.569999694824219 C-41.875999450683594,-13.569999694824219 -41.40999984741211,13.786999702453613 -41.40999984741211,13.786999702453613 C-41.40999984741211,13.786999702453613 -41.31399917602539,22.090999603271484 -41.31399917602539,22.090999603271484 C-41.31399917602539,22.090999603271484 -42.189998626708984,34.06800079345703 -31.06599998474121,38.55099868774414 C-28.763999938964844,39.479000091552734 -25.961999893188477,40.09299850463867 -22.517000198364258,40.20500183105469 C-18.424999237060547,40.3380012512207 -9.315999984741211,40.71799850463867 -0.5889999866485596,40.994998931884766 C4.489999771118164,41.154998779296875 9.442000389099121,41.28099822998047 13.196999549865723,41.301998138427734 C23.40399932861328,41.358001708984375 28.844999313354492,40.38600158691406 34.23400115966797,35.92399978637695 C39.189998626708984,31.820999145507812 40.84199905395508,26.44700050354004 41.2400016784668,18.94499969482422 C42.15999984741211,1.6260000467300415 42.191001892089844,-0.2199999988079071 41.75199890136719,-16.954999923706055z"></path></g><g opacity="1" transform="matrix(1,0,0,1,45.47700119018555,7.27400016784668)"><path fill="rgb(246,158,170)" fill-opacity="1" d=" M-3.569999933242798,-4.98199987411499 C-3.569999933242798,-4.98199987411499 -5.1539998054504395,-7.0229997634887695 -7.136000156402588,-6.671999931335449 C-9.130999565124512,-6.318999767303467 -9.611000061035156,-2.2100000381469727 -9.480999946594238,-0.4729999899864197 C-9.35099983215332,1.2630000114440918 -8.92199993133545,4.447999954223633 -6.6529998779296875,4.629000186920166 C-5.110000133514404,4.752999782562256 -4.576000213623047,2.9189999103546143 -4.576000213623047,2.9189999103546143 C-4.576000213623047,2.9189999103546143 -4.908999919891357,4.423999786376953 -4.026000022888184,5.443999767303467 C-2.6600000858306885,7.02400016784668 -1.1399999856948853,5.961999893188477 -0.5379999876022339,4.830999851226807 C0.1589999943971634,3.5220000743865967 0.10499999672174454,2.2009999752044678 0.10499999672174454,2.2009999752044678 C0.10499999672174454,2.2009999752044678 0.38999998569488525,4.436999797821045 1.7259999513626099,4.7230000495910645 C3.2079999446868896,5.039999961853027 4.789999961853027,2.874000072479248 4.5320000648498535,1.375 C4.5320000648498535,1.375 4.364999771118164,3.450000047683716 6.775000095367432,3.2790000438690186 C8.553000450134277,3.1519999504089355 9.611000061035156,-1.8240000009536743 8.097000122070312,-2.9110000133514404 C6.583000183105469,-3.997999906539917 5.314000129699707,-2.7100000381469727 5.314000129699707,-2.7100000381469727 C5.314000129699707,-2.7100000381469727 4.875,-4.3480000495910645 3.171999931335449,-4.568999767303467 C1.468999981880188,-4.790999889373779 1.1050000190734863,-3.937999963760376 1.1050000190734863,-3.937999963760376 C1.1050000190734863,-3.937999963760376 0.7839999794960022,-5.714000225067139 -1.2009999752044678,-6.118000030517578 C-3.184999942779541,-6.5229997634887695 -3.569999933242798,-4.98199987411499 -3.569999933242798,-4.98199987411499z"></path></g><g opacity="1" transform="matrix(1,0,0,1,50.09299850463867,7.853000164031982)"><path fill="rgb(7,5,6)" fill-opacity="1" d=" M-0.22699999809265137,-1.7869999408721924 C-0.609000027179718,-0.6690000295639038 -0.828000009059906,0.5 -0.8949999809265137,1.6790000200271606 C-0.9110000133514404,1.9630000591278076 -0.6340000033378601,2.2339999675750732 -0.3529999852180481,2.2209999561309814 C-0.04500000178813934,2.2079999446868896 0.1720000058412552,1.9830000400543213 0.1889999955892563,1.6790000200271606 C0.22100000083446503,1.1089999675750732 0.2770000100135803,0.6600000262260437 0.38499999046325684,0.10999999940395355 C0.49399998784065247,-0.4350000023841858 0.6399999856948853,-0.972000002861023 0.8190000057220459,-1.4980000257492065 C0.9110000133514404,-1.7660000324249268 0.7139999866485596,-2.1029999256134033 0.4410000145435333,-2.1649999618530273 C0.14000000059604645,-2.2339999675750732 -0.12800000607967377,-2.075000047683716 -0.22699999809265137,-1.7869999408721924z"></path></g><g opacity="1" transform="matrix(1,0,0,1,41.012001037597656,45.07899856567383)"><path fill="rgb(139,202,45)" fill-opacity="1" d=" M29.638999938964844,-16.934999465942383 C30.143999099731445,-16.934999465942383 30.145000457763672,-17.7189998626709 29.638999938964844,-17.7189998626709 C29.638999938964844,-17.7189998626709 24.867000579833984,-17.7189998626709 24.867000579833984,-17.7189998626709 C24.85099983215332,-21.308000564575195 24.81399917602539,-24.89699935913086 24.76799964904785,-28.486000061035156 C24.76799964904785,-28.486000061035156 29.638999938964844,-28.486000061035156 29.638999938964844,-28.486000061035156 C30.143999099731445,-28.486000061035156 30.145000457763672,-29.270999908447266 29.638999938964844,-29.270999908447266 C29.638999938964844,-29.270999908447266 24.760000228881836,-29.270999908447266 24.760000228881836,-29.270999908447266 C24.74799919128418,-30.101999282836914 24.749000549316406,-30.93400001525879 24.736000061035156,-31.766000747680664 C24.726999282836914,-32.37699890136719 23.775999069213867,-32.37900161743164 23.785999298095703,-31.766000747680664 C23.798999786376953,-30.93400001525879 23.79800033569336,-30.101999282836914 23.80900001525879,-29.270999908447266 C23.80900001525879,-29.270999908447266 13.02299976348877,-29.270999908447266 13.02299976348877,-29.270999908447266 C13.02299976348877,-29.270999908447266 13.02299976348877,-31.766000747680664 13.02299976348877,-31.766000747680664 C13.02299976348877,-32.37699890136719 12.071999549865723,-32.37799835205078 12.071999549865723,-31.766000747680664 C12.071999549865723,-31.766000747680664 12.071999549865723,-29.270999908447266 12.071999549865723,-29.270999908447266 C12.071999549865723,-29.270999908447266 1.406000018119812,-29.270999908447266 1.406000018119812,-29.270999908447266 C1.406000018119812,-29.270999908447266 1.406000018119812,-31.766000747680664 1.406000018119812,-31.766000747680664 C1.406000018119812,-32.37699890136719 0.45399999618530273,-32.37799835205078 0.45399999618530273,-31.766000747680664 C0.45399999618530273,-31.766000747680664 0.45399999618530273,-29.270999908447266 0.45399999618530273,-29.270999908447266 C0.45399999618530273,-29.270999908447266 -10.093999862670898,-29.270999908447266 -10.093999862670898,-29.270999908447266 C-10.104999542236328,-30.101999282836914 -10.104999542236328,-30.93400001525879 -10.118000030517578,-31.766000747680664 C-10.128000259399414,-32.37699890136719 -11.07800006866455,-32.37900161743164 -11.067999839782715,-31.766000747680664 C-11.055999755859375,-30.93400001525879 -11.055999755859375,-30.101999282836914 -11.043999671936035,-29.270999908447266 C-11.043999671936035,-29.270999908447266 -21.83099937438965,-29.270999908447266 -21.83099937438965,-29.270999908447266 C-21.83099937438965,-29.270999908447266 -21.83099937438965,-31.766000747680664 -21.83099937438965,-31.766000747680664 C-21.83099937438965,-32.37699890136719 -22.781999588012695,-32.37799835205078 -22.781999588012695,-31.766000747680664 C-22.781999588012695,-31.766000747680664 -22.781999588012695,-29.270999908447266 -22.781999588012695,-29.270999908447266 C-22.781999588012695,-29.270999908447266 -29.638999938964844,-29.270999908447266 -29.638999938964844,-29.270999908447266 C-30.143999099731445,-29.270999908447266 -30.145000457763672,-28.486000061035156 -29.638999938964844,-28.486000061035156 C-29.638999938964844,-28.486000061035156 -22.781999588012695,-28.486000061035156 -22.781999588012695,-28.486000061035156 C-22.781999588012695,-28.486000061035156 -22.781999588012695,-17.7189998626709 -22.781999588012695,-17.7189998626709 C-22.781999588012695,-17.7189998626709 -29.638999938964844,-17.7189998626709 -29.638999938964844,-17.7189998626709 C-30.143999099731445,-17.7189998626709 -30.145000457763672,-16.934999465942383 -29.638999938964844,-16.934999465942383 C-29.638999938964844,-16.934999465942383 -22.781999588012695,-16.934999465942383 -22.781999588012695,-16.934999465942383 C-22.781999588012695,-16.934999465942383 -22.781999588012695,-6.168000221252441 -22.781999588012695,-6.168000221252441 C-22.781999588012695,-6.168000221252441 -29.638999938964844,-6.168000221252441 -29.638999938964844,-6.168000221252441 C-30.143999099731445,-6.168000221252441 -30.145000457763672,-5.382999897003174 -29.638999938964844,-5.382999897003174 C-29.638999938964844,-5.382999897003174 -22.781999588012695,-5.382999897003174 -22.781999588012695,-5.382999897003174 C-22.781999588012695,-5.382999897003174 -22.781999588012695,5.383999824523926 -22.781999588012695,5.383999824523926 C-22.781999588012695,5.383999824523926 -29.638999938964844,5.383999824523926 -29.638999938964844,5.383999824523926 C-30.143999099731445,5.383999824523926 -30.145000457763672,6.168000221252441 -29.638999938964844,6.168000221252441 C-29.638999938964844,6.168000221252441 -22.781999588012695,6.168000221252441 -22.781999588012695,6.168000221252441 C-22.781999588012695,6.168000221252441 -22.781999588012695,16.93600082397461 -22.781999588012695,16.93600082397461 C-22.781999588012695,16.93600082397461 -29.638999938964844,16.93600082397461 -29.638999938964844,16.93600082397461 C-30.143999099731445,16.93600082397461 -30.145000457763672,17.719999313354492 -29.638999938964844,17.719999313354492 C-29.638999938964844,17.719999313354492 -22.781999588012695,17.719999313354492 -22.781999588012695,17.719999313354492 C-22.781999588012695,17.719999313354492 -22.781999588012695,28.48699951171875 -22.781999588012695,28.48699951171875 C-22.781999588012695,28.48699951171875 -29.638999938964844,28.48699951171875 -29.638999938964844,28.48699951171875 C-30.143999099731445,28.48699951171875 -30.145000457763672,29.270999908447266 -29.638999938964844,29.270999908447266 C-29.638999938964844,29.270999908447266 -22.781999588012695,29.270999908447266 -22.781999588012695,29.270999908447266 C-22.781999588012695,29.270999908447266 -22.781999588012695,31.767000198364258 -22.781999588012695,31.767000198364258 C-22.781999588012695,32.37799835205078 -21.83099937438965,32.37900161743164 -21.83099937438965,31.767000198364258 C-21.83099937438965,31.767000198364258 -21.83099937438965,29.270999908447266 -21.83099937438965,29.270999908447266 C-21.83099937438965,29.270999908447266 -11.369999885559082,29.270999908447266 -11.369999885559082,29.270999908447266 C-11.387999534606934,30.10300064086914 -11.39900016784668,30.934999465942383 -11.416999816894531,31.767000198364258 C-11.430999755859375,32.37799835205078 -10.479999542236328,32.37799835205078 -10.467000007629395,31.767000198364258 C-10.449000358581543,30.934999465942383 -10.437999725341797,30.10300064086914 -10.420999526977539,29.270999908447266 C-10.420999526977539,29.270999908447266 0.45399999618530273,29.270999908447266 0.45399999618530273,29.270999908447266 C0.45399999618530273,29.270999908447266 0.45399999618530273,31.767000198364258 0.45399999618530273,31.767000198364258 C0.45399999618530273,32.37799835205078 1.406000018119812,32.37900161743164 1.406000018119812,31.767000198364258 C1.406000018119812,31.767000198364258 1.406000018119812,29.270999908447266 1.406000018119812,29.270999908447266 C1.406000018119812,29.270999908447266 12.071999549865723,29.270999908447266 12.071999549865723,29.270999908447266 C12.071999549865723,29.270999908447266 12.071999549865723,31.767000198364258 12.071999549865723,31.767000198364258 C12.071999549865723,32.37799835205078 13.02299976348877,32.37900161743164 13.02299976348877,31.767000198364258 C13.02299976348877,31.767000198364258 13.02299976348877,29.270999908447266 13.02299976348877,29.270999908447266 C13.02299976348877,29.270999908447266 23.48200035095215,29.270999908447266 23.48200035095215,29.270999908447266 C23.465999603271484,30.10300064086914 23.45599937438965,30.934999465942383 23.437999725341797,31.767000198364258 C23.424999237060547,32.37799835205078 24.375,32.37799835205078 24.38800048828125,31.767000198364258 C24.405000686645508,30.934999465942383 24.416000366210938,30.10300064086914 24.43400001525879,29.270999908447266 C24.43400001525879,29.270999908447266 29.638999938964844,29.270999908447266 29.638999938964844,29.270999908447266 C30.143999099731445,29.270999908447266 30.145000457763672,28.48699951171875 29.638999938964844,28.48699951171875 C29.638999938964844,28.48699951171875 24.448999404907227,28.48699951171875 24.448999404907227,28.48699951171875 C24.520999908447266,24.898000717163086 24.589000701904297,21.30900001525879 24.645000457763672,17.719999313354492 C24.645000457763672,17.719999313354492 29.638999938964844,17.719999313354492 29.638999938964844,17.719999313354492 C30.143999099731445,17.719999313354492 30.145000457763672,16.93600082397461 29.638999938964844,16.93600082397461 C29.638999938964844,16.93600082397461 24.65999984741211,16.93600082397461 24.65999984741211,16.93600082397461 C24.71500015258789,13.347000122070312 24.75,9.756999969482422 24.785999298095703,6.168000221252441 C24.785999298095703,6.168000221252441 29.638999938964844,6.168000221252441 29.638999938964844,6.168000221252441 C30.143999099731445,6.168000221252441 30.145000457763672,5.383999824523926 29.638999938964844,5.383999824523926 C29.638999938964844,5.383999824523926 24.79599952697754,5.383999824523926 24.79599952697754,5.383999824523926 C24.83099937438965,1.7949999570846558 24.85300064086914,-1.7929999828338623 24.864999771118164,-5.382999897003174 C24.864999771118164,-5.382999897003174 29.638999938964844,-5.382999897003174 29.638999938964844,-5.382999897003174 C30.143999099731445,-5.382999897003174 30.145000457763672,-6.168000221252441 29.638999938964844,-6.168000221252441 C29.638999938964844,-6.168000221252441 24.867000579833984,-6.168000221252441 24.867000579833984,-6.168000221252441 C24.878000259399414,-9.756999969482422 24.889999389648438,-13.345999717712402 24.874000549316406,-16.934999465942383 C24.874000549316406,-16.934999465942383 29.638999938964844,-16.934999465942383 29.638999938964844,-16.934999465942383z M-21.83099937438965,-28.486000061035156 C-21.83099937438965,-28.486000061035156 -11.038000106811523,-28.486000061035156 -11.038000106811523,-28.486000061035156 C-10.991999626159668,-24.89699935913086 -10.954999923706055,-21.308000564575195 -10.937999725341797,-17.7189998626709 C-10.937999725341797,-17.7189998626709 -21.83099937438965,-17.7189998626709 -21.83099937438965,-17.7189998626709 C-21.83099937438965,-17.7189998626709 -21.83099937438965,-28.486000061035156 -21.83099937438965,-28.486000061035156z M-11.357000350952148,28.48699951171875 C-11.357000350952148,28.48699951171875 -21.83099937438965,28.48699951171875 -21.83099937438965,28.48699951171875 C-21.83099937438965,28.48699951171875 -21.83099937438965,17.719999313354492 -21.83099937438965,17.719999313354492 C-21.83099937438965,17.719999313354492 -11.159000396728516,17.719999313354492 -11.159000396728516,17.719999313354492 C-11.217000007629395,21.30900001525879 -11.28499984741211,24.898000717163086 -11.357000350952148,28.48699951171875z M-11.145999908447266,16.93600082397461 C-11.145999908447266,16.93600082397461 -21.83099937438965,16.93600082397461 -21.83099937438965,16.93600082397461 C-21.83099937438965,16.93600082397461 -21.83099937438965,6.168000221252441 -21.83099937438965,6.168000221252441 C-21.83099937438965,6.168000221252441 -11.019000053405762,6.168000221252441 -11.019000053405762,6.168000221252441 C-11.055000305175781,9.756999969482422 -11.09000015258789,13.347000122070312 -11.145999908447266,16.93600082397461z M-11.010000228881836,5.383999824523926 C-11.010000228881836,5.383999824523926 -21.83099937438965,5.383999824523926 -21.83099937438965,5.383999824523926 C-21.83099937438965,5.383999824523926 -21.83099937438965,-5.382999897003174 -21.83099937438965,-5.382999897003174 C-21.83099937438965,-5.382999897003174 -10.939000129699707,-5.382999897003174 -10.939000129699707,-5.382999897003174 C-10.95199966430664,-1.7929999828338623 -10.975000381469727,1.7949999570846558 -11.010000228881836,5.383999824523926z M-10.937999725341797,-6.168000221252441 C-10.937999725341797,-6.168000221252441 -21.83099937438965,-6.168000221252441 -21.83099937438965,-6.168000221252441 C-21.83099937438965,-6.168000221252441 -21.83099937438965,-16.934999465942383 -21.83099937438965,-16.934999465942383 C-21.83099937438965,-16.934999465942383 -10.930000305175781,-16.934999465942383 -10.930000305175781,-16.934999465942383 C-10.914999961853027,-13.345999717712402 -10.928000450134277,-9.756999969482422 -10.937999725341797,-6.168000221252441z M0.45399999618530273,18.340999603271484 C0.45399999618530273,18.340999603271484 0.45399999618530273,28.48699951171875 0.45399999618530273,28.48699951171875 C0.45399999618530273,28.48699951171875 -10.406000137329102,28.48699951171875 -10.406000137329102,28.48699951171875 C-10.333999633789062,24.898000717163086 -10.265000343322754,21.30900001525879 -10.208000183105469,17.719999313354492 C-10.208000183105469,17.719999313354492 0.45399999618530273,17.719999313354492 0.45399999618530273,17.719999313354492 C0.45399999618530273,17.719999313354492 0.45399999618530273,18.340999603271484 0.45399999618530273,18.340999603271484z M0.45399999618530273,16.93600082397461 C0.45399999618530273,16.93600082397461 -10.192999839782715,16.93600082397461 -10.192999839782715,16.93600082397461 C-10.137999534606934,13.347000122070312 -10.104999542236328,9.756999969482422 -10.067999839782715,6.168000221252441 C-10.067999839782715,6.168000221252441 0.45399999618530273,6.168000221252441 0.45399999618530273,6.168000221252441 C0.45399999618530273,6.168000221252441 0.45399999618530273,16.93600082397461 0.45399999618530273,16.93600082397461z M0.45399999618530273,5.383999824523926 C0.45399999618530273,5.383999824523926 -10.0600004196167,5.383999824523926 -10.0600004196167,5.383999824523926 C-10.02400016784668,1.7949999570846558 -10.001999855041504,-1.7929999828338623 -9.98799991607666,-5.382999897003174 C-9.98799991607666,-5.382999897003174 0.45399999618530273,-5.382999897003174 0.45399999618530273,-5.382999897003174 C0.45399999618530273,-5.382999897003174 0.45399999618530273,5.383999824523926 0.45399999618530273,5.383999824523926z M0.45399999618530273,-6.168000221252441 C0.45399999618530273,-6.168000221252441 -9.98799991607666,-6.168000221252441 -9.98799991607666,-6.168000221252441 C-9.977999687194824,-9.756999969482422 -9.96500015258789,-13.345999717712402 -9.979999542236328,-16.934999465942383 C-9.979999542236328,-16.934999465942383 0.45399999618530273,-16.934999465942383 0.45399999618530273,-16.934999465942383 C0.45399999618530273,-16.934999465942383 0.45399999618530273,-6.168000221252441 0.45399999618530273,-6.168000221252441z M0.45399999618530273,-17.7189998626709 C0.45399999618530273,-17.7189998626709 -9.986000061035156,-17.7189998626709 -9.986000061035156,-17.7189998626709 C-10.003000259399414,-21.308000564575195 -10.041000366210938,-24.89699935913086 -10.088000297546387,-28.486000061035156 C-10.088000297546387,-28.486000061035156 0.45399999618530273,-28.486000061035156 0.45399999618530273,-28.486000061035156 C0.45399999618530273,-28.486000061035156 0.45399999618530273,-17.7189998626709 0.45399999618530273,-17.7189998626709z M12.071999549865723,28.48699951171875 C12.071999549865723,28.48699951171875 1.406000018119812,28.48699951171875 1.406000018119812,28.48699951171875 C1.406000018119812,28.48699951171875 1.406000018119812,17.719999313354492 1.406000018119812,17.719999313354492 C1.406000018119812,17.719999313354492 12.071999549865723,17.719999313354492 12.071999549865723,17.719999313354492 C12.071999549865723,17.719999313354492 12.071999549865723,28.48699951171875 12.071999549865723,28.48699951171875z M12.071999549865723,16.93600082397461 C12.071999549865723,16.93600082397461 1.406000018119812,16.93600082397461 1.406000018119812,16.93600082397461 C1.406000018119812,16.93600082397461 1.406000018119812,6.169000148773193 1.406000018119812,6.169000148773193 C1.406000018119812,6.169000148773193 12.071999549865723,6.169000148773193 12.071999549865723,6.169000148773193 C12.071999549865723,6.169000148773193 12.071999549865723,16.93600082397461 12.071999549865723,16.93600082397461z M12.071999549865723,5.383999824523926 C12.071999549865723,5.383999824523926 1.406000018119812,5.383999824523926 1.406000018119812,5.383999824523926 C1.406000018119812,5.383999824523926 1.406000018119812,-5.382999897003174 1.406000018119812,-5.382999897003174 C1.406000018119812,-5.382999897003174 12.071999549865723,-5.382999897003174 12.071999549865723,-5.382999897003174 C12.071999549865723,-5.382999897003174 12.071999549865723,5.383999824523926 12.071999549865723,5.383999824523926z M12.071999549865723,-6.168000221252441 C12.071999549865723,-6.168000221252441 1.406000018119812,-6.168000221252441 1.406000018119812,-6.168000221252441 C1.406000018119812,-6.168000221252441 1.406000018119812,-16.934999465942383 1.406000018119812,-16.934999465942383 C1.406000018119812,-16.934999465942383 12.071999549865723,-16.934999465942383 12.071999549865723,-16.934999465942383 C12.071999549865723,-16.934999465942383 12.071999549865723,-6.168000221252441 12.071999549865723,-6.168000221252441z M12.071999549865723,-17.7189998626709 C12.071999549865723,-17.7189998626709 1.406000018119812,-17.7189998626709 1.406000018119812,-17.7189998626709 C1.406000018119812,-17.7189998626709 1.406000018119812,-18.34000015258789 1.406000018119812,-18.34000015258789 C1.406000018119812,-18.34000015258789 1.406000018119812,-28.486000061035156 1.406000018119812,-28.486000061035156 C1.406000018119812,-28.486000061035156 12.071999549865723,-28.486000061035156 12.071999549865723,-28.486000061035156 C12.071999549865723,-28.486000061035156 12.071999549865723,-17.7189998626709 12.071999549865723,-17.7189998626709z M13.02299976348877,-28.486000061035156 C13.02299976348877,-28.486000061035156 23.81599998474121,-28.486000061035156 23.81599998474121,-28.486000061035156 C23.86199951171875,-24.89699935913086 23.899999618530273,-21.308000564575195 23.91699981689453,-17.7189998626709 C23.91699981689453,-17.7189998626709 13.02299976348877,-17.7189998626709 13.02299976348877,-17.7189998626709 C13.02299976348877,-17.7189998626709 13.02299976348877,-28.486000061035156 13.02299976348877,-28.486000061035156z M23.496999740600586,28.48699951171875 C23.496999740600586,28.48699951171875 13.02299976348877,28.48699951171875 13.02299976348877,28.48699951171875 C13.02299976348877,28.48699951171875 13.02299976348877,17.719999313354492 13.02299976348877,17.719999313354492 C13.02299976348877,17.719999313354492 23.69499969482422,17.719999313354492 23.69499969482422,17.719999313354492 C23.638999938964844,21.30900001525879 23.569000244140625,24.898000717163086 23.496999740600586,28.48699951171875z M23.709999084472656,16.93600082397461 C23.709999084472656,16.93600082397461 13.02299976348877,16.93600082397461 13.02299976348877,16.93600082397461 C13.02299976348877,16.93600082397461 13.02299976348877,6.168000221252441 13.02299976348877,6.168000221252441 C13.02299976348877,6.168000221252441 23.836999893188477,6.168000221252441 23.836999893188477,6.168000221252441 C23.799999237060547,9.756999969482422 23.766000747680664,13.347000122070312 23.709999084472656,16.93600082397461z M23.844999313354492,5.383999824523926 C23.844999313354492,5.383999824523926 13.02299976348877,5.383999824523926 13.02299976348877,5.383999824523926 C13.02299976348877,5.383999824523926 13.02299976348877,-5.382999897003174 13.02299976348877,-5.382999897003174 C13.02299976348877,-5.382999897003174 23.913999557495117,-5.382999897003174 23.913999557495117,-5.382999897003174 C23.900999069213867,-1.7929999828338623 23.8799991607666,1.7949999570846558 23.844999313354492,5.383999824523926z M23.91699981689453,-6.168000221252441 C23.91699981689453,-6.168000221252441 13.02299976348877,-6.168000221252441 13.02299976348877,-6.168000221252441 C13.02299976348877,-6.168000221252441 13.02299976348877,-16.934999465942383 13.02299976348877,-16.934999465942383 C13.02299976348877,-16.934999465942383 23.923999786376953,-16.934999465942383 23.923999786376953,-16.934999465942383 C23.937999725341797,-13.345999717712402 23.92799949645996,-9.756999969482422 23.91699981689453,-6.168000221252441z"></path></g><g opacity="1" transform="matrix(1,0,0,1,40.970001220703125,6.997000217437744)"><path fill="rgb(7,5,6)" fill-opacity="1" d=" M-0.1550000011920929,-3.260999917984009 C-0.878000020980835,-1.1339999437332153 -1.1150000095367432,1.1480000019073486 -0.8379999995231628,3.377000093460083 C-0.8009999990463257,3.6670000553131104 -0.6140000224113464,3.9189999103546143 -0.29600000381469727,3.9189999103546143 C-0.03099999949336052,3.9189999103546143 0.28299999237060547,3.6700000762939453 0.2460000067949295,3.377000093460083 C-0.020999999716877937,1.2309999465942383 0.19499999284744263,-0.925000011920929 0.8899999856948853,-2.9730000495910645 C1.1150000095367432,-3.634999990463257 0.0689999982714653,-3.9189999103546143 -0.1550000011920929,-3.260999917984009z"></path></g><g opacity="1" transform="matrix(1,0,0,1,46.03099822998047,7.340000152587891)"><path fill="rgb(7,5,6)" fill-opacity="1" d=" M-0.24899999797344208,-2.7669999599456787 C-0.7070000171661377,-0.9670000076293945 -0.9480000138282776,0.8870000243186951 -0.9629999995231628,2.744999885559082 C-0.968999981880188,3.441999912261963 0.11599999666213989,3.443000078201294 0.12200000137090683,2.744999885559082 C0.13600000739097595,0.9800000190734863 0.3610000014305115,-0.7680000066757202 0.796999990940094,-2.4790000915527344 C0.968999981880188,-3.1549999713897705 -0.07699999958276749,-3.443000078201294 -0.24899999797344208,-2.7669999599456787z"></path></g></g><g transform="matrix(0.9997280836105347,0.023319486528635025,-0.023319486528635025,0.9997280836105347,239.20082092285156,307.5942687988281)" opacity="1" style="display: block;"><g opacity="1" transform="matrix(1,0,0,1,0,0)"><path stroke-linecap="round" stroke-linejoin="round" fill-opacity="0" stroke="rgb(24,56,17)" stroke-opacity="1" stroke-width="9" d=" M141.10299682617188,-211.41099548339844 C152.2239990234375,-228.08900451660156 161.5,-242 161.5,-242"></path></g></g><g transform="matrix(0.9956661462783813,0.09300018846988678,-0.09300018846988678,0.9956661462783813,261.4174499511719,251.9386444091797)" opacity="1" style="display: block;"><g opacity="1" transform="matrix(1,0,0,1,0,0)"><path fill="rgb(24,56,17)" fill-opacity="1" d=" M138.5,-212.5 C138.5,-212.5 117,-201 117,-201 C117,-201 136.5,-189 136.5,-189 C136.5,-189 138.5,-212.5 138.5,-212.5z"></path><path stroke-linecap="butt" stroke-linejoin="miter" fill-opacity="0" stroke-miterlimit="4" stroke="rgb(24,56,17)" stroke-opacity="1" stroke-width="0" d=" M138.5,-212.5 C138.5,-212.5 117,-201 117,-201 C117,-201 136.5,-189 136.5,-189 C136.5,-189 138.5,-212.5 138.5,-212.5z"></path></g></g><g transform="matrix(1.930059552192688,-0.5242807865142822,0.5242807865142822,1.930059552192688,100.08493041992188,152.89251708984375)" opacity="1" style="display: block;"><g opacity="1" transform="matrix(1,0,0,1,14.880000114440918,21.777999877929688)"><path fill="rgb(47,152,43)" fill-opacity="1" d=" M-0.14800000190734863,-21.527999877929688 C-0.14800000190734863,-21.527999877929688 -8.751999855041504,-18.59000015258789 -11.663000106811523,-11.008999824523926 C-14.628999710083008,-3.2850000858306885 -13.76200008392334,0.9959999918937683 -12.668999671936035,5.629000186920166 C-12.668999671936035,5.629000186920166 -7.669000148773193,20.733999252319336 -7.669000148773193,20.733999252319336 C-7.502999782562256,21.23699951171875 -6.979000091552734,21.527999877929688 -6.464000225067139,21.402999877929688 C-6.464000225067139,21.402999877929688 13.817999839782715,16.468000411987305 13.817999839782715,16.468000411987305 C14.309000015258789,16.347999572753906 14.630000114440918,15.87600040435791 14.555000305175781,15.37600040435791 C13.979999542236328,11.52400016784668 11.541999816894531,-3.9639999866485596 9.484000205993652,-9.28600025177002 C6.052999973297119,-18.158000946044922 -0.14800000190734863,-21.527999877929688 -0.14800000190734863,-21.527999877929688z"></path></g><g opacity="1" transform="matrix(1,0,0,1,14.543000221252441,27.565000534057617)"><path fill="rgb(55,161,43)" fill-opacity="1" d=" M-4.735000133514404,-1.2949999570846558 C-3.5739998817443848,-2.1689999103546143 -0.5479999780654907,-3.1029999256134033 0.9010000228881836,-3.197999954223633 C3.49399995803833,-3.369999885559082 6.5329999923706055,-2.8989999294281006 6.682000160217285,-1.1100000143051147 C6.889999866485596,1.3799999952316284 -0.4909999966621399,3.369999885559082 -3.871999979019165,2.7360000610351562 C-6.5279998779296875,2.236999988555908 -6.889999866485596,0.3269999921321869 -4.735000133514404,-1.2949999570846558z"></path></g><g opacity="1" transform="matrix(1,0,0,1,69.91400146484375,38.354000091552734)"><path fill="rgb(248,82,105)" fill-opacity="1" d=" M7.9029998779296875,0.024000000208616257 C7.9029998779296875,0.024000000208616257 9.319000244140625,-1.0140000581741333 8.538000106811523,-2.4140000343322754 C7.297999858856201,-4.631999969482422 1.8930000066757202,-3.990999937057495 -1.2079999446868896,2.2330000400543213 C-1.2079999446868896,2.2330000400543213 -3.25600004196167,1.2430000305175781 -5.118000030517578,1.0049999952316284 C-7.548999786376953,0.6959999799728394 -9.156999588012695,1.7949999570846558 -9.23799991607666,1.9589999914169312 C-9.319999694824219,2.122999906539917 -8.258000373840332,4.311999797821045 -8.093999862670898,4.394000053405762 C-7.929999828338623,4.474999904632568 -2.693000078201294,4.631999969482422 -2.693000078201294,4.631999969482422 C-2.693000078201294,4.631999969482422 8.399999618530273,1.0449999570846558 8.399999618530273,1.0449999570846558 C8.399999618530273,1.0449999570846558 7.9029998779296875,0.024000000208616257 7.9029998779296875,0.024000000208616257z"></path></g><g opacity="1" transform="matrix(1,0,0,1,46.986000061035156,45.45100021362305)"><path fill="rgb(246,158,170)" fill-opacity="1" d=" M10.182000160217285,4.123000144958496 C10.182000160217285,4.123000144958496 -12.628999710083008,15.807999610900879 -22.176000595092773,12.520000457763672 C-29.666000366210938,9.940999984741211 -35.70399856567383,-6.669000148773193 -35.70399856567383,-6.669000148773193 C-35.70399856567383,-6.669000148773193 -18.73900032043457,-10.934000015258789 -18.73900032043457,-10.934000015258789 C-18.73900032043457,-10.934000015258789 -17.844999313354492,-3.4059998989105225 -15.767999649047852,-2.7769999504089355 C-13.690999984741211,-2.1480000019073486 5.926000118255615,-4.616000175476074 5.926000118255615,-4.616000175476074 C5.926000118255615,-4.616000175476074 6.955999851226807,-6.673999786376953 8.687999725341797,-7.138999938964844 C10.480999946594238,-7.619999885559082 12.036999702453613,-10.446999549865723 12.319999694824219,-12.274999618530273 C12.630999565124512,-14.29800033569336 13.435999870300293,-15.809000015258789 15.482000350952148,-14.682000160217285 C17.218000411987305,-13.72599983215332 17.28700065612793,-11.246999740600586 16.43899917602539,-9.543999671936035 C15.852999687194824,-8.369000434875488 14.128000259399414,-5.802999973297119 15.458000183105469,-5.105000019073486 C16.788999557495117,-4.406000137329102 20.093000411987305,-4.065999984741211 23.020999908447266,-5.729000091552734 C26.95599937438965,-7.964000225067139 30.340999603271484,-9.241000175476074 33.02299880981445,-8.243000030517578 C35.70399856567383,-7.245999813079834 35.69499969482422,-4.751999855041504 34.82400131225586,-3.864000082015991 C33.952999114990234,-2.9769999980926514 32,-3.003000020980835 29.81399917602539,-2.878000020980835 C26.586999893188477,-2.694999933242798 24.91200065612793,-1.4639999866485596 22.32699966430664,-0.1459999978542328 C20.69499969482422,0.6859999895095825 19.542999267578125,1.781999945640564 15.684000015258789,3.0439999103546143 C14.083999633789062,3.568000078201294 10.182000160217285,4.123000144958496 10.182000160217285,4.123000144958496z"></path></g><g opacity="1" transform="matrix(1,0,0,1,17.459999084472656,37.6150016784668)"><path fill="rgb(230,228,223)" fill-opacity="1" d=" M11.973999977111816,-0.460999995470047 C11.819000244140625,-1.5010000467300415 11.532999992370605,-3.388000011444092 11.168999671936035,-5.690999984741211 C5.681000232696533,-4.458000183105469 -7.156000137329102,-1.5789999961853027 -12.048999786376953,-0.5370000004768372 C-12.048999786376953,-0.5370000004768372 -10.25100040435791,4.896999835968018 -10.25100040435791,4.896999835968018 C-10.083999633789062,5.400000095367432 -9.559000015258789,5.690999984741211 -9.045000076293945,5.565999984741211 C-9.045000076293945,5.565999984741211 11.23799991607666,0.6309999823570251 11.23799991607666,0.6309999823570251 C11.729000091552734,0.5120000243186951 12.048999786376953,0.039000000804662704 11.973999977111816,-0.460999995470047z"></path></g></g><g transform="matrix(1.9956080913543701,-0.13246995210647583,0.13246995210647583,1.9956080913543701,107.90786743164062,54.24674987792969)" opacity="1" style="display: block;"><g opacity="1" transform="matrix(1,0,0,1,29.014999389648438,26.600000381469727)"><path fill="rgb(7,5,6)" fill-opacity="1" d=" M4.173999786376953,19.059999465942383 C4.173999786376953,19.059999465942383 10.5649995803833,25.69300079345703 18.790000915527344,22.82900047302246 C28.764999389648438,19.354999542236328 22.176000595092773,-4.198999881744385 19.58099937438965,-9.36400032043457 C16.98699951171875,-14.529000282287598 14.208999633789062,-19.415000915527344 10.399999618530273,-21.43199920654297 C6.591000080108643,-23.448999404907227 1.3040000200271606,-25.694000244140625 -9.951000213623047,-20.87299919128418 C-21.204999923706055,-16.049999237060547 -20.43400001525879,-9.960000038146973 -17.881999969482422,-5.614999771118164 C-17.881999969482422,-5.614999771118164 -16.743000030517578,-4.093999862670898 -16.743000030517578,-4.093999862670898 C-16.743000030517578,-4.093999862670898 -18.07699966430664,-2.1700000762939453 -18.07699966430664,-2.1700000762939453 C-18.07699966430664,-2.1700000762939453 -28.764999389648438,10.951000213623047 -25.249000549316406,18.13599967956543 C-22.8799991607666,22.97800064086914 -15.751999855041504,23.972000122070312 -11.425000190734863,21.906999588012695 C-9.331999778747559,20.908000946044922 -7.578999996185303,19.240999221801758 -6.71999979019165,17.042999267578125 C-4.081999778747559,10.303000450134277 4.173999786376953,19.059999465942383 4.173999786376953,19.059999465942383z"></path></g><g opacity="1" transform="matrix(1,0,0,1,30.8700008392334,31.395000457763672)"><path fill="rgb(246,158,170)" fill-opacity="1" d=" M14.015999794006348,-18.30900001525879 C15.701000213623047,-17.356000900268555 16.742000579833984,-15.571999549865723 16.85099983215332,-13.638999938964844 C17.170000076293945,-8.027000427246094 17.724000930786133,5.341000080108643 16.115999221801758,10.086999893188477 C14.456000328063965,14.986000061035156 7.946000099182129,15.854000091552734 5.491000175476074,16.006000518798828 C5.491000175476074,16.006000518798828 5.426000118255615,17.23900032043457 5.3420000076293945,17.785999298095703 C5.256999969482422,18.333999633789062 3.377000093460083,21.070999145507812 -3.2809998989105225,18.809999465942383 C-9.939000129699707,16.549999237060547 -10.32800006866455,12.902000427246094 -10.331999778747559,11.836999893188477 C-10.336000442504883,10.770999908447266 -9.838000297546387,6.811999797821045 -10.326000213623047,5.614999771118164 C-10.326000213623047,5.614999771118164 -14.255999565124512,7.474999904632568 -15.989999771118164,4.181000232696533 C-17.724000930786133,0.8859999775886536 -17.334999084472656,-2.3610000610351562 -15.274999618530273,-3.7249999046325684 C-13.21399974822998,-5.089000225067139 -11.597000122070312,-3.940999984741211 -11.104999542236328,-3.13700008392334 C-10.612000465393066,-2.3320000171661377 -8.789999961853027,-1.434999942779541 -8.211999893188477,-3.364000082015991 C-7.633999824523926,-5.291999816894531 -7.89900016784668,-14.470000267028809 -4.586999893188477,-17.770000457763672 C-1.274999976158142,-21.070999145507812 6.947000026702881,-20.586999893188477 9.869999885559082,-19.91200065612793 C11.371000289916992,-19.565000534057617 12.807999610900879,-18.993000030517578 14.015999794006348,-18.30900001525879z"></path></g><g opacity="1" transform="matrix(1,0,0,1,24.76799964904785,20.025999069213867)"><path fill="rgb(7,5,6)" fill-opacity="1" d=" M5.910999774932861,-4.379000186920166 C5.910999774932861,-4.379000186920166 7.0960001945495605,3.2049999237060547 -4.184999942779541,4.379000186920166 C-4.184999942779541,4.379000186920166 -7.0960001945495605,-4.368000030517578 5.910999774932861,-4.379000186920166z"></path></g><g opacity="1" transform="matrix(1,0,0,1,29.28700065612793,14.274999618530273)"><path fill="rgb(238,15,130)" fill-opacity="1" d=" M-18.349000930786133,10.154000282287598 C-18.349000930786133,10.154000282287598 1.3630000352859497,-0.9860000014305115 19.30900001525879,2.9600000381469727 C19.30900001525879,2.9600000381469727 17.985000610351562,-2.625999927520752 17.985000610351562,-2.625999927520752 C17.985000610351562,-2.625999927520752 4.796000003814697,-10.154000282287598 -18.15399932861328,6.710000038146973 C-18.15399932861328,6.710000038146973 -19.30900001525879,9.109000205993652 -18.349000930786133,10.154000282287598z"></path></g><g opacity="1" transform="matrix(1,0,0,1,37.86800003051758,9.91100025177002)"><path fill="rgb(184,2,105)" fill-opacity="1" d=" M10.729000091552734,7.322999954223633 C10.729000091552734,7.322999954223633 13.78600025177002,3.3940000534057617 14.585000038146973,0.12600000202655792 C15.496999740600586,-3.6010000705718994 14.357999801635742,-9.66100025177002 2.4089999198913574,-8.142000198364258 C-8.253999710083008,-6.785999774932861 -14.27299976348877,6.881999969482422 -15.496999740600586,9.66100025177002 C-8.248000144958496,7.267000198364258 1.472000002861023,5.288000106811523 10.729000091552734,7.322999954223633z"></path></g><g opacity="1" transform="matrix(1,0,0,1,19.64900016784668,42.428001403808594)"><path fill="rgb(7,5,6)" fill-opacity="1" d=" M0.8960000276565552,-5.418000221252441 C0.8960000276565552,-5.418000221252441 3.8369998931884766,-4.318999767303467 2.944999933242798,-0.16899999976158142 C2.052000045776367,3.9809999465942383 -0.9020000100135803,5.418000221252441 -0.9020000100135803,5.418000221252441 C-0.9020000100135803,5.418000221252441 -3.8359999656677246,-0.9070000052452087 0.8960000276565552,-5.418000221252441z"></path></g><g opacity="1" transform="matrix(1,0,0,1,38.3380012512207,46.262001037597656)"><path fill="rgb(7,5,6)" fill-opacity="1" d=" M-8.946999549865723,1.7569999694824219 C-5.61899995803833,2.382999897003174 -2.2019999027252197,2.6740000247955322 1.1820000410079956,2.4579999446868896 C4.093999862670898,2.2730000019073486 6.90500020980835,1.6089999675750732 9.229999542236328,-0.2290000021457672 C10.350000381469727,-1.1139999628067017 8.770000457763672,-2.674999952316284 7.660999774932861,-1.7979999780654907 C5.695000171661377,-0.24400000274181366 3.065999984741211,0.16099999845027924 0.6330000162124634,0.2680000066757202 C-2.377000093460083,0.4020000100135803 -5.396999835968018,0.17399999499320984 -8.357000350952148,-0.382999986410141 C-9.753000259399414,-0.6460000276565552 -10.35099983215332,1.4930000305175781 -8.946999549865723,1.7569999694824219z"></path></g><g opacity="1" transform="matrix(1,0,0,1,39.805999755859375,32.10599899291992)"><path fill="rgb(7,5,6)" fill-opacity="1" d=" M0.004999999888241291,0.003000000026077032 C0.004999999888241291,-0.03799999877810478 -0.004999999888241291,-0.0430000014603138 0,0.04399999976158142 C0.0020000000949949026,0.03400000184774399 0.004000000189989805,0.024000000208616257 0.004000000189989805,0.014000000432133675 C0.004999999888241291,0.009999999776482582 0.004999999888241291,0.006000000052154064 0.004999999888241291,0.003000000026077032z"></path></g><g opacity="1" transform="matrix(1,0,0,1,37.71699905395508,30.111000061035156)"><path fill="rgb(7,5,6)" fill-opacity="1" d=" M3.2709999084472656,1.8070000410079956 C3.187000036239624,1.2569999694824219 3.069999933242798,0.7089999914169312 2.947000026702881,0.16699999570846558 C2.686000108718872,-0.9829999804496765 2.365000009536743,-2.117000102996826 2.0989999771118164,-3.2660000324249268 C1.9259999990463257,-4.013000011444092 0.7760000228881836,-3.697000026702881 0.9490000009536743,-2.9489998817443848 C1.2000000476837158,-1.8650000095367432 1.5,-0.7940000295639038 1.753000020980835,0.28999999165534973 C1.815000057220459,0.5569999814033508 1.8739999532699585,0.8259999752044678 1.9299999475479126,1.0959999561309814 C1.9869999885559082,1.378000020980835 2.0829999446868896,1.6890000104904175 2.0969998836517334,1.9780000448226929 C2.0959999561309814,1.9809999465942383 2.0950000286102295,1.9869999885559082 2.0940001010894775,1.996999979019165 C2.0940001010894775,2.000999927520752 2.0929999351501465,2.00600004196167 2.0929999351501465,2.009999990463257 C2.0910000801086426,2.0329999923706055 2.0899999141693115,2.061000108718872 2.0899999141693115,2.068000078201294 C2.0889999866485596,2.052999973297119 2.0899999141693115,2.049999952316284 2.0889999866485596,2.0380001068115234 C2.0880000591278076,2.0450000762939453 2.0880000591278076,2.0510001182556152 2.0869998931884766,2.056999921798706 C2.0759999752044678,2.0989999771118164 2.066999912261963,2.1440000534057617 2.055000066757202,2.186000108718872 C2.0460000038146973,2.2160000801086426 2.0350000858306885,2.243000030517578 2.0250000953674316,2.2730000019073486 C2.0209999084472656,2.2730000019073486 1.9769999980926514,2.374000072479248 1.965999960899353,2.3940000534057617 C1.9520000219345093,2.4189999103546143 1.9359999895095825,2.440999984741211 1.9199999570846558,2.4649999141693115 C1.9160000085830688,2.4700000286102295 1.9170000553131104,2.4679999351501465 1.9119999408721924,2.4749999046325684 C1.9010000228881836,2.4860000610351562 1.8380000591278076,2.5429999828338623 1.8140000104904175,2.565999984741211 C1.7289999723434448,2.628999948501587 1.6380000114440918,2.6559998989105225 1.5199999809265137,2.6649999618530273 C1.3680000305175781,2.677000045776367 1.156999945640564,2.6540000438690186 1.0449999570846558,2.6070001125335693 C1.0160000324249268,2.5940001010894775 0.8489999771118164,2.48799991607666 0.8899999856948853,2.5209999084472656 C0.871999979019165,2.50600004196167 0.7250000238418579,2.3450000286102295 0.781000018119812,2.4189999103546143 C0.7350000143051147,2.3589999675750732 0.699999988079071,2.2909998893737793 0.6650000214576721,2.2249999046325684 C0.6190000176429749,2.1410000324249268 0.6690000295639038,2.2750000953674316 0.6259999871253967,2.130000114440918 C0.5979999899864197,2.0369999408721924 0.5789999961853027,1.9450000524520874 0.5590000152587891,1.8509999513626099 C0.5580000281333923,1.840000033378601 0.5559999942779541,1.8270000219345093 0.5550000071525574,1.8179999589920044 C0.527999997138977,1.0499999523162842 -0.6069999933242798,1.0499999523162842 -0.6370000243186951,1.8179999589920044 C-0.6380000114440918,1.8250000476837158 -0.6389999985694885,1.8370000123977661 -0.6399999856948853,1.8459999561309814 C-0.6579999923706055,1.930999994277954 -0.675000011920929,2.0139999389648438 -0.6990000009536743,2.0980000495910645 C-0.7369999885559082,2.2330000400543213 -0.843999981880188,2.4089999198913574 -0.9700000286102295,2.4619998931884766 C-1.2269999980926514,2.569999933242798 -1.593999981880188,2.5199999809265137 -1.7979999780654907,2.368000030517578 C-1.9759999513626099,2.2360000610351562 -2.0220000743865967,1.9859999418258667 -1.9989999532699585,1.7000000476837158 C-1.9730000495910645,1.378999948501587 -2.2909998893737793,1.1039999723434448 -2.5950000286102295,1.1039999723434448 C-2.938999891281128,1.1039999723434448 -3.1659998893737793,1.378000020980835 -3.190999984741211,1.7000000476837158 C-3.299999952316284,3.059000015258789 -2.072999954223633,3.921999931335449 -0.7960000038146973,3.6500000953674316 C-0.5009999871253967,3.5869998931884766 -0.2540000081062317,3.440999984741211 -0.052000001072883606,3.244999885559082 C0.47600001096725464,3.815999984741211 1.3839999437332153,4.013999938964844 2.1070001125335693,3.743000030517578 C2.7070000171661377,3.5179998874664307 3.11299991607666,2.9779999256134033 3.240000009536743,2.3570001125335693 C3.2790000438690186,2.1649999618530273 3.299999952316284,1.9980000257492065 3.2709999084472656,1.8070000410079956z M-0.6420000195503235,1.8650000095367432 C-0.6480000019073486,1.9040000438690186 -0.652999997138977,1.9229999780654907 -0.6420000195503235,1.8650000095367432z M0.5609999895095825,1.8650000095367432 C0.574999988079071,1.934999942779541 0.5680000185966492,1.909999966621399 0.5609999895095825,1.8650000095367432z"></path></g><g opacity="1" transform="matrix(1,0,0,1,33.720001220703125,39.00600051879883)"><path fill="rgb(7,5,6)" fill-opacity="1" d=" M5.8379998207092285,-1.0099999904632568 C5.841000080108643,-1.2580000162124634 5.551000118255615,-1.562999963760376 5.300000190734863,-1.569000005722046 C4.1620001792907715,-1.593000054359436 3.0199999809265137,-1.7209999561309814 1.8960000276565552,-1.8919999599456787 C-0.24199999868869781,-2.2170000076293945 -2.3980000019073486,-2.74399995803833 -4.289000034332275,-3.8259999752044678 C-4.543000221252441,-3.9709999561309814 -4.86899995803833,-3.8410000801086426 -5.047999858856201,-3.6459999084472656 C-5.2270002365112305,-3.450000047683716 -5.406000137329102,-3.255000114440918 -5.585000038146973,-3.059999942779541 C-5.690000057220459,-2.986999988555908 -5.769999980926514,-2.885999917984009 -5.796999931335449,-2.747999906539917 C-5.841000080108643,-2.614000082015991 -5.815999984741211,-2.4830000400543213 -5.761000156402588,-2.365000009536743 C-5.439000129699707,-0.8889999985694885 -4.770999908447266,0.6660000085830688 -3.687999963760376,1.7289999723434448 C-2.9130001068115234,2.489000082015991 -1.9429999589920044,3.0799999237060547 -0.9160000085830688,3.428999900817871 C0.6570000052452087,3.9639999866485596 2.240999937057495,3.9709999561309814 3.684000015258789,3.065000057220459 C5.085999965667725,2.184999942779541 5.816999912261963,0.609000027179718 5.8379998207092285,-1.0099999904632568z"></path></g><g opacity="1" transform="matrix(1,0,0,1,33.24800109863281,37.624000549316406)"><path fill="rgb(254,254,255)" fill-opacity="1" d=" M-3.815999984741211,-2.4089999198913574 C-4.070000171661377,-2.5510001182556152 -4.396999835968018,-2.4260001182556152 -4.574999809265137,-2.23799991607666 C-4.699999809265137,-2.1050000190734863 -4.824999809265137,-1.972000002861023 -4.949999809265137,-1.840000033378601 C-3.4000000953674316,1.8799999952316284 2.2149999141693115,2.5510001182556152 3.4800000190734863,1.9420000314712524 C4.8420000076293945,1.2860000133514404 4.949999809265137,0.5929999947547913 4.945000171661377,-0.2290000021457672 C4.084000110626221,-0.2849999964237213 3.2219998836517334,-0.375 2.371999979019165,-0.5040000081062317 C0.23399999737739563,-0.8289999961853027 -1.9220000505447388,-1.350000023841858 -3.815999984741211,-2.4089999198913574z"></path></g><g opacity="1" transform="matrix(1,0,0,1,31.78700065612793,41.066001892089844)"><path fill="rgb(249,33,64)" fill-opacity="1" d=" M1.7259999513626099,1.5679999589920044 C1.840000033378601,1.5950000286102295 1.9550000429153442,1.6180000305175781 2.069000005722046,1.6380000114440918 C2.1410000324249268,1.6510000228881836 2.2130000591278076,1.6640000343322754 2.2850000858306885,1.6740000247955322 C2.3989999294281006,1.690000057220459 2.5139999389648438,1.7009999752044678 2.628000020980835,1.7109999656677246 C2.690000057220459,1.715000033378601 2.752000093460083,1.7239999771118164 2.813999891281128,1.7269999980926514 C2.1700000762939453,-1.1089999675750732 -0.7799999713897705,-1.6759999990463257 -2.813999891281128,-1.7269999980926514 C-2.5179998874664307,-1.2120000123977661 -2.1670000553131104,-0.7360000014305115 -1.7549999952316284,-0.3319999873638153 C-0.9810000061988831,0.42800000309944153 -0.009999999776482582,1.0199999809265137 1.0169999599456787,1.36899995803833 C1.1920000314712524,1.4279999732971191 1.3669999837875366,1.4789999723434448 1.5420000553131104,1.524999976158142 C1.6030000448226929,1.5399999618530273 1.6649999618530273,1.5540000200271606 1.7259999513626099,1.5679999589920044z"></path></g><g opacity="1" transform="matrix(1,0,0,1,31.461000442504883,24.799999237060547)"><path fill="rgb(254,254,255)" fill-opacity="1" d=" M-3.4649999141693115,0.7139999866485596 C-3.259999990463257,1.0269999504089355 -2.934000015258789,1.2419999837875366 -2.5880000591278076,1.3739999532699585 C-2.23799991607666,1.503999948501587 -1.8669999837875366,1.5540000200271606 -1.496999979019165,1.593999981880188 C-0.10899999737739563,1.7510000467300415 1.3389999866485596,1.7599999904632568 2.634000062942505,1.2369999885559082 C2.931999921798706,1.1180000305175781 3.2269999980926514,0.9649999737739563 3.4210000038146973,0.7099999785423279 C3.74399995803833,0.2840000092983246 3.696000099182129,-0.34599998593330383 3.3949999809265137,-0.7860000133514404 C3.0959999561309814,-1.2269999980926514 2.5940001010894775,-1.4950000047683716 2.0739998817443848,-1.6169999837875366 C1.555999994277954,-1.7350000143051147 0.24799999594688416,-1.7610000371932983 -0.6489999890327454,-1.684999942779541 C-1.1649999618530273,-1.6200000047683716 -1.6920000314712524,-1.6269999742507935 -2.2049999237060547,-1.5130000114440918 C-2.7130000591278076,-1.3969999551773071 -3.2230000495910645,-1.1410000324249268 -3.490000009536743,-0.6949999928474426 C-3.74399995803833,-0.27000001072883606 -3.7339999675750732,0.2980000078678131 -3.4649999141693115,0.7139999866485596z"></path></g><g opacity="1" transform="matrix(1,0,0,1,43.696998596191406,24.93199920654297)"><path fill="rgb(254,254,255)" fill-opacity="1" d=" M-2.9639999866485596,0.4830000102519989 C-2.7760000228881836,0.7749999761581421 -2.4860000610351562,0.9810000061988831 -2.181999921798706,1.1119999885559082 C-1.8760000467300415,1.2410000562667847 -1.371000051498413,1.4140000343322754 -1.0490000247955322,1.4620000123977661 C0.15600000321865082,1.649999976158142 1.4800000190734863,1.6419999599456787 2.2190001010894775,1.350000023841858 C2.4730000495910645,1.25 2.822000026702881,0.9279999732971191 2.9800000190734863,0.7020000219345093 C3.243000030517578,0.32499998807907104 3.1760001182556152,-0.25099998712539673 2.9000000953674316,-0.6620000004768372 C2.624000072479248,-1.0729999542236328 2.180999994277954,-1.3329999446868896 1.7269999980926514,-1.4600000381469727 C1.274999976158142,-1.5839999914169312 0.14499999582767487,-1.649999976158142 -0.6259999871253967,-1.6100000143051147 C-1.069000005722046,-1.5670000314712524 -1.5240000486373901,-1.590000033378601 -1.9620000123977661,-1.503000020980835 C-2.3959999084472656,-1.4140000343322754 -2.8269999027252197,-1.1990000009536743 -3.0399999618530273,-0.8009999990463257 C-3.243000030517578,-0.421999990940094 -3.2130000591278076,0.09600000083446503 -2.9639999866485596,0.4830000102519989z"></path></g><g opacity="1" transform="matrix(1,0,0,1,30.43899917602539,25.07699966430664)"><path fill="rgb(7,5,6)" fill-opacity="1" d=" M0.5170000195503235,1.2239999771118164 C-1.059000015258789,1.8899999856948853 -2.0959999561309814,-0.5580000281333923 -0.5170000195503235,-1.225000023841858 C1.059000015258789,-1.8899999856948853 2.0959999561309814,0.5569999814033508 0.5170000195503235,1.2239999771118164z"></path></g><g opacity="1" transform="matrix(1,0,0,1,42.770999908447266,25.139999389648438)"><path fill="rgb(7,5,6)" fill-opacity="1" d=" M0.48399999737739563,1.1469999551773071 C-0.9919999837875366,1.7699999809265137 -1.9630000591278076,-0.5220000147819519 -0.48500001430511475,-1.1460000276565552 C0.9919999837875366,-1.7699999809265137 1.9630000591278076,0.5220000147819519 0.48399999737739563,1.1469999551773071z"></path></g><g opacity="1" transform="matrix(1,0,0,1,18.339000701904297,32.654998779296875)"><path fill="rgb(7,5,6)" fill-opacity="1" d=" M-1.3420000076293945,-1.2359999418258667 C-1.253999948501587,-1.2130000591278076 -1.1699999570846558,-1.1799999475479126 -1.0829999446868896,-1.152999997138977 C-1.218999981880188,-1.1950000524520874 -1.0920000076293945,-1.156000018119812 -1.0609999895095825,-1.1410000324249268 C-1.0210000276565552,-1.121000051498413 -0.9810000061988831,-1.1019999980926514 -0.9419999718666077,-1.0800000429153442 C-0.8700000047683716,-1.0390000343322754 -0.8019999861717224,-0.9929999709129333 -0.734000027179718,-0.9470000267028809 C-0.6259999871253967,-0.8740000128746033 -0.7429999709129333,-0.9629999995231628 -0.7129999995231628,-0.9319999814033508 C-0.6859999895095825,-0.906000018119812 -0.6549999713897705,-0.8840000033378601 -0.628000020980835,-0.859000027179718 C-0.5609999895095825,-0.7990000247955322 -0.4970000088214874,-0.7350000143051147 -0.43700000643730164,-0.6690000295639038 C-0.40700000524520874,-0.6349999904632568 -0.3779999911785126,-0.6000000238418579 -0.3490000069141388,-0.5659999847412109 C-0.25200000405311584,-0.45100000500679016 -0.41600000858306885,-0.6679999828338623 -0.3330000042915344,-0.5429999828338623 C-0.23499999940395355,-0.3970000147819519 -0.14800000190734863,-0.25 -0.07100000232458115,-0.09200000017881393 C-0.04100000113248825,-0.028999999165534973 -0.04100000113248825,-0.017000000923871994 -0.06800000369548798,-0.08900000154972076 C-0.052000001072883606,-0.04600000008940697 -0.03500000014901161,-0.004000000189989805 -0.020999999716877937,0.039000000804662704 C0.008999999612569809,0.125 0.03400000184774399,0.21199999749660492 0.0560000017285347,0.30000001192092896 C0.06700000166893005,0.3440000116825104 0.07599999755620956,0.3880000114440918 0.08399999886751175,0.4320000112056732 C0.09200000017881393,0.4690000116825104 0.1080000028014183,0.609000027179718 0.09099999815225601,0.4519999921321869 C0.10000000149011612,0.5350000262260437 0.10700000077486038,0.6159999966621399 0.10899999737739563,0.6990000009536743 C0.1120000034570694,0.781000018119812 0.10999999940395355,0.8629999756813049 0.10400000214576721,0.9449999928474426 C0.0989999994635582,1.0169999599456787 0.09000000357627869,1.062999963760376 0.10599999874830246,0.9649999737739563 C0.09799999743700027,1.0089999437332153 0.09200000017881393,1.0529999732971191 0.0820000022649765,1.097000002861023 C0.06400000303983688,1.184000015258789 0.04100000113248825,1.2710000276565552 0.012000000104308128,1.3559999465942383 C0,1.3919999599456787 -0.014999999664723873,1.4270000457763672 -0.027000000700354576,1.4620000123977661 C-0.0430000014603138,1.503000020980835 -0.03799999877810478,1.4900000095367432 -0.010999999940395355,1.4240000247955322 C-0.024000000208616257,1.4520000219345093 -0.03700000047683716,1.4789999723434448 -0.05000000074505806,1.50600004196167 C-0.1889999955892563,1.784999966621399 -0.1340000033378601,2.1640000343322754 0.16300000250339508,2.322000026702881 C0.43299999833106995,2.4639999866485596 0.8309999704360962,2.4059998989105225 0.9789999723434448,2.1080000400543213 C1.8289999961853027,0.3959999978542328 0.8510000109672546,-1.8969999551773071 -1.024999976158142,-2.385999917984009 C-1.3259999752044678,-2.4649999141693115 -1.6859999895095825,-2.2850000858306885 -1.7589999437332153,-1.968000054359436 C-1.8289999961853027,-1.656999945640564 -1.6649999618530273,-1.3200000524520874 -1.3420000076293945,-1.2359999418258667z"></path></g><g opacity="1" transform="matrix(1,0,0,1,31.066999435424805,19.767000198364258)"><path fill="rgb(7,5,6)" fill-opacity="1" d=" M-1.6829999685287476,1.1619999408721924 C-1.6369999647140503,1.1399999856948853 -1.590999960899353,1.11899995803833 -1.5440000295639038,1.0980000495910645 C-1.434999942779541,1.0490000247955322 -1.4520000219345093,1.055999994277954 -1.593999981880188,1.1180000305175781 C-1.5420000553131104,1.0759999752044678 -1.444000005722046,1.059000015258789 -1.378999948501587,1.0369999408721924 C-1.2109999656677246,0.9769999980926514 -1.0399999618530273,0.9269999861717224 -0.8669999837875366,0.8849999904632568 C-0.7680000066757202,0.8610000014305115 -0.6679999828338623,0.8399999737739563 -0.5680000185966492,0.8220000267028809 C-0.5180000066757202,0.8119999766349792 -0.46799999475479126,0.8040000200271606 -0.4169999957084656,0.7960000038146973 C-0.46299999952316284,0.8019999861717224 -0.5099999904632568,0.8069999814033508 -0.5559999942779541,0.8130000233650208 C-0.3959999978542328,0.753000020980835 -0.15299999713897705,0.7739999890327454 0.01600000075995922,0.7699999809265137 C0.1940000057220459,0.765999972820282 0.37299999594688416,0.7720000147819519 0.550000011920929,0.7860000133514404 C0.628000020980835,0.7910000085830688 0.7459999918937683,0.7820000052452087 0.8169999718666077,0.8119999766349792 C0.652999997138977,0.7889999747276306 0.6330000162124634,0.7870000004768372 0.7540000081062317,0.8050000071525574 C0.7919999957084656,0.8109999895095825 0.8289999961853027,0.8190000057220459 0.8669999837875366,0.8259999752044678 C1.0420000553131104,0.859000027179718 1.215000033378601,0.9010000228881836 1.3860000371932983,0.9509999752044678 C1.472000002861023,0.9760000109672546 1.5570000410079956,1.003999948501587 1.6410000324249268,1.0329999923706055 C1.6990000009536743,1.0540000200271606 2.0239999294281006,1.1859999895095825 1.7359999418258667,1.062999963760376 C2.0169999599456787,1.1829999685287476 2.2679998874664307,1.2580000162124634 2.575000047683716,1.1729999780654907 C2.828000068664551,1.1030000448226929 3.1010000705718994,0.9079999923706055 3.2260000705718994,0.6729999780654907 C3.4730000495910645,0.20499999821186066 3.3940000534057617,-0.5770000219345093 2.8350000381469727,-0.8159999847412109 C1.937000036239624,-1.2009999752044678 1,-1.4279999732971191 0.01600000075995922,-1.406000018119812 C-0.9649999737739563,-1.3849999904632568 -1.899999976158142,-1.1410000324249268 -2.7820000648498535,-0.7170000076293945 C-3.2960000038146973,-0.4690000116825104 -3.4730000495910645,0.3050000071525574 -3.171999931335449,0.7710000276565552 C-2.8310000896453857,1.2999999523162842 -2.2330000400543213,1.4270000457763672 -1.6829999685287476,1.1619999408721924z"></path></g><g opacity="1" transform="matrix(1,0,0,1,43.43199920654297,20.059999465942383)"><path fill="rgb(7,5,6)" fill-opacity="1" d=" M-1.6390000581741333,0.8009999990463257 C-1.6139999628067017,0.777999997138977 -1.5379999876022339,0.7319999933242798 -1.5269999504089355,0.7020000219345093 C-1.5440000295639038,0.7490000128746033 -1.6970000267028809,0.8180000185966492 -1.565999984741211,0.7400000095367432 C-1.468999981880188,0.6819999814033508 -1.371000051498413,0.6299999952316284 -1.2730000019073486,0.5759999752044678 C-1.1490000486373901,0.5080000162124634 -1.4600000381469727,0.6370000243186951 -1.3240000009536743,0.5979999899864197 C-1.274999976158142,0.5849999785423279 -1.2280000448226929,0.5649999976158142 -1.1799999475479126,0.550000011920929 C-1.0809999704360962,0.5199999809265137 -0.9819999933242798,0.4950000047683716 -0.8820000290870667,0.4749999940395355 C-0.8479999899864197,0.46799999475479126 -0.675000011920929,0.44699999690055847 -0.8360000252723694,0.46299999952316284 C-1.0140000581741333,0.4790000021457672 -0.7860000133514404,0.45899999141693115 -0.7490000128746033,0.4569999873638153 C-0.6449999809265137,0.4490000009536743 -0.5410000085830688,0.44600000977516174 -0.43700000643730164,0.44699999690055847 C-0.34599998593330383,0.44699999690055847 -0.2529999911785126,0.45100000500679016 -0.16099999845027924,0.4569999873638153 C-0.11500000208616257,0.46000000834465027 -0.0689999982714653,0.46399998664855957 -0.023000000044703484,0.46799999475479126 C0.017999999225139618,0.47200000286102295 0.2280000001192093,0.4959999918937683 0.041999999433755875,0.4729999899864197 C-0.13099999725818634,0.4519999921321869 0.03400000184774399,0.4740000069141388 0.07000000029802322,0.48100000619888306 C0.11599999666213989,0.48899999260902405 0.16200000047683716,0.4970000088214874 0.20800000429153442,0.5070000290870667 C0.29899999499320984,0.5260000228881836 0.3889999985694885,0.5479999780654907 0.4790000021457672,0.5730000138282776 C0.5680000185966492,0.5979999899864197 0.6549999713897705,0.6259999871253967 0.7419999837875366,0.6570000052452087 C0.9020000100135803,0.7149999737739563 0.7850000262260437,0.6890000104904175 0.7039999961853027,0.6359999775886536 C0.7400000095367432,0.6600000262260437 0.7870000004768372,0.675000011920929 0.8270000219345093,0.6940000057220459 C0.9070000052452087,0.734000027179718 0.9860000014305115,0.7770000100135803 1.062000036239624,0.8240000009536743 C1.0989999771118164,0.8479999899864197 1.1360000371932983,0.8730000257492065 1.1740000247955322,0.8970000147819519 C1.3070000410079956,0.9829999804496765 1.1180000305175781,0.8769999742507935 1.1119999885559082,0.8460000157356262 C1.121000051498413,0.8939999938011169 1.284999966621399,1.003000020980835 1.3270000219345093,1.0479999780654907 C1.3530000448226929,1.0750000476837158 1.4450000524520874,1.1959999799728394 1.3489999771118164,1.062000036239624 C1.2400000095367432,0.9100000262260437 1.3680000305175781,1.093000054359436 1.38100004196167,1.1119999885559082 C1.6970000267028809,1.5839999914169312 2.3540000915527344,1.8350000381469727 2.869999885559082,1.503000020980835 C3.3399999141693115,1.1990000009536743 3.5999999046325684,0.5189999938011169 3.259999990463257,0.013000000268220901 C2.5859999656677246,-0.9909999966621399 1.50600004196167,-1.5080000162124634 0.3310000002384186,-1.6649999618530273 C-0.9279999732971191,-1.8350000381469727 -2.2139999866485596,-1.61899995803833 -3.177999973297119,-0.7390000224113464 C-3.5999999046325684,-0.3529999852180481 -3.5980000495910645,0.41499999165534973 -3.177999973297119,0.8009999990463257 C-2.7269999980926514,1.215000033378601 -2.0889999866485596,1.2120000123977661 -1.6390000581741333,0.8009999990463257z"></path></g><g opacity="1" transform="matrix(1,0,0,1,33.277000427246094,35.91299819946289)"><path fill="rgb(7,5,6)" fill-opacity="1" d=" M6.813000202178955,0.9020000100135803 C5.119999885559082,1.6200000047683716 3.0910000801086426,1.375 1.3450000286102295,0.9900000095367432 C-0.3319999873638153,0.6200000047683716 -1.9759999513626099,0.03200000151991844 -3.4830000400543213,-0.7929999828338623 C-3.2290000915527344,-1.1369999647140503 -3.0309998989105225,-1.5210000276565552 -2.936000108718872,-1.9429999589920044 C-2.868000030517578,-2.246000051498413 -3.0280001163482666,-2.6019999980926514 -3.3519999980926514,-2.677000045776367 C-3.6549999713897705,-2.744999885559082 -4.013000011444092,-2.5850000381469727 -4.085999965667725,-2.259999990463257 C-4.105000019073486,-2.1740000247955322 -4.126999855041504,-2.0889999866485596 -4.1539998054504395,-2.00600004196167 C-4.168000221252441,-1.965000033378601 -4.183000087738037,-1.9240000247955322 -4.198999881744385,-1.8830000162124634 C-4.203000068664551,-1.8730000257492065 -4.208000183105469,-1.8619999885559082 -4.214000225067139,-1.850000023841858 C-4.255000114440918,-1.7719999551773071 -4.294000148773193,-1.694000005722046 -4.340000152587891,-1.61899995803833 C-4.366000175476074,-1.5770000219345093 -4.394000053405762,-1.5369999408721924 -4.420000076293945,-1.496000051498413 C-4.426000118255615,-1.4869999885559082 -4.433000087738037,-1.4780000448226929 -4.439000129699707,-1.468999981880188 C-4.541999816894531,-1.3380000591278076 -4.663000106811523,-1.2200000286102295 -4.790999889373779,-1.1119999885559082 C-4.808000087738037,-1.0980000495910645 -4.835000038146973,-1.0759999752044678 -4.8429999351501465,-1.0709999799728394 C-4.882999897003174,-1.0429999828338623 -4.922999858856201,-1.0149999856948853 -4.965000152587891,-0.9900000095367432 C-5.041999816894531,-0.9419999718666077 -5.123000144958496,-0.8989999890327454 -5.205999851226807,-0.8619999885559082 C-5.223999977111816,-0.8539999723434448 -5.317999839782715,-0.8190000057220459 -5.400000095367432,-0.7950000166893005 C-5.49399995803833,-0.7670000195503235 -5.589000225067139,-0.7450000047683716 -5.685999870300293,-0.7279999852180481 C-5.699999809265137,-0.7260000109672546 -5.698999881744385,-0.7250000238418579 -5.703999996185303,-0.7239999771118164 C-5.710000038146973,-0.7239999771118164 -5.709000110626221,-0.7239999771118164 -5.7220001220703125,-0.7229999899864197 C-5.776000022888184,-0.7179999947547913 -5.830999851226807,-0.7139999866485596 -5.885000228881836,-0.7129999995231628 C-5.982999801635742,-0.7089999914169312 -6.081999778747559,-0.7120000123977661 -6.178999900817871,-0.7200000286102295 C-6.453000068664551,-0.7419999837875366 -6.8429999351501465,-0.8690000176429749 -7.046000003814697,-1.0729999542236328 C-7.2729997634887695,-1.3020000457763672 -7.6620001792907715,-1.2999999523162842 -7.888999938964844,-1.0729999542236328 C-8.119000434875488,-0.843999981880188 -8.116999626159668,-0.45899999141693115 -7.888999938964844,-0.23000000417232513 C-7.104000091552734,0.5619999766349792 -5.751999855041504,0.652999997138977 -4.764999866485596,0.23800000548362732 C-4.635000228881836,0.18400000035762787 -4.519999980926514,0.10199999809265137 -4.39900016784668,0.029999999329447746 C-4.360000133514404,0.07000000029802322 -4.323999881744385,0.1120000034570694 -4.26800012588501,0.14399999380111694 C-2.5250000953674316,1.128000020980835 -0.5820000171661377,1.8229999542236328 1.378999948501587,2.2139999866485596 C3.384000062942505,2.611999988555908 5.498000144958496,2.744999885559082 7.414999961853027,1.9329999685287476 C8.119000434875488,1.6339999437332153 7.51200008392334,0.6060000061988831 6.813000202178955,0.9020000100135803z"></path></g></g><g transform="matrix(1,0,0,1,235,313)" opacity="1" style="display: block;"><g opacity="1" transform="matrix(1,0,0,1,0,0)"><path stroke-linecap="butt" stroke-linejoin="miter" fill-opacity="0" stroke-miterlimit="4" stroke="rgb(24,56,17)" stroke-opacity="1" stroke-width="9" d="M0 0"></path></g></g></g></svg>