<svg xmlns="http://www.w3.org/2000/svg" viewBox="0 0 470 626" width="470" height="626" preserveAspectRatio="xMidYMid meet" style="width: 100%; height: 100%; transform: translate3d(0px, 0px, 0px);"><defs><clipPath id="__lottie_element_49"><rect width="470" height="626" x="0" y="0"></rect></clipPath></defs><g clip-path="url(#__lottie_element_49)"><g class="Motaman" transform="matrix(2,0,0,2,114,132.5)" opacity="1" style="display: block;"><g opacity="1" transform="matrix(1,0,0,1,52.99399948120117,35.86199951171875)"><path fill="rgb(230,229,224)" fill-opacity="1" d=" M22.743000030517578,-35.61199951171875 C22.743000030517578,-35.61199951171875 11.067000389099121,-33.854000091552734 -1.2209999561309814,-21.301000595092773 C-9.192999839782715,-13.156999588012695 -14.644000053405762,-0.9980000257492065 -17.084999084472656,2.3299999237060547 C-19.525999069213867,5.658999919891357 -22.743000030517578,9.430000305175781 -22.743000030517578,9.430000305175781 C-22.743000030517578,9.430000305175781 -10.760000228881836,35.61199951171875 -10.760000228881836,35.61199951171875 C-10.760000228881836,35.61199951171875 -1.1089999675750732,30.509000778198242 5.326000213623047,23.076000213623047 C11.760000228881836,15.642999649047852 22.743000030517578,-35.61199951171875 22.743000030517578,-35.61199951171875z"></path></g><g opacity="1" transform="matrix(1,0,0,1,33.26900100708008,60.09299850463867)"><path fill="rgb(151,145,137)" fill-opacity="1" d=" M-8.524999618530273,-11.489999771118164 C-8.524999618530273,-11.489999771118164 -3.8480000495910645,-15.220000267028809 -3.8480000495910645,-15.220000267028809 C-3.4709999561309814,-15.437999725341797 -2.994999885559082,-15.371999740600586 -2.694999933242798,-15.057000160217285 C-1.3380000591278076,-13.628999710083008 2.1040000915527344,-9.552000045776367 4.7820000648498535,-4.664000034332275 C7.670000076293945,0.6060000061988831 9.031999588012695,8.07800006866455 9.35099983215332,10.984999656677246 C9.430000305175781,11.704999923706055 8.996000289916992,12.381999969482422 8.307999610900879,12.609000205993652 C8.307999610900879,12.609000205993652 0.49300000071525574,15.184000015258789 0.49300000071525574,15.184000015258789 C-0.27900001406669617,15.437999725341797 -1.1230000257492065,15.121000289916992 -1.5329999923706055,14.420000076293945 C-2.930999994277954,12.031000137329102 -6.005000114440918,6.355999946594238 -7.5960001945495605,0.19900000095367432 C-9.095000267028809,-5.605999946594238 -9.260000228881836,-8.25100040435791 -9.380000114440918,-9.878999710083008 C-9.428999900817871,-10.53499984741211 -9.093999862670898,-11.15999984741211 -8.524999618530273,-11.489999771118164z"></path></g><g opacity="1" transform="matrix(1,0,0,1,16.951000213623047,63.10499954223633)"><path fill="rgb(246,158,170)" fill-opacity="1" d=" M16.270999908447266,10.28499984741211 C16.270999908447266,10.28499984741211 10.654999732971191,12.569000244140625 2.3010001182556152,11.444999694824219 C-8.482999801635742,9.994000434875488 -16.701000213623047,-0.09000000357627869 -16.701000213623047,-0.09000000357627869 C-16.701000213623047,-0.09000000357627869 -14.218999862670898,-10.673999786376953 -14.218999862670898,-10.673999786376953 C-14.218999862670898,-10.673999786376953 -5.2129998207092285,-8.180999755859375 -0.7250000238418579,-8.835000038146973 C5.906000137329102,-9.800999641418457 8.868000030517578,-12.567999839782715 8.868000030517578,-12.567999839782715 C8.868000030517578,-12.567999839782715 12.538999557495117,-8.342000007629395 14.789999961853027,-1.8179999589920044 C16.701000213623047,3.7190001010894775 16.270999908447266,10.28499984741211 16.270999908447266,10.28499984741211z"></path></g></g><g class="Motaman" transform="matrix(2,0,0,2,170,117)" opacity="1" style="display: block;"><g opacity="1" transform="matrix(1,0,0,1,58.06999969482422,228.90699768066406)"><path fill="rgb(234,232,228)" fill-opacity="1" d=" M57.81999969482422,-0.0010000000474974513 C57.81999969482422,10.35099983215332 31.933000564575195,18.742000579833984 0.0010000000474974513,18.742000579833984 C-31.93199920654297,18.742000579833984 -57.81999969482422,10.35099983215332 -57.81999969482422,-0.0010000000474974513 C-57.81999969482422,-10.35200023651123 -31.93199920654297,-18.742000579833984 0.0010000000474974513,-18.742000579833984 C31.933000564575195,-18.742000579833984 57.81999969482422,-10.35200023651123 57.81999969482422,-0.0010000000474974513z"></path></g><g opacity="1" transform="matrix(1,0,0,1,88.86399841308594,225.4499969482422)"><path fill="rgb(39,32,33)" fill-opacity="1" d=" M-9.928999900817871,-10.63700008392334 C-9.928999900817871,-10.63700008392334 -9.85200023651123,0.8560000061988831 -9.85200023651123,0.8560000061988831 C-9.87399959564209,2.0859999656677246 -9.57800006866455,3.305000066757202 -8.963000297546387,4.369999885559082 C-8.116000175476074,5.836999893188477 -5.693999767303467,8.048999786376953 -2.7850000858306885,8.965999603271484 C3.6530001163482666,10.996999740600586 6.810999870300293,9.180000305175781 8.487000465393066,8.28600025177002 C9.076000213623047,7.9710001945495605 9.47700023651123,7.394999980926514 9.5649995803833,6.732999801635742 C9.767000198364258,5.211999893188477 9.928999900817871,2.25600004196167 8.517999649047852,0.546999990940094 C6.557000160217285,-1.8259999752044678 3.2160000801086426,-3.2839999198913574 2.996999979019165,-4.685999870300293 C2.7780001163482666,-6.086999893188477 3.3919999599456787,-10.996999740600586 3.3919999599456787,-10.996999740600586 C3.3919999599456787,-10.996999740600586 -9.928999900817871,-10.63700008392334 -9.928999900817871,-10.63700008392334z"></path></g><g opacity="1" transform="matrix(1,0,0,1,85.58499908447266,217.66299438476562)"><path fill="rgb(7,5,6)" fill-opacity="1" d=" M6.307000160217285,3.2100000381469727 C6.296999931335449,3.1740000247955322 6.2820000648498535,3.13700008392334 6.276000022888184,3.1010000705718994 C6.086999893188477,1.8969999551773071 6.513999938964844,-1.8930000066757202 6.638999938964844,-2.937999963760376 C6.638999938964844,-2.937999963760376 6.638999938964844,-2.938999891281128 6.638999938964844,-2.938999891281128 C6.638000011444092,-3.0309998989105225 6.63700008392334,-3.121000051498413 6.636000156402588,-3.2100000381469727 C6.636000156402588,-3.2100000381469727 1.2990000247955322,-3.065000057220459 1.2990000247955322,-3.065000057220459 C1.2990000247955322,-3.065000057220459 -0.4169999957084656,-3.0190000534057617 -0.4169999957084656,-3.0190000534057617 C-0.4169999957084656,-3.0190000534057617 -6.638999938964844,-1.1729999780654907 -6.638999938964844,-1.1729999780654907 C-6.638999938964844,-1.1729999780654907 -6.63100004196167,0.03400000184774399 -6.63100004196167,0.03400000184774399 C-4.90500020980835,0.8659999966621399 -2.252000093460083,1.8250000476837158 0.2720000147819519,2.23799991607666 C2.5480000972747803,2.611999988555908 5.235000133514404,3.1429998874664307 6.307000160217285,3.2100000381469727z"></path></g><g opacity="1" transform="matrix(1,0,0,1,28.06800079345703,225.17300415039062)"><path fill="rgb(39,32,33)" fill-opacity="1" d=" M-1.4630000591278076,-9.89799976348877 C-1.4630000591278076,-9.89799976348877 -1.1059999465942383,-5.322000026702881 -2.7179999351501465,-3.9670000076293945 C-4.328999996185303,-2.611999988555908 -8.038000106811523,-2.871000051498413 -10.765000343322754,-0.40700000524520874 C-12.510000228881836,1.1699999570846558 -12.58899974822998,4.831999778747559 -12.496999740600586,6.758999824523926 C-12.458999633789062,7.552000045776367 -11.935999870300293,8.234999656677246 -11.187999725341797,8.496000289916992 C-9.506999969482422,9.081000328063965 -6.1570000648498535,9.89799976348877 -1.6200000047683716,9.288999557495117 C3.436000108718872,8.612000465393066 8.720999717712402,4.945000171661377 10.619000434875488,3.5160000324249268 C11.086999893188477,3.1649999618530273 11.385000228881836,2.632999897003174 11.446000099182129,2.0510001182556152 C11.446000099182129,2.0510001182556152 12.58899974822998,-8.86299991607666 12.58899974822998,-8.86299991607666 C12.58899974822998,-8.86299991607666 -1.4630000591278076,-9.89799976348877 -1.4630000591278076,-9.89799976348877z"></path></g><g opacity="1" transform="matrix(1,0,0,1,33.604000091552734,218.79400634765625)"><path fill="rgb(7,5,6)" fill-opacity="1" d=" M6.953999996185303,-1.5369999408721924 C6.9770002365112305,-1.9040000438690186 6.997000217437744,-2.2300000190734863 7.013000011444092,-2.4860000610351562 C7.013000011444092,-2.4860000610351562 5.136000156402588,-2.624000072479248 5.136000156402588,-2.624000072479248 C5.136000156402588,-2.624000072479248 3.4149999618530273,-2.750999927520752 3.4149999618530273,-2.750999927520752 C3.4149999618530273,-2.750999927520752 -6.97599983215332,-1.8509999513626099 -6.97599983215332,-1.8509999513626099 C-6.97599983215332,-1.8509999513626099 -6.97599983215332,-1.850000023841858 -6.97599983215332,-1.850000023841858 C-6.982999801635742,-1.6380000114440918 -6.994999885559082,-1.4129999876022339 -7.013000011444092,-1.1829999685287476 C-7.013000011444092,-1.1829999685287476 -7.013000011444092,-1.180999994277954 -7.013000011444092,-1.180999994277954 C-6.058000087738037,-0.35899999737739563 -3.734999895095825,0.8299999833106995 -1.2269999980926514,1.430999994277954 C1.6059999465942383,2.1089999675750732 5.0370001792907715,2.6459999084472656 6.505000114440918,2.750999927520752 C6.505000114440918,2.750999927520752 6.953999996185303,-1.5369999408721924 6.953999996185303,-1.5369999408721924z"></path></g><g opacity="1" transform="matrix(1,0,0,1,77.11299896240234,109.56300354003906)"><path fill="rgb(230,229,224)" fill-opacity="1" d=" M31.41900062561035,-96.66200256347656 C43.51599884033203,-86.27100372314453 50.17300033569336,-72.68099975585938 52.43899917602539,-65.65599822998047 C54.70500183105469,-58.630001068115234 54.0880012512207,-44.81700134277344 51.665000915527344,-39.53799819946289 C47.43899917602539,-30.329999923706055 38.821998596191406,-26.496999740600586 38.821998596191406,-26.496999740600586 C38.821998596191406,-26.496999740600586 37.441001892089844,-12.90999984741211 37.441001892089844,-12.90999984741211 C37.441001892089844,-12.90999984741211 39.30500030517578,-13.119999885559082 38.64099884033203,-7.409999847412109 C38.10300064086914,-2.7850000858306885 37.244998931884766,-2.9179999828338623 37.244998931884766,-2.9179999828338623 C37.244998931884766,-2.9179999828338623 17.37700080871582,107.1709976196289 17.37700080871582,107.1709976196289 C17.37700080871582,107.1709976196289 13.454000473022461,108.4800033569336 8.588000297546387,108.4800033569336 C3.9140000343322754,108.4800033569336 -0.013000000268220901,106.98400115966797 -0.013000000268220901,106.98400115966797 C-0.013000000268220901,106.98400115966797 -3.259000062942505,77.62899780273438 -4.500999927520752,68.46399688720703 C-5.833000183105469,58.643001556396484 -10.788000106811523,31.506000518798828 -10.788000106811523,31.506000518798828 C-10.788000106811523,31.506000518798828 -13.913000106811523,30.95599937438965 -13.913000106811523,30.95599937438965 C-13.913000106811523,30.95599937438965 -19.22100067138672,51.28900146484375 -22.327999114990234,62.222999572753906 C-25.606000900268555,73.75700378417969 -34.14899826049805,108.85900115966797 -34.14899826049805,108.85900115966797 C-34.14899826049805,108.85900115966797 -40.58599853515625,109.31300354003906 -45.37099838256836,108.93900299072266 C-51.24800109863281,108.48100280761719 -53.946998596191406,107.11499786376953 -53.946998596191406,107.11499786376953 C-53.946998596191406,107.11499786376953 -51.87300109863281,63.117000579833984 -50.22200012207031,44.28799819946289 C-48.45399856567383,24.136999130249023 -45.27799987792969,2.318000078201294 -45.27799987792969,2.318000078201294 C-45.27799987792969,2.318000078201294 -47.10900115966797,1.6460000276565552 -47.597999572753906,-3.3570001125335693 C-48.08700180053711,-8.354000091552734 -46.91999816894531,-7.697999954223633 -46.91999816894531,-7.697999954223633 C-46.91999816894531,-7.697999954223633 -52.09400177001953,-12.791000366210938 -53.43000030517578,-24.516000747680664 C-54.70500183105469,-35.69599914550781 -49.64899826049805,-74.43399810791016 -35.73500061035156,-96.2979965209961 C-33.119998931884766,-100.40799713134766 -28.10099983215332,-105.41999816894531 -18.886999130249023,-106.89199829101562 C-3.749000072479248,-109.31199645996094 19.090999603271484,-107.2509994506836 31.41900062561035,-96.66200256347656z"></path></g><g opacity="1" transform="matrix(1,0,0,1,56.8489990234375,15.593000411987305)"><path fill="rgb(151,145,137)" fill-opacity="1" d=" M-6.566999912261963,-10.902999877929688 C-6.566999912261963,-10.902999877929688 8.673999786376953,-13.760000228881836 8.649999618530273,-13.354999542236328 C8.62399959564209,-12.949000358581543 7.006999969482422,8.803000450134277 7.006999969482422,8.803000450134277 C7.006999969482422,8.803000450134277 2.0380001068115234,13.760000228881836 -2.563999891281128,12.145999908447266 C-8.673999786376953,10.003999710083008 -6.566999912261963,-10.902999877929688 -6.566999912261963,-10.902999877929688z"></path></g><g opacity="1" transform="matrix(1,0,0,1,108.58000183105469,79.31999969482422)"><path fill="rgb(7,5,6)" fill-opacity="1" d=" M9.727999687194824,-2.811000108718872 C9.727999687194824,-2.811000108718872 7.065999984741211,-8.027999877929688 7.065999984741211,-8.027999877929688 C7.065999984741211,-8.027999877929688 -9.727999687194824,1.5809999704360962 -9.727999687194824,1.5809999704360962 C-9.727999687194824,1.5809999704360962 -1.3940000534057617,6.833000183105469 6.919000148773193,8.027999877929688 C6.919000148773193,8.027999877929688 7.355000019073486,3.746999979019165 7.355000019073486,3.746999979019165 C7.355000019073486,3.746999979019165 5.460000038146973,2.385999917984009 9.727999687194824,-2.811000108718872z"></path></g><g opacity="1" transform="matrix(1,0,0,1,79.62000274658203,15.527999877929688)"><path fill="rgb(151,145,137)" fill-opacity="1" d=" M7.605999946594238,-14.232000350952148 C7.605999946594238,-14.232000350952148 8.930999755859375,-10.28600025177002 9,-4.906000137329102 C9.085000038146973,1.9170000553131104 6.771999835968018,11.878999710083008 1.4850000143051147,13.180000305175781 C-5.355000019073486,14.861000061035156 -9.085000038146973,9.114999771118164 -9.085000038146973,9.114999771118164 C-9.085000038146973,9.114999771118164 5.138000011444092,-14.861000061035156 5.138000011444092,-14.861000061035156 C5.138000011444092,-14.861000061035156 7.605999946594238,-14.232000350952148 7.605999946594238,-14.232000350952148z"></path></g><g opacity="1" transform="matrix(1,0,0,1,68.53500366210938,39.7400016784668)"><path fill="rgb(7,5,6)" fill-opacity="1" d=" M1.1150000095367432,1.2120000123977661 C1.1469999551773071,1.1799999475479126 1.1790000200271606,1.1469999551773071 1.2120000123977661,1.1150000095367432 C1.371999979019165,0.9660000205039978 1.4850000143051147,0.7900000214576721 1.5520000457763672,0.5860000252723694 C1.6549999713897705,0.38999998569488525 1.7020000219345093,0.17800000309944153 1.6929999589920044,-0.04800000041723251 C1.7020000219345093,-0.27399998903274536 1.6549999713897705,-0.4860000014305115 1.5520000457763672,-0.6819999814033508 C1.4850000143051147,-0.8859999775886536 1.371999979019165,-1.062000036239624 1.2120000123977661,-1.2109999656677246 C1.100000023841858,-1.2970000505447388 0.9900000095367432,-1.3830000162124634 0.8790000081062317,-1.468000054359436 C0.621999979019165,-1.6169999837875366 0.3440000116825104,-1.6920000314712524 0.04800000041723251,-1.6929999589920044 C-0.09799999743700027,-1.6729999780654907 -0.24400000274181366,-1.6540000438690186 -0.38999998569488525,-1.6339999437332153 C-0.6679999828338623,-1.555999994277954 -0.9100000262260437,-1.4149999618530273 -1.1150000095367432,-1.2109999656677246 C-1.1480000019073486,-1.1790000200271606 -1.1799999475479126,-1.1460000276565552 -1.2120000123977661,-1.1139999628067017 C-1.3730000257492065,-0.9649999737739563 -1.4869999885559082,-0.7889999747276306 -1.5529999732971191,-0.5849999785423279 C-1.656000018119812,-0.3889999985694885 -1.7020000219345093,-0.17800000309944153 -1.6950000524520874,0.04899999871850014 C-1.7020000219345093,0.2750000059604645 -1.656000018119812,0.4860000014305115 -1.5529999732971191,0.6830000281333923 C-1.4869999885559082,0.8859999775886536 -1.3730000257492065,1.062999963760376 -1.2120000123977661,1.2120000123977661 C-1.1019999980926514,1.2970000505447388 -0.9900000095367432,1.3830000162124634 -0.8790000081062317,1.468999981880188 C-0.6230000257492065,1.6180000305175781 -0.34599998593330383,1.6920000314712524 -0.04899999871850014,1.6929999589920044 C-0.04899999871850014,1.6929999589920044 0.3880000114440918,1.6349999904632568 0.3880000114440918,1.6349999904632568 C0.6679999828338623,1.5570000410079956 0.9089999794960022,1.4160000085830688 1.1150000095367432,1.2120000123977661z"></path></g><g opacity="1" transform="matrix(1,0,0,1,63.74700164794922,81.8030014038086)"><path fill="rgb(7,5,6)" fill-opacity="1" d=" M1.1150000095367432,1.2120000123977661 C1.1150000095367432,1.2120000123977661 1.2120000123977661,1.1150000095367432 1.2120000123977661,1.1150000095367432 C1.3730000257492065,0.9660000205039978 1.4859999418258667,0.7900000214576721 1.5520000457763672,0.5860000252723694 C1.6549999713897705,0.38999998569488525 1.7020000219345093,0.17800000309944153 1.694000005722046,-0.04899999871850014 C1.7020000219345093,-0.2750000059604645 1.6549999713897705,-0.4869999885559082 1.5520000457763672,-0.6830000281333923 C1.4859999418258667,-0.8870000243186951 1.3730000257492065,-1.062999963760376 1.2120000123977661,-1.2120000123977661 C1.1009999513626099,-1.2979999780654907 0.9900000095367432,-1.3830000162124634 0.8790000081062317,-1.468999981880188 C0.6230000257492065,-1.6180000305175781 0.3440000116825104,-1.6929999589920044 0.04800000041723251,-1.694000005722046 C-0.09799999743700027,-1.6740000247955322 -0.24300000071525574,-1.6549999713897705 -0.3889999985694885,-1.6349999904632568 C-0.6679999828338623,-1.5570000410079956 -0.9100000262260437,-1.4160000085830688 -1.1150000095367432,-1.2120000123977661 C-1.1150000095367432,-1.2120000123977661 -1.2120000123977661,-1.1150000095367432 -1.2120000123977661,-1.1150000095367432 C-1.371999979019165,-0.9660000205039978 -1.4850000143051147,-0.7889999747276306 -1.5509999990463257,-0.5860000252723694 C-1.6549999713897705,-0.38999998569488525 -1.7020000219345093,-0.17900000512599945 -1.694000005722046,0.04800000041723251 C-1.7020000219345093,0.27399998903274536 -1.6549999713897705,0.4869999885559082 -1.5509999990463257,0.6830000281333923 C-1.4850000143051147,0.8870000243186951 -1.371999979019165,1.062999963760376 -1.2120000123977661,1.2120000123977661 C-1.1009999513626099,1.2979999780654907 -0.9900000095367432,1.3830000162124634 -0.8790000081062317,1.468999981880188 C-0.621999979019165,1.6180000305175781 -0.34599998593330383,1.6929999589920044 -0.04899999871850014,1.694000005722046 C0.09600000083446503,1.6740000247955322 0.24300000071525574,1.6549999713897705 0.3889999985694885,1.6349999904632568 C0.6679999828338623,1.5570000410079956 0.9100000262260437,1.4160000085830688 1.1150000095367432,1.2120000123977661z"></path></g><g opacity="1" transform="matrix(1,0,0,1,65.48999786376953,101.87000274658203)"><path fill="rgb(7,5,6)" fill-opacity="1" d=" M1.1150000095367432,1.2120000123977661 C1.1150000095367432,1.2120000123977661 1.2120000123977661,1.1150000095367432 1.2120000123977661,1.1150000095367432 C1.3730000257492065,0.9660000205039978 1.4859999418258667,0.7900000214576721 1.5520000457763672,0.5860000252723694 C1.6549999713897705,0.38999998569488525 1.7020000219345093,0.17800000309944153 1.694000005722046,-0.04899999871850014 C1.7020000219345093,-0.2750000059604645 1.6549999713897705,-0.4860000014305115 1.5520000457763672,-0.6830000281333923 C1.4859999418258667,-0.8859999775886536 1.3730000257492065,-1.062999963760376 1.2120000123977661,-1.2120000123977661 C1.1009999513626099,-1.2970000505447388 0.9900000095367432,-1.3830000162124634 0.8799999952316284,-1.468999981880188 C0.6230000257492065,-1.6180000305175781 0.3440000116825104,-1.6929999589920044 0.04800000041723251,-1.694000005722046 C-0.09799999743700027,-1.6740000247955322 -0.24300000071525574,-1.6540000438690186 -0.3889999985694885,-1.6349999904632568 C-0.6679999828338623,-1.5570000410079956 -0.9089999794960022,-1.4149999618530273 -1.1150000095367432,-1.2120000123977661 C-1.1150000095367432,-1.2120000123977661 -1.2120000123977661,-1.1150000095367432 -1.2120000123977661,-1.1150000095367432 C-1.371999979019165,-0.9660000205039978 -1.4850000143051147,-0.7889999747276306 -1.5509999990463257,-0.5860000252723694 C-1.6549999713897705,-0.38999998569488525 -1.7020000219345093,-0.17800000309944153 -1.694000005722046,0.04800000041723251 C-1.7020000219345093,0.27399998903274536 -1.6549999713897705,0.4869999885559082 -1.5509999990463257,0.6830000281333923 C-1.4850000143051147,0.8870000243186951 -1.371999979019165,1.062999963760376 -1.2120000123977661,1.2120000123977661 C-1.1009999513626099,1.2979999780654907 -0.9900000095367432,1.3830000162124634 -0.8790000081062317,1.468999981880188 C-0.621999979019165,1.6180000305175781 -0.34599998593330383,1.6929999589920044 -0.04899999871850014,1.694000005722046 C0.09600000083446503,1.6740000247955322 0.24400000274181366,1.6549999713897705 0.3889999985694885,1.6349999904632568 C0.6679999828338623,1.5570000410079956 0.9100000262260437,1.4160000085830688 1.1150000095367432,1.2120000123977661z"></path></g><g opacity="1" transform="matrix(1,0,0,1,62.040000915527344,66.81300354003906)"><path fill="rgb(152,146,138)" fill-opacity="1" d=" M4.020999908447266,-37.94599914550781 C-2.7009999752044678,-19.035999298095703 -5.556000232696533,1.2089999914169312 -4.333000183105469,21.242000579833984 C-3.993000030517578,26.82900047302246 -3.3259999752044678,32.391998291015625 -2.36299991607666,37.90700149536133 C-2.2190001010894775,38.72999954223633 -0.9649999737739563,38.38100051879883 -1.1089999675750732,37.56100082397461 C-4.53000020980835,17.961999893188477 -3.944999933242798,-2.2960000038146973 0.5870000123977661,-21.66900062561035 C1.8489999771118164,-27.062999725341797 3.4189999103546143,-32.380001068115234 5.275000095367432,-37.599998474121094 C5.556000232696533,-38.39099884033203 4.300000190734863,-38.73099899291992 4.020999908447266,-37.94599914550781z"></path></g><g opacity="1" transform="matrix(1,0,0,1,100.2030029296875,46.93899917602539)"><path fill="rgb(7,5,6)" fill-opacity="1" d=" M-3.809999942779541,-10.390000343322754 C-0.2460000067949295,-3.8010001182556152 2.0769999027252197,3.4049999713897705 3.003999948501587,10.840999603271484 C3.0859999656677246,11.498000144958496 4.129000186920166,11.505999565124512 4.046000003814697,10.840999603271484 C3.0940001010894775,3.2139999866485596 0.7480000257492065,-4.1529998779296875 -2.9110000133514404,-10.914999961853027 C-3.2300000190734863,-11.505000114440918 -4.129000186920166,-10.979999542236328 -3.809999942779541,-10.390000343322754z"></path></g><g opacity="1" transform="matrix(1,0,0,1,25.22800064086914,65.5459976196289)"><path fill="rgb(7,5,6)" fill-opacity="1" d=" M-1.2139999866485596,9.119000434875488 C-0.8309999704360962,3.007999897003174 0.2849999964237213,-3.0239999294281006 2.0999999046325684,-8.871999740600586 C2.2980000972747803,-9.513999938964844 1.2929999828338623,-9.788999557495117 1.0950000286102295,-9.149999618530273 C-0.746999979019165,-3.2139999866485596 -1.8669999837875366,2.9170000553131104 -2.25600004196167,9.119000434875488 C-2.2980000972747803,9.788000106811523 -1.25600004196167,9.78600025177002 -1.2139999866485596,9.119000434875488z"></path></g><g opacity="1" transform="matrix(1,0,0,1,68.76100158691406,162.75999450683594)"><path fill="rgb(14,11,12)" fill-opacity="1" d=" M1.8819999694824219,-45.803001403808594 C-22.106000900268555,-44.26599884033203 -36.928001403808594,-50.87799835205078 -36.928001403808594,-50.87799835205078 C-36.928001403808594,-50.87799835205078 -40.10200119018555,-29.05900001525879 -41.869998931884766,-8.907999992370605 C-43.520999908447266,9.920999526977539 -45.59700012207031,53.91899871826172 -45.59700012207031,53.91899871826172 C-45.59700012207031,53.91899871826172 -42.89699935913086,55.28300094604492 -37.02000045776367,55.742000579833984 C-32.23500061035156,56.11600112915039 -25.79800033569336,55.6609992980957 -25.79800033569336,55.6609992980957 C-25.79800033569336,55.6609992980957 -16.256000518798828,20.916000366210938 -12.97599983215332,9.381999969482422 C-9.869000434875488,-1.5529999732971191 -3.8010001182556152,-22.04599952697754 -3.8010001182556152,-22.04599952697754 C-3.8010001182556152,-22.04599952697754 -2.437000036239624,-21.691999435424805 -2.437000036239624,-21.691999435424805 C-2.437000036239624,-21.691999435424805 2.5179998874664307,5.445000171661377 3.8499999046325684,15.265999794006348 C5.0920000076293945,24.43000030517578 8.338000297546387,53.7869987487793 8.338000297546387,53.7869987487793 C8.338000297546387,53.7869987487793 12.265000343322754,55.28200149536133 16.93899917602539,55.28200149536133 C21.80500030517578,55.28200149536133 25.729000091552734,53.972999572753906 25.729000091552734,53.972999572753906 C25.729000091552734,53.972999572753906 45.59600067138672,-56.1150016784668 45.59600067138672,-56.1150016784668 C45.59600067138672,-56.1150016784668 29.481000900268555,-47.57099914550781 1.8819999694824219,-45.803001403808594z"></path></g><g opacity="1" transform="matrix(1,0,0,1,72.72100067138672,107.4739990234375)"><path fill="rgb(63,56,55)" fill-opacity="1" d=" M-1.996999979019165,-0.009999999776482582 C-22.5049991607666,1.159000039100647 -37.28200149536133,-3.6440000534057617 -42.665000915527344,-5.751999855041504 C-42.577999114990234,-5.656000137329102 -42.52899932861328,-5.609000205993652 -42.52899932861328,-5.609000205993652 C-42.52899932861328,-5.609000205993652 -43.69499969482422,-6.264999866485596 -43.20600128173828,-1.2680000066757202 C-42.71699905395508,3.734999895095825 -40.887001037597656,4.4070000648498535 -40.887001037597656,4.4070000648498535 C-40.887001037597656,4.4070000648498535 -40.904998779296875,4.511000156402588 -40.93899917602539,4.705999851226807 C-34.90800094604492,6.953999996185303 -21.0939998626709,11.031000137329102 -2.1670000553131104,10.052000045776367 C21.746999740600586,8.814000129699707 36.56700134277344,2.2070000171661377 41.560001373291016,-0.4000000059604645 C41.560001373291016,-0.4000000059604645 41.637001037597656,-0.8289999961853027 41.637001037597656,-0.8289999961853027 C41.637001037597656,-0.8289999961853027 42.49399948120117,-0.6959999799728394 43.03200149536133,-5.321000099182129 C43.69599914550781,-11.031000137329102 41.83300018310547,-10.821000099182129 41.83300018310547,-10.821000099182129 C41.83300018310547,-10.821000099182129 41.83399963378906,-10.831999778747559 41.83399963378906,-10.831999778747559 C34.46699905395508,-7.7829999923706055 16.389999389648438,-1.059000015258789 -1.996999979019165,-0.009999999776482582z"></path></g><g opacity="1" transform="matrix(1,0,0,1,61.948001861572266,112.36699676513672)"><path fill="rgb(7,5,6)" fill-opacity="1" d=" M-4.539000034332275,-4.139999866485596 C-2.7809998989105225,-4.105000019073486 -1.0240000486373901,-4.033999919891357 0.7310000061988831,-3.9189999103546143 C1.5199999809265137,-3.868000030517578 2.3550000190734863,-3.871000051498413 3.134999990463257,-3.7339999675750732 C3.240999937057495,-3.7160000801086426 3.367000102996826,-3.693000078201294 3.450000047683716,-3.632999897003174 C3.299999952316284,-3.742000102996826 3.430000066757202,-3.5880000591278076 3.4619998931884766,-3.4579999446868896 C3.5460000038146973,-3.117000102996826 3.559000015258789,-2.759000062942505 3.5899999141693115,-2.4110000133514404 C3.746000051498413,-0.6890000104904175 3.802000045776367,1.0490000247955322 3.7320001125335693,2.7769999504089355 C3.7100000381469727,3.3389999866485596 3.687999963760376,3.6730000972747803 3.1410000324249268,3.8239998817443848 C2.486999988555908,4.005000114440918 1.7680000066757202,3.9739999771118164 1.093999981880188,4.006999969482422 C-0.9110000133514404,4.105999946594238 -2.9189999103546143,4.1579999923706055 -4.921000003814697,3.9809999465942383 C-5.505000114440918,3.930000066757202 -6.00600004196167,4.517000198364258 -6.00600004196167,5.065999984741211 C-6.00600004196167,5.695000171661377 -5.506999969482422,6.098999977111816 -4.921000003814697,6.150000095367432 C-2.815999984741211,6.335999965667725 -0.7059999704360962,6.26800012588501 1.399999976158142,6.1620001792907715 C3.117000102996826,6.074999809265137 5.235000133514404,5.966000080108643 5.761000156402588,3.9509999752044678 C6.00600004196167,3.009999990463257 5.934000015258789,1.9429999589920044 5.926000118255615,0.9800000190734863 C5.918000221252441,-0.050999999046325684 5.870999813079834,-1.0829999446868896 5.784999847412109,-2.1110000610351562 C5.708000183105469,-3.0369999408721924 5.71999979019165,-4.124000072479248 5.160999774932861,-4.913000106811523 C4.540999889373779,-5.789000034332275 3.5350000858306885,-5.874000072479248 2.5510001182556152,-5.953999996185303 C0.19099999964237213,-6.144999980926514 -2.1730000972747803,-6.263000011444092 -4.539000034332275,-6.309000015258789 C-5.934999942779541,-6.335999965667725 -5.934999942779541,-4.166999816894531 -4.539000034332275,-4.139999866485596z"></path></g><g opacity="1" transform="matrix(1,0,0,1,65.86900329589844,112.40599822998047)"><path fill="rgb(7,5,6)" fill-opacity="1" d=" M-1.6779999732971191,1.24399995803833 C-0.4959999918937683,1.3240000009536743 0.7049999833106995,1.2029999494552612 1.8530000448226929,0.9150000214576721 C2.4030001163482666,0.7770000100135803 2.7880001068115234,0.12999999523162842 2.609999895095825,-0.4189999997615814 C2.4260001182556152,-0.9879999756813049 1.8660000562667847,-1.3250000476837158 1.2760000228881836,-1.1759999990463257 C0.8970000147819519,-1.0809999704360962 0.5139999985694885,-1.00600004196167 0.12700000405311584,-0.9520000219345093 C0.22200000286102295,-0.9649999737739563 0.3190000057220459,-0.9789999723434448 0.41499999165534973,-0.9919999837875366 C-0.2800000011920929,-0.9010000228881836 -0.9789999723434448,-0.8759999871253967 -1.6779999732971191,-0.9240000247955322 C-2.24399995803833,-0.9620000123977661 -2.7880001068115234,-0.39899998903274536 -2.763000011444092,0.1599999964237213 C-2.7360000610351562,0.7799999713897705 -2.2850000858306885,1.2039999961853027 -1.6779999732971191,1.24399995803833z"></path></g><g opacity="1" transform="matrix(1,0,0,1,61.097999572753906,140.71600341796875)"><path fill="rgb(150,144,137)" fill-opacity="1" d=" M-6.323999881744385,-0.5460000038146973 C-2.128000020980835,-0.37299999594688416 2.009999990463257,0.39100000262260437 5.997000217437744,1.7089999914169312 C6.861000061035156,1.99399995803833 7.230999946594238,0.6330000162124634 6.372000217437744,0.3499999940395355 C2.2690000534057617,-1.0069999694824219 -2.006999969482422,-1.7769999504089355 -6.323999881744385,-1.9559999704360962 C-7.230999946594238,-1.9930000305175781 -7.229000091552734,-0.5839999914169312 -6.323999881744385,-0.5460000038146973z"></path></g></g><g class="Motaman" transform="matrix(1.9994045495986938,-0.04879998415708542,0.04879998415708542,1.9994045495986938,278.6925354003906,203.34677124023438)" opacity="1" style="display: block;"><g opacity="1" transform="matrix(1,0,0,1,55.500999450683594,29.340999603271484)"><path fill="rgb(151,145,137)" fill-opacity="1" d=" M-9.65999984741211,-11.718999862670898 C-9.65999984741211,-11.718999862670898 -8.07800006866455,-13.178999900817871 -8.07800006866455,-13.178999900817871 C-7.434999942779541,-13.772000312805176 -6.48799991607666,-13.89799976348877 -5.7179999351501465,-13.484000205993652 C-3.76200008392334,-12.432999610900879 0.0820000022649765,-10.019000053405762 3.934999942779541,-5.614999771118164 C7.3979997634887695,-1.6579999923706055 9.20199966430664,4.105000019073486 10.065999984741211,6.940999984741211 C10.295000076293945,7.697000026702881 10.543000221252441,9.982999801635742 9.826000213623047,10.638999938964844 C8.767000198364258,11.611000061035156 7.051000118255615,12.656999588012695 3.740999937057495,13.204999923706055 C-0.4440000057220459,13.89799976348877 -0.8240000009536743,12.059000015258789 -0.8240000009536743,12.059000015258789 C-0.8240000009536743,12.059000015258789 -2.11899995803833,7.622000217437744 -4.993000030517578,0.5410000085830688 C-7.015999794006348,-4.445000171661377 -8.847999572753906,-7.458000183105469 -9.95300006866455,-9.034000396728516 C-10.543000221252441,-9.875 -10.414999961853027,-11.022000312805176 -9.65999984741211,-11.718999862670898z"></path></g><g opacity="1" transform="matrix(1,0,0,1,28.865999221801758,21.024999618530273)"><path fill="rgb(246,158,170)" fill-opacity="1" d=" M17.231000900268555,-1.4049999713897705 C17.231000900268555,-1.4049999713897705 4.355999946594238,-3.003999948501587 3.6710000038146973,-3.296999931335449 C2.98799991607666,-3.5899999141693115 -4.488999843597412,-11.321000099182129 -4.879000186920166,-12.493000030517578 C-5.269999980926514,-13.664999961853027 -5.064000129699707,-15.670999526977539 -4.552000045776367,-16.983999252319336 C-3.9200000762939453,-18.604999542236328 -5.420000076293945,-20.77400016784668 -7.564000129699707,-19.94099998474121 C-9.857000350952148,-19.051000595092773 -11.032999992370605,-17.18199920654297 -11.326000213623047,-15.326000213623047 C-11.326000213623047,-15.326000213623047 -14.9399995803833,-16.791000366210938 -17.773000717163086,-17.37700080871582 C-20.606000900268555,-17.96299934387207 -25.781999588012695,-19.23200035095215 -26.757999420166016,-18.548999786376953 C-27.735000610351562,-17.86400032043457 -28.615999221801758,-16.009000778198242 -26.85700035095215,-14.642000198364258 C-25.099000930786133,-13.274999618530273 -20.89900016784668,-12.29800033569336 -20.89900016784668,-12.29800033569336 C-20.89900016784668,-12.29800033569336 -15.819999694824219,-9.072999954223633 -15.819999694824219,-9.072999954223633 C-15.819999694824219,-9.072999954223633 -22.573999404907227,-8.463000297546387 -24.191999435424805,-8.097999572753906 C-26.042999267578125,-7.681000232696533 -26.538000106811523,-3.6040000915527344 -24.291000366210938,-2.822000026702881 C-24.291000366210938,-2.822000026702881 -25.391000747680664,-1.343999981880188 -24.780000686645508,0.7929999828338623 C-24.115999221801758,3.111999988555908 -22.6299991607666,3.0390000343322754 -22.6299991607666,3.0390000343322754 C-22.6299991607666,3.0390000343322754 -23.327999114990234,3.5350000858306885 -23.184999465942383,5.072999954223633 C-23.069000244140625,6.311999797821045 -22.402999877929688,7.422999858856201 -19.84000015258789,8.012999534606934 C-15.73900032043457,8.956999778747559 -14.354000091552734,8.314000129699707 -13.866000175476074,7.7270002365112305 C-13.866000175476074,7.7270002365112305 -9.963000297546387,7.324999809265137 -9.963000297546387,7.324999809265137 C-9.963000297546387,7.324999809265137 -7.28000020980835,10.623000144958496 -3.6459999084472656,10.678999900817871 C-0.010999999940395355,10.734999656677246 0.43700000643730164,10.39900016784668 0.43700000643730164,10.39900016784668 C0.43700000643730164,10.39900016784668 7.455999851226807,16.329999923706055 15.001999855041504,18.766000747680664 C21.225000381469727,20.774999618530273 27.621999740600586,20.163999557495117 27.621999740600586,20.163999557495117 C27.621999740600586,20.163999557495117 28.615999221801758,16 24.58300018310547,8.001999855041504 C20.874000549316406,0.6470000147819519 17.231000900268555,-1.4049999713897705 17.231000900268555,-1.4049999713897705z"></path></g><g opacity="1" transform="matrix(1,0,0,1,8.642999649047852,18.09000015258789)"><path fill="rgb(7,5,6)" fill-opacity="1" d=" M-4.01200008392334,0.5139999985694885 C-1.3370000123977661,0.5180000066757202 1.3380000591278076,0.5230000019073486 4.01200008392334,0.5270000100135803 C4.682000160217285,0.527999997138977 4.683000087738037,-0.5149999856948853 4.01200008392334,-0.515999972820282 C1.3380000591278076,-0.5199999809265137 -1.3370000123977661,-0.5230000019073486 -4.01200008392334,-0.5270000100135803 C-4.682000160217285,-0.5270000100135803 -4.683000087738037,0.5130000114440918 -4.01200008392334,0.5139999985694885z"></path></g><g opacity="1" transform="matrix(1,0,0,1,8.998000144958496,23.993999481201172)"><path fill="rgb(7,5,6)" fill-opacity="1" d=" M-2.930000066757202,0.5490000247955322 C-0.9760000109672546,0.5299999713897705 0.9769999980926514,0.5120000243186951 2.930999994277954,0.49300000071525574 C3.6010000705718994,0.4869999885559082 3.6029999256134033,-0.5559999942779541 2.930999994277954,-0.550000011920929 C0.9769999980926514,-0.531000018119812 -0.9760000109672546,-0.5120000243186951 -2.930000066757202,-0.49300000071525574 C-3.5999999046325684,-0.4860000014305115 -3.6019999980926514,0.5550000071525574 -2.930000066757202,0.5490000247955322z"></path></g><g opacity="1" transform="matrix(1,0,0,1,19.44499969482422,7.519000053405762)"><path fill="rgb(7,5,6)" fill-opacity="1" d=" M-2.2939999103546143,-1.3309999704360962 C-1.5369999408721924,-0.9490000009536743 -0.8270000219345093,-0.4790000021457672 -0.1940000057220459,0.08500000089406967 C0.4959999918937683,0.7020000219345093 1.0820000171661377,1.4190000295639038 1.6629999876022339,2.13700008392334 C1.840000033378601,2.3559999465942383 2.2149999141693115,2.321000099182129 2.3989999294281006,2.13700008392334 C2.615999937057495,1.9210000038146973 2.5769999027252197,1.6200000047683716 2.3989999294281006,1.399999976158142 C1.8040000200271606,0.6639999747276306 1.2020000219345093,-0.07199999690055847 0.48899999260902405,-0.6990000009536743 C-0.19499999284744263,-1.3020000457763672 -0.953000009059906,-1.8200000524520874 -1.7680000066757202,-2.2309999465942383 C-2.0190000534057617,-2.3570001125335693 -2.3320000171661377,-2.296999931335449 -2.4809999465942383,-2.0439999103546143 C-2.615999937057495,-1.812000036239624 -2.5460000038146973,-1.4579999446868896 -2.2939999103546143,-1.3309999704360962z"></path></g><g opacity="1" transform="matrix(1,0,0,1,29.07900047302246,30.742000579833984)"><path fill="rgb(7,5,6)" fill-opacity="1" d=" M0.8299999833106995,-0.9309999942779541 C0.6959999799728394,-0.7599999904632568 0.5450000166893005,-0.6029999852180481 0.3779999911785126,-0.46399998664855957 C0.3540000021457672,-0.4440000057220459 0.3319999873638153,-0.421999990940094 0.3059999942779541,-0.4050000011920929 C0.33399999141693115,-0.42399999499320984 0.375,-0.4560000002384186 0.32199999690055847,-0.4189999997615814 C0.2759999930858612,-0.3869999945163727 0.23000000417232513,-0.35499998927116394 0.18299999833106995,-0.32499998807907104 C0.09000000357627869,-0.2639999985694885 -0.007000000216066837,-0.2070000022649765 -0.10700000077486038,-0.15700000524520874 C-0.1509999930858612,-0.1340000033378601 -0.19599999487400055,-0.11299999803304672 -0.2409999966621399,-0.09300000220537186 C-0.32499998807907104,-0.054999999701976776 -0.27399998903274536,-0.10000000149011612 -0.23600000143051147,-0.09399999678134918 C-0.25200000405311584,-0.09700000286102295 -0.29100000858306885,-0.07199999690055847 -0.3059999942779541,-0.06700000166893005 C-0.4099999964237213,-0.027000000700354576 -0.5180000066757202,0.006000000052154064 -0.625,0.03400000184774399 C-0.7279999852180481,0.061000000685453415 -0.8309999704360962,0.07900000363588333 -0.9359999895095825,0.09700000286102295 C-1.0019999742507935,0.10899999737739563 -0.824999988079071,0.08699999749660492 -0.9259999990463257,0.0949999988079071 C-0.949999988079071,0.09799999743700027 -0.9760000109672546,0.10000000149011612 -1,0.10199999809265137 C-1.062000036239624,0.1080000028014183 -1.1239999532699585,0.10999999940395355 -1.1859999895095825,0.11100000143051147 C-1.4579999446868896,0.11800000071525574 -1.7200000286102295,0.34599998593330383 -1.7070000171661377,0.6320000290870667 C-1.694000005722046,0.9089999794960022 -1.4780000448226929,1.159999966621399 -1.1859999895095825,1.152999997138977 C-0.13500000536441803,1.128000020980835 0.9139999747276306,0.6380000114440918 1.565999984741211,-0.19499999284744263 C1.6549999713897705,-0.30799999833106995 1.7200000286102295,-0.41200000047683716 1.7200000286102295,-0.5630000233650208 C1.7200000286102295,-0.6909999847412109 1.6619999408721924,-0.8429999947547913 1.565999984741211,-0.9309999942779541 C1.3799999952316284,-1.1030000448226929 1.0099999904632568,-1.159999966621399 0.8299999833106995,-0.9309999942779541z"></path></g><g opacity="1" transform="matrix(1,0,0,1,14.6899995803833,28.309999465942383)"><path fill="rgb(7,5,6)" fill-opacity="1" d=" M-4.0289998054504395,0.4059999883174896 C-1.3619999885559082,0.9940000176429749 1.4079999923706055,0.9269999861717224 4.039000034332275,0.19099999964237213 C4.684999942779541,0.010999999940395355 4.409999847412109,-0.9950000047683716 3.763000011444092,-0.8140000104904175 C1.312999963760376,-0.12999999523162842 -1.2669999599456787,-0.05000000074505806 -3.753000020980835,-0.5989999771118164 C-4.406000137329102,-0.7429999709129333 -4.684000015258789,0.26100000739097595 -4.0289998054504395,0.4059999883174896z"></path></g></g><g class="Motaman" transform="matrix(2,0,0,2,57.5,63)" opacity="1" style="display: block;"><g opacity="1" transform="matrix(1,0,0,1,14.553000450134277,86.76399993896484)"><path fill="rgb(248,82,105)" fill-opacity="1" d=" M-1.1549999713897705,-5.52400016784668 C-1.1549999713897705,-5.52400016784668 -5.732999801635742,-7.415999889373779 -7.136000156402588,-4.791999816894531 C-8.366000175476074,-2.493000030517578 -6.568999767303467,-0.5009999871253967 -4.75600004196167,-0.3370000123977661 C-2.742000102996826,-0.15299999713897705 -1.034000039100647,0.1289999932050705 0.4350000023841858,2.0869998931884766 C1.5119999647140503,3.5230000019073486 2.568000078201294,5.218999862670898 3.7890000343322754,6.316999912261963 C5.010000228881836,7.415999889373779 8.366000175476074,1.0679999589920044 8.366000175476074,1.0679999589920044 C8.366000175476074,1.0679999589920044 4.520999908447266,-4.914000034332275 4.520999908447266,-4.914000034332275 C4.520999908447266,-4.914000034332275 -1.1549999713897705,-5.52400016784668 -1.1549999713897705,-5.52400016784668z"></path></g><g opacity="1" transform="matrix(1,0,0,1,46.90399932861328,53.87699890136719)"><path fill="rgb(7,5,6)" fill-opacity="1" d=" M0,-47.21500015258789 C-25.062999725341797,-47.21500015258789 -45.380001068115234,-26.076000213623047 -45.380001068115234,0 C-45.380001068115234,26.076000213623047 -25.062999725341797,47.21500015258789 0,47.21500015258789 C25.062999725341797,47.21500015258789 45.380001068115234,26.076000213623047 45.380001068115234,0 C45.380001068115234,-26.076000213623047 25.062999725341797,-47.21500015258789 0,-47.21500015258789z M0,-37.957000732421875 C20.148000717163086,-37.957000732421875 36.48099899291992,-20.96299934387207 36.48099899291992,0 C36.48099899291992,3.4149999618530273 36.04499816894531,6.723999977111816 35.231998443603516,9.873000144958496 C35.231998443603516,9.873000144958496 -31.013999938964844,-19.993000030517578 -31.013999938964844,-19.993000030517578 C-24.57900047302246,-30.774999618530273 -13.095999717712402,-37.957000732421875 0,-37.957000732421875z M0,37.95600128173828 C-20.148000717163086,37.95600128173828 -36.48099899291992,20.961999893188477 -36.48099899291992,0 C-36.48099899291992,-3.9010000228881836 -35.915000915527344,-7.664999961853027 -34.86399841308594,-11.208000183105469 C-34.86399841308594,-11.208000183105469 31.856000900268555,18.5049991607666 31.856000900268555,18.5049991607666 C25.614999771118164,30.110000610351562 13.689000129699707,37.95600128173828 0,37.95600128173828z"></path></g><g opacity="1" transform="matrix(1,0,0,1,45.63100051879883,52.26300048828125)"><path fill="rgb(219,0,0)" fill-opacity="1" d=" M0,-47.21500015258789 C-25.062999725341797,-47.21500015258789 -45.380001068115234,-26.07699966430664 -45.380001068115234,-0.0010000000474974513 C-45.380001068115234,26.076000213623047 -25.062999725341797,47.21500015258789 0,47.21500015258789 C25.062999725341797,47.21500015258789 45.380001068115234,26.076000213623047 45.380001068115234,-0.0010000000474974513 C45.380001068115234,-26.07699966430664 25.062999725341797,-47.21500015258789 0,-47.21500015258789z M0,-37.957000732421875 C20.148000717163086,-37.957000732421875 36.48099899291992,-20.96299934387207 36.48099899291992,-0.0010000000474974513 C36.48099899291992,3.4149999618530273 36.04499816894531,6.723999977111816 35.231998443603516,9.873000144958496 C35.231998443603516,9.873000144958496 -31.013999938964844,-19.993000030517578 -31.013999938964844,-19.993000030517578 C-24.57900047302246,-30.774999618530273 -13.095999717712402,-37.957000732421875 0,-37.957000732421875z M0,37.95600128173828 C-20.148000717163086,37.95600128173828 -36.48099899291992,20.961999893188477 -36.48099899291992,-0.0010000000474974513 C-36.48099899291992,-3.9010000228881836 -35.915000915527344,-7.664999961853027 -34.86399841308594,-11.208000183105469 C-34.86399841308594,-11.208000183105469 31.856000900268555,18.5049991607666 31.856000900268555,18.5049991607666 C25.614999771118164,30.110000610351562 13.689000129699707,37.95600128173828 0,37.95600128173828z"></path></g><g opacity="1" transform="matrix(1,0,0,1,45.63100051879883,52.26300048828125)"><path fill="rgb(196,30,31)" fill-opacity="1" d=" M0.0010000000474974513,-47.21500015258789 C-25.062000274658203,-47.21500015258789 -45.38100051879883,-26.07699966430664 -45.38100051879883,-0.0010000000474974513 C-45.38100051879883,26.076000213623047 -25.062000274658203,47.21500015258789 0.0010000000474974513,47.21500015258789 C25.06399917602539,47.21500015258789 45.38100051879883,26.076000213623047 45.38100051879883,-0.0010000000474974513 C45.38100051879883,-26.07699966430664 25.06399917602539,-47.21500015258789 0.0010000000474974513,-47.21500015258789z M0.0010000000474974513,-37.957000732421875 C20.14900016784668,-37.957000732421875 36.481998443603516,-20.96299934387207 36.481998443603516,-0.0010000000474974513 C36.481998443603516,3.4149999618530273 36.04499816894531,6.723999977111816 35.231998443603516,9.871999740600586 C35.231998443603516,9.871999740600586 -31.013999938964844,-19.993000030517578 -31.013999938964844,-19.993000030517578 C-24.57900047302246,-30.774999618530273 -13.095999717712402,-37.957000732421875 0.0010000000474974513,-37.957000732421875z M31.67099952697754,19.434999465942383 C31.67099952697754,19.434999465942383 31.40399932861328,19.31599998474121 31.40399932861328,19.31599998474121 C25.051000595092773,30.472999572753906 13.368000030517578,37.95600128173828 0.0010000000474974513,37.95600128173828 C-20.14699935913086,37.95600128173828 -36.481998443603516,20.961999893188477 -36.481998443603516,-0.0010000000474974513 C-36.481998443603516,-3.61899995803833 -35.987998962402344,-7.116000175476074 -35.07899856567383,-10.430999755859375 C-35.07899856567383,-10.430999755859375 -36.46900177001953,-11.053000450134277 -36.46900177001953,-11.053000450134277 C-36.46900177001953,-11.053000450134277 -31.198999404907227,-19.062999725341797 -31.198999404907227,-19.062999725341797 C-31.198999404907227,-19.062999725341797 36.32699966430664,11.352999687194824 36.32699966430664,11.352999687194824 C36.32699966430664,11.352999687194824 31.67099952697754,19.434999465942383 31.67099952697754,19.434999465942383z"></path></g><g opacity="1" transform="matrix(1,0,0,1,49.513999938964844,50.0260009765625)"><path fill="rgb(84,189,194)" fill-opacity="1" d=" M-9.611000061035156,49.72200012207031 C-9.26099967956543,49.7760009765625 -8.930999755859375,49.55400085449219 -8.85099983215332,49.20899963378906 C-8.043999671936035,45.70399856567383 -3.990999937057495,27.933000564575195 -2.628999948501587,18.26099967956543 C-1.1130000352859497,7.497000217437744 1.3860000371932983,-10.390000343322754 3.0789999961853027,-15.470000267028809 C4.2179999351501465,-18.888999938964844 9.34000015258789,-20.11199951171875 11.093999862670898,-25.29199981689453 C12.812999725341797,-30.365999221801758 12.887999534606934,-46.9379997253418 6.466000080108643,-48.8849983215332 C3.5290000438690186,-49.7760009765625 0.12999999523162842,-49.08000183105469 -4.7210001945495605,-40.74100112915039 C-9.571999549865723,-32.40299987792969 -8.630999565124512,-28.625 -7.113999843597412,-24.22800064086914 C-5.5980000495910645,-19.832000732421875 -3.2190001010894775,-18.729000091552734 -3.243000030517578,-16.148000717163086 C-3.3559999465942383,-4.181000232696533 -8.121999740600586,11.52299976348877 -9.682000160217285,22.67099952697754 C-10.843000411987305,30.961000442504883 -12.569000244140625,45.387001037597656 -12.857000350952148,48.58000183105469 C-12.887999534606934,48.933998107910156 -12.640000343322754,49.250999450683594 -12.288000106811523,49.30500030517578 C-12.288000106811523,49.30500030517578 -9.611000061035156,49.72200012207031 -9.611000061035156,49.72200012207031z"></path></g><g opacity="1" transform="matrix(1,0,0,1,30.822999954223633,49.96699905395508)"><path fill="rgb(84,189,194)" fill-opacity="1" d=" M6.75600004196167,-23.832000732421875 C5.427000045776367,-20.652999877929688 3.7769999504089355,-20.14699935913086 3.4830000400543213,-17.915000915527344 C2.7820000648498535,-12.605999946594238 3.7170000076293945,5.431000232696533 4.267000198364258,16.28700065612793 C4.761000156402588,26.042999267578125 4.14900016784668,44.25899887084961 4.019000053405762,47.854000091552734 C4.00600004196167,48.207000732421875 3.7230000495910645,48.487998962402344 3.36899995803833,48.500999450683594 C3.36899995803833,48.500999450683594 0.6620000004768372,48.599998474121094 0.6620000004768372,48.599998474121094 C0.3059999942779541,48.61199951171875 0.0020000000949949026,48.3489990234375 -0.03400000184774399,47.994998931884766 C-0.3569999933242798,44.80400085449219 -1.2510000467300415,30.52400016784668 -1.6820000410079956,22.165000915527344 C-2.260999917984009,10.92300033569336 -0.6970000267028809,-5.611000061035156 -2.8529999256134033,-17.381999969482422 C-3.318000078201294,-19.922000885009766 -6.164999961853027,-20.152999877929688 -7.176000118255615,-24.69300079345703 C-7.7829999923706055,-27.420000076293945 -7.1479997634887695,-43.560001373291016 -6.9770002365112305,-47.61899948120117 C-6.954999923706055,-48.13800048828125 -6.53000020980835,-48.547000885009766 -6.010000228881836,-48.55099868774414 C-5.486000061035156,-48.55400085449219 -5.052999973297119,-48.143001556396484 -5.03000020980835,-47.61899948120117 C-5.03000020980835,-47.61899948120117 -4.730000019073486,-34.13999938964844 -4.730000019073486,-34.13999938964844 C-4.716000080108643,-33.801998138427734 -3.7060000896453857,-33.79999923706055 -3.688999891281128,-34.138999938964844 C-3.688999891281128,-34.138999938964844 -3.25,-47.652000427246094 -3.25,-47.652000427246094 C-3.2239999771118164,-48.16899871826172 -2.799999952316284,-48.57500076293945 -2.2829999923706055,-48.57899856567383 C-2.2829999923706055,-48.57899856567383 -2.2730000019073486,-48.57899856567383 -2.2730000019073486,-48.57899856567383 C-1.7510000467300415,-48.582000732421875 -1.319000005722046,-48.172000885009766 -1.2940000295639038,-47.650001525878906 C-1.2940000295639038,-47.650001525878906 -0.9359999895095825,-34.16400146484375 -0.9359999895095825,-34.16400146484375 C-0.9200000166893005,-33.82500076293945 0.09000000357627869,-33.82600021362305 0.10499999672174454,-34.16400146484375 C0.10499999672174454,-34.16400146484375 0.4860000014305115,-47.66699981689453 0.4860000014305115,-47.66699981689453 C0.5090000033378601,-48.18600082397461 0.9350000023841858,-48.59600067138672 1.4550000429153442,-48.597999572753906 C1.4550000429153442,-48.597999572753906 1.4639999866485596,-48.597999572753906 1.4639999866485596,-48.597999572753906 C1.9850000143051147,-48.599998474121094 2.4149999618530273,-48.19300079345703 2.441999912261963,-47.67399978637695 C2.441999912261963,-47.67399978637695 2.8589999675750732,-34.178001403808594 2.8589999675750732,-34.178001403808594 C2.877000093460083,-33.84000015258789 3.885999917984009,-33.84299850463867 3.9000000953674316,-34.180999755859375 C3.9000000953674316,-34.180999755859375 4.2220001220703125,-47.67599868774414 4.2220001220703125,-47.67599868774414 C4.243000030517578,-48.196998596191406 4.671000003814697,-48.608001708984375 5.191999912261963,-48.61000061035156 C5.191999912261963,-48.61000061035156 5.210000038146973,-48.61000061035156 5.210000038146973,-48.61000061035156 C5.724999904632568,-48.61199951171875 6.1519999504089355,-48.2140007019043 6.185999870300293,-47.70000076293945 C6.465000152587891,-43.35599899291992 7.7829999923706055,-26.290000915527344 6.75600004196167,-23.832000732421875z"></path></g><g opacity="1" transform="matrix(1,0,0,1,60.79999923706055,54.65800094604492)"><path fill="rgb(84,189,194)" fill-opacity="1" d=" M-17.368999481201172,45.430999755859375 C-17.81599998474121,45.31100082397461 -18.08300018310547,44.856998443603516 -17.965999603271484,44.40999984741211 C-17.106000900268555,41.111000061035156 -13.732000350952148,28.402000427246094 -10.590999603271484,19.68600082397461 C-6.953000068664551,9.597999572753906 -2.0169999599456787,1.7760000228881836 -1.4429999589920044,-1.843999981880188 C-0.8679999709129333,-5.465000152587891 -3.368000030517578,-9.003000259399414 -2.5759999752044678,-15.185999870300293 C-1.378999948501587,-24.527999877929688 11.946000099182129,-43.08399963378906 14.592000007629395,-44.691001892089844 C16.97599983215332,-46.138999938964844 18.08300018310547,-45.07099914550781 17.923999786376953,-43.46099853515625 C17.100000381469727,-35.12900161743164 -11.057999610900879,37.584999084472656 -14.138999938964844,45.520999908447266 C-14.293999671936035,45.92100143432617 -14.723999977111816,46.138999938964844 -15.138999938964844,46.02799987792969 C-15.138999938964844,46.02799987792969 -17.368999481201172,45.430999755859375 -17.368999481201172,45.430999755859375z"></path></g><g opacity="1" transform="matrix(1,0,0,1,44.01900100708008,56.31700134277344)"><path fill="rgb(7,5,6)" fill-opacity="1" d=" M-33.25299835205078,-15.60200023651123 C-33.32899856567383,-15.005000114440918 -33.39699935913086,-14.744000434875488 -33.46799850463867,-14.144000053405762 C-33.46799850463867,-14.144000053405762 33.01499938964844,15.60200023651123 33.01499938964844,15.60200023651123 C33.167999267578125,14.993000030517578 33.32099914550781,14.723999977111816 33.46799850463867,14.109999656677246 C33.46799850463867,14.109999656677246 -33.25299835205078,-15.60200023651123 -33.25299835205078,-15.60200023651123z"></path></g><g opacity="1" transform="matrix(1,0,0,1,45.744998931884766,51.51900100708008)"><path fill="rgb(196,30,31)" fill-opacity="1" d=" M-31.128000259399414,-19.249000549316406 C-31.128000259399414,-19.249000549316406 36.39799880981445,11.166999816894531 36.39799880981445,11.166999816894531 C36.39799880981445,11.166999816894531 31.742000579833984,19.249000549316406 31.742000579833984,19.249000549316406 C31.742000579833984,19.249000549316406 -36.39799880981445,-11.23900032043457 -36.39799880981445,-11.23900032043457 C-36.39799880981445,-11.23900032043457 -31.128000259399414,-19.249000549316406 -31.128000259399414,-19.249000549316406z"></path></g><g opacity="1" transform="matrix(1,0,0,1,22.086999893188477,88.14199829101562)"><path fill="rgb(246,158,170)" fill-opacity="1" d=" M-10.800999641418457,2.069999933242798 C-10.154000282287598,4.302999973297119 -8.472999572753906,5.823999881744385 -4.6620001792907715,8.142999649047852 C-0.8500000238418579,10.463000297546387 4.8470001220703125,11.958999633789062 8.03600025177002,10.574999809265137 C10.845000267028809,9.355999946594238 11.536999702453613,0.3930000066757202 10.045000076293945,-1.2769999504089355 C8.331999778747559,-3.194000005722046 6.677999973297119,-1.0379999876022339 6.677999973297119,-1.0379999876022339 C6.677999973297119,-1.0379999876022339 7.0920000076293945,-4.0370001792907715 5.249000072479248,-4.807000160217285 C2.930999994277954,-5.77400016784668 1.628000020980835,-3.743000030517578 1.628000020980835,-3.743000030517578 C1.628000020980835,-3.743000030517578 2.7079999446868896,-6.936999797821045 0.9789999723434448,-8.071999549865723 C-0.6150000095367432,-9.118000030517578 -2.055000066757202,-8.071999549865723 -2.055000066757202,-8.071999549865723 C-2.055000066757202,-8.071999549865723 -1.8949999809265137,-9.628999710083008 -2.756999969482422,-10.70199966430664 C-3.6559998989105225,-11.822999954223633 -7.045000076293945,-11.958000183105469 -8.951000213623047,-8.28600025177002 C-10.857000350952148,-4.613999843597412 -11.53600025177002,-0.4650000035762787 -10.800999641418457,2.069999933242798z"></path></g><g opacity="1" transform="matrix(1,0,0,1,18.246999740600586,85.1520004272461)"><path fill="rgb(7,5,6)" fill-opacity="1" d=" M1.6119999885559082,-5.751999855041504 C-1.0089999437332153,-2.5250000953674316 -2.5380001068115234,1.4479999542236328 -2.7360000610351562,5.6020002365112305 C-2.7679998874664307,6.2729997634887695 -1.7259999513626099,6.270999908447266 -1.694000005722046,5.6020002365112305 C-1.5110000371932983,1.7430000305175781 -0.08900000154972076,-2.0139999389648438 2.3489999771118164,-5.014999866485596 C2.7679998874664307,-5.531000137329102 2.0350000858306885,-6.2729997634887695 1.6119999885559082,-5.751999855041504z"></path></g><g opacity="1" transform="matrix(1,0,0,1,22.916000366210938,88.63500213623047)"><path fill="rgb(7,5,6)" fill-opacity="1" d=" M0.859000027179718,-5.01800012588501 C-1.1749999523162842,-2.11899995803833 -1.6430000066757202,1.4709999561309814 -2.063999891281128,4.89900016784668 C-2.1449999809265137,5.563000202178955 -1.1030000448226929,5.557000160217285 -1.0230000019073486,4.89900016784668 C-0.6240000128746033,1.6490000486373901 -0.16699999570846558,-1.7450000047683716 1.7599999904632568,-4.492000102996826 C2.1459999084472656,-5.041999816894531 1.2419999837875366,-5.563000202178955 0.859000027179718,-5.01800012588501z"></path></g><g opacity="1" transform="matrix(1,0,0,1,27.92799949645996,91.33000183105469)"><path fill="rgb(7,5,6)" fill-opacity="1" d=" M0.5090000033378601,-4.446000099182129 C-0.5699999928474426,-1.5379999876022339 -1.3029999732971191,1.4730000495910645 -1.7100000381469727,4.546999931335449 C-1.746999979019165,4.828000068664551 -1.444000005722046,5.065000057220459 -1.1890000104904175,5.067999839782715 C-0.8769999742507935,5.071000099182129 -0.7049999833106995,4.824999809265137 -0.6679999828338623,4.546999931335449 C-0.27300000190734863,1.5709999799728394 0.4690000116825104,-1.3559999465942383 1.5130000114440918,-4.169000148773193 C1.746999979019165,-4.798999786376953 0.7400000095367432,-5.071000099182129 0.5090000033378601,-4.446000099182129z"></path></g></g><g class="Motaman" transform="matrix(2,0,0,2,257.5,56.5)" opacity="1" style="display: block;"><g opacity="1" transform="matrix(1,0,0,1,26.927000045776367,17.160999298095703)"><path fill="rgb(7,5,6)" fill-opacity="1" d=" M19.48200035095215,6.473999977111816 C19.48200035095215,6.473999977111816 20.993999481201172,-0.7739999890327454 17.270000457763672,-7.193999767303467 C13.307999610900879,-14.02400016784668 6.428999900817871,-16.91200065612793 -3.9639999866485596,-15.930999755859375 C-14.357999801635742,-14.951000213623047 -18.917999267578125,-7.64900016784668 -20.993999481201172,-1.0269999504089355 C-20.993999481201172,-1.0269999504089355 6.954999923706055,4.817999839782715 6.954999923706055,4.817999839782715 C6.954999923706055,4.817999839782715 4.566999912261963,16.694000244140625 4.566999912261963,16.694000244140625 C4.566999912261963,16.694000244140625 11.227999687194824,16.910999298095703 11.227999687194824,16.910999298095703 C11.227999687194824,16.910999298095703 19.48200035095215,6.473999977111816 19.48200035095215,6.473999977111816z"></path></g><g opacity="1" transform="matrix(1,0,0,1,24.031999588012695,33.14500045776367)"><path fill="rgb(246,158,170)" fill-opacity="1" d=" M15.857999801635742,-6.683000087738037 C15.857999801635742,-6.683000087738037 17.083999633789062,-11.26200008392334 19.954999923706055,-11.687000274658203 C22.82699966430664,-12.11400032043457 23.781999588012695,-10.15999984741211 23.257999420166016,-6.90500020980835 C22.733999252319336,-3.6510000228881836 20.200000762939453,-0.5540000200271606 16.8799991607666,-1.5700000524520874 C16.8799991607666,-1.5700000524520874 16.945999145507812,3.4119999408721924 14.366999626159668,7.896999835968018 C11.600000381469727,12.708000183105469 4.619999885559082,20.375 -2.1540000438690186,25.18400001525879 C-2.1540000438690186,25.18400001525879 -6.264999866485596,19.22100067138672 -6.264999866485596,19.22100067138672 C-6.264999866485596,19.22100067138672 -14.638999938964844,19.082000732421875 -19.209999084472656,9.01200008392334 C-23.781999588012695,-1.0579999685287476 -17.520000457763672,-16.947999954223633 -17.520000457763672,-16.947999954223633 C-17.520000457763672,-16.947999954223633 -15.449999809265137,-22.179000854492188 -11.458999633789062,-23.642000198364258 C-7.4679999351501465,-25.104999542236328 -8.21399974822998,-22.496000289916992 -5.704999923706055,-21.301000595092773 C-3.197000026702881,-20.106000900268555 2.6670000553131104,-22.058000564575195 4.800000190734863,-23.621000289916992 C6.933000087738037,-25.18400001525879 10.152000427246094,-24.499000549316406 11.392000198364258,-22.697999954223633 C12.633000373840332,-20.89699935913086 12.20199966430664,-18.450000762939453 11.197999954223633,-16.634000778198242 C10.192999839782715,-14.819000244140625 12.600000381469727,-12.993000030517578 12.637999534606934,-11.871999740600586 C12.675999641418457,-10.751999855041504 11.53499984741211,-6.583000183105469 10.324000358581543,-2.819000005722046 C9.112000465393066,0.9440000057220459 10.123000144958496,0.9610000252723694 12.157999992370605,0.6309999823570251 C14.194000244140625,0.3009999990463257 14.246000289916992,-2.0980000495910645 15.857999801635742,-6.683000087738037z"></path></g><g opacity="1" transform="matrix(1,0,0,1,16.979999542236328,25.729999542236328)"><path fill="rgb(7,5,6)" fill-opacity="1" d=" M2.9579999446868896,1.968999981880188 C2.6740000247955322,1.9040000438690186 2.3610000610351562,2.053999900817871 2.2860000133514404,2.3499999046325684 C2.2760000228881836,2.388000011444092 2.2660000324249268,2.4260001182556152 2.253999948501587,2.4630000591278076 C2.252000093460083,2.4690001010894775 2.246000051498413,2.4860000610351562 2.239000082015991,2.502000093460083 C2.2309999465942383,2.5190000534057617 2.2219998836517334,2.5409998893737793 2.2179999351501465,2.5480000972747803 C2.200000047683716,2.5829999446868896 2.180999994277954,2.617000102996826 2.1610000133514404,2.6500000953674316 C2.1459999084472656,2.6740000247955322 2.125,2.7190001010894775 2.1029999256134033,2.739000082015991 C2.0999999046325684,2.742000102996826 2.1019999980926514,2.739000082015991 2.0969998836517334,2.74399995803833 C2.049999952316284,2.7990000247955322 1.9989999532699585,2.8499999046325684 1.9450000524520874,2.8980000019073486 C1.9390000104904175,2.9030001163482666 1.9190000295639038,2.9200000762939453 1.902999997138977,2.931999921798706 C1.8899999856948853,2.941999912261963 1.875,2.9519999027252197 1.8700000047683716,2.9549999237060547 C1.8109999895095825,2.994999885559082 1.746000051498413,3.0250000953674316 1.684000015258789,3.061000108718872 C1.6480000019073486,3.072999954223633 1.6130000352859497,3.0850000381469727 1.5770000219345093,3.0950000286102295 C1.5460000038146973,3.1040000915527344 1.5149999856948853,3.111999988555908 1.4819999933242798,3.11899995803833 C1.4700000286102295,3.121999979019165 1.4570000171661377,3.124000072479248 1.4429999589920044,3.125999927520752 C1.4390000104904175,3.125999927520752 1.4420000314712524,3.125999927520752 1.437000036239624,3.127000093460083 C1.3960000276565552,3.125 1.3539999723434448,3.13100004196167 1.312000036239624,3.130000114440918 C1.2890000343322754,3.130000114440918 1.2669999599456787,3.128999948501587 1.2430000305175781,3.125999927520752 C1.2380000352859497,3.125999927520752 1.2419999837875366,3.127000093460083 1.2380000352859497,3.125999927520752 C1.1890000104904175,3.115000009536743 1.128999948501587,3.0929999351501465 1.1050000190734863,3.0869998931884766 C1.100000023841858,3.0850000381469727 1.1030000448226929,3.0859999656677246 1.0989999771118164,3.0850000381469727 C1.0959999561309814,3.0840001106262207 1.0980000495910645,3.0840001106262207 1.0950000286102295,3.0820000171661377 C1.065999984741211,3.066999912261963 1.0369999408721924,3.052999973297119 1.0099999904632568,3.0360000133514404 C0.9810000061988831,3.0199999809265137 0.9549999833106995,3.002000093460083 0.9279999732971191,2.984999895095825 C0.9240000247955322,2.9820001125335693 0.9259999990463257,2.9839999675750732 0.921999990940094,2.9820001125335693 C0.9190000295639038,2.9779999256134033 0.921999990940094,2.9800000190734863 0.9160000085830688,2.9749999046325684 C0.8690000176429749,2.928999900817871 0.8240000009536743,2.884000062942505 0.7789999842643738,2.8369998931884766 C0.7730000019073486,2.8320000171661377 0.7749999761581421,2.8340001106262207 0.7720000147819519,2.8310000896453857 C0.7699999809265137,2.8269999027252197 0.7720000147819519,2.8289999961853027 0.7689999938011169,2.8239998817443848 C0.746999979019165,2.7920000553131104 0.7260000109672546,2.759999990463257 0.7059999704360962,2.7249999046325684 C0.6890000104904175,2.697999954223633 0.6769999861717224,2.6670000553131104 0.6600000262260437,2.640000104904175 C0.6399999856948853,2.578000068664551 0.6240000128746033,2.515000104904175 0.6100000143051147,2.4519999027252197 C0.5809999704360962,2.2939999103546143 0.49399998784065247,2.1459999084472656 0.35499998927116394,2.072999954223633 C0.08100000023841858,1.9279999732971191 -0.22300000488758087,2.0139999389648438 -0.3919999897480011,2.2690000534057617 C-0.4399999976158142,2.3429999351501465 -0.49000000953674316,2.4170000553131104 -0.5410000085830688,2.490000009536743 C-0.5630000233650208,2.5199999809265137 -0.5860000252723694,2.549999952316284 -0.6060000061988831,2.5799999237060547 C-0.6110000014305115,2.5869998931884766 -0.609000027179718,2.5850000381469727 -0.6110000014305115,2.5880000591278076 C-0.6169999837875366,2.5950000286102295 -0.6240000128746033,2.6029999256134033 -0.6299999952316284,2.6110000610351562 C-0.6809999942779541,2.6730000972747803 -0.7350000143051147,2.7330000400543213 -0.7929999828338623,2.7899999618530273 C-0.8230000138282776,2.821000099182129 -0.8560000061988831,2.8489999771118164 -0.8899999856948853,2.878999948501587 C-0.8939999938011169,2.881999969482422 -0.8920000195503235,2.88100004196167 -0.8949999809265137,2.884000062942505 C-0.8970000147819519,2.884999990463257 -0.8949999809265137,2.882999897003174 -0.8999999761581421,2.885999917984009 C-0.9319999814033508,2.9019999504089355 -0.9610000252723694,2.9260001182556152 -0.9929999709129333,2.944000005722046 C-1.0080000162124634,2.9519999027252197 -1.0490000247955322,2.9709999561309814 -1.062999963760376,2.9779999256134033 C-1.1510000228881836,3.010999917984009 -1.2419999837875366,3.0369999408721924 -1.3350000381469727,3.055999994277954 C-1.3760000467300415,3.065999984741211 -1.4179999828338623,3.072999954223633 -1.4600000381469727,3.0799999237060547 C-1.475000023841858,3.0829999446868896 -1.4919999837875366,3.0850000381469727 -1.50600004196167,3.0869998931884766 C-1.5980000495910645,3.0959999561309814 -1.6890000104904175,3.0999999046325684 -1.781000018119812,3.0940001010894775 C-1.7910000085830688,3.0929999351501465 -1.8009999990463257,3.0920000076293945 -1.815999984741211,3.0880000591278076 C-1.8229999542236328,3.0859999656677246 -1.8509999513626099,3.0769999027252197 -1.875,3.069999933242798 C-1.8940000534057617,3.062000036239624 -1.9240000247955322,3.0490000247955322 -1.9320000410079956,3.0450000762939453 C-1.937999963760376,3.0409998893737793 -1.9789999723434448,3.0179998874664307 -2.006999969482422,2.999000072479248 C-2.0209999084472656,2.986999988555908 -2.0360000133514404,2.9730000495910645 -2.049999952316284,2.9600000381469727 C-2.075000047683716,2.936000108718872 -2.0959999561309814,2.9079999923706055 -2.121000051498413,2.885999917984009 C-2.124000072479248,2.881999969482422 -2.121999979019165,2.884999990463257 -2.125,2.881999969482422 C-2.128000020980835,2.877000093460083 -2.132999897003174,2.871000051498413 -2.135999917984009,2.865999937057495 C-2.1549999713897705,2.8369998931884766 -2.1730000972747803,2.808000087738037 -2.188999891281128,2.7780001163482666 C-2.2039999961853027,2.752000093460083 -2.239000082015991,2.6419999599456787 -2.2060000896453857,2.753000020980835 C-2.2200000286102295,2.7070000171661377 -2.236999988555908,2.6619999408721924 -2.249000072479248,2.615000009536743 C-2.250999927520752,2.609999895095825 -2.256999969482422,2.5820000171661377 -2.263000011444092,2.558000087738037 C-2.265000104904175,2.5380001068115234 -2.2709999084472656,2.486999988555908 -2.2720000743865967,2.4769999980926514 C-2.2739999294281006,2.428999900817871 -2.2750000953674316,2.38100004196167 -2.2730000019073486,2.3320000171661377 C-2.2720000743865967,2.322000026702881 -2.2669999599456787,2.2709999084472656 -2.265000104904175,2.25 C-2.247999906539917,2.1670000553131104 -2.2290000915527344,2.0859999656677246 -2.2039999961853027,2.005000114440918 C-2.184000015258789,1.9429999589920044 -2.183000087738037,1.8769999742507935 -2.187999963760376,1.812000036239624 C-1.9700000286102295,-0.01600000075995922 -1.3550000190734863,-1.774999976158142 -0.7580000162124634,-3.506999969482422 C-0.6610000133514404,-3.7860000133514404 -0.8669999837875366,-4.104000091552734 -1.1390000581741333,-4.178999900817871 C-1.4390000104904175,-4.261000156402588 -1.7139999866485596,-4.077000141143799 -1.8109999895095825,-3.7980000972747803 C-2.447999954223633,-1.9509999752044678 -3.059999942779541,-0.0989999994635582 -3.2869999408721924,1.8489999771118164 C-3.4100000858306885,2.3320000171661377 -3.378000020980835,2.8450000286102295 -3.1510000228881836,3.2929999828338623 C-2.938999891281128,3.7139999866485596 -2.513000011444092,4.060999870300293 -2.046999931335449,4.1539998054504395 C-1.7430000305175781,4.215000152587891 -1.4470000267028809,4.184000015258789 -1.1449999809265137,4.129000186920166 C-0.8880000114440918,4.083000183105469 -0.6269999742507935,4.001999855041504 -0.40299999713897705,3.864000082015991 C-0.26499998569488525,3.7790000438690186 -0.15600000321865082,3.6600000858306885 -0.0430000014603138,3.5480000972747803 C0.3199999928474426,3.9800000190734863 0.8669999837875366,4.261000156402588 1.437000036239624,4.218999862670898 C2.3310000896453857,4.1529998779296875 3.115000009536743,3.5160000324249268 3.3389999866485596,2.6410000324249268 C3.4100000858306885,2.365000009536743 3.249000072479248,2.0350000858306885 2.9579999446868896,1.968999981880188z"></path></g><g opacity="1" transform="matrix(1,0,0,1,25.781999588012695,16.584999084472656)"><path fill="rgb(7,5,6)" fill-opacity="1" d=" M3.434000015258789,0.2809999883174896 C2.6589999198913574,-0.8209999799728394 1.5130000114440918,-1.5299999713897705 0.17100000381469727,-1.687000036239624 C-1.121000051498413,-1.840000033378601 -2.4260001182556152,-1.3509999513626099 -3.374000072479248,-0.4779999852180481 C-3.7320001125335693,-0.1469999998807907 -3.7330000400543213,0.5059999823570251 -3.374000072479248,0.8360000252723694 C-2.990999937057495,1.187999963760376 -2.441999912261963,1.1890000104904175 -2.059000015258789,0.8360000252723694 C-2.0179998874664307,0.7979999780654907 -1.9759999513626099,0.7599999904632568 -1.9329999685287476,0.7229999899864197 C-1.8799999952316284,0.6759999990463257 -1.8450000286102295,0.6549999713897705 -1.9220000505447388,0.7099999785423279 C-1.8309999704360962,0.6439999938011169 -1.7369999885559082,0.5809999704360962 -1.6399999856948853,0.5230000019073486 C-1.5299999713897705,0.4580000042915344 -1.4149999618530273,0.40400001406669617 -1.3009999990463257,0.34599998593330383 C-1.1759999990463257,0.28200000524520874 -1.4220000505447388,0.38199999928474426 -1.2899999618530273,0.34200000762939453 C-1.2350000143051147,0.32499998807907104 -1.1829999685287476,0.30300000309944153 -1.128999948501587,0.2849999964237213 C-1.0210000276565552,0.25099998712539673 -0.9120000004768372,0.2199999988079071 -0.8009999990463257,0.19599999487400055 C-0.7459999918937683,0.18299999833106995 -0.6899999976158142,0.1770000010728836 -0.6349999904632568,0.16300000250339508 C-0.49900001287460327,0.12800000607967377 -0.7720000147819519,0.16899999976158142 -0.6299999952316284,0.16099999845027924 C-0.3880000114440918,0.1469999998807907 -0.15399999916553497,0.14300000667572021 0.08900000154972076,0.16099999845027924 C-0.0010000000474974513,0.1550000011920929 -0.004000000189989805,0.14499999582767487 0.08699999749660492,0.16300000250339508 C0.14100000262260437,0.17399999499320984 0.1940000057220459,0.18400000035762787 0.24699999392032623,0.19699999690055847 C0.35499998927116394,0.22100000083446503 0.460999995470047,0.25099998712539673 0.5649999976158142,0.28600001335144043 C0.6179999709129333,0.30300000309944153 0.6679999828338623,0.3240000009536743 0.7200000286102295,0.34200000762939453 C0.6349999904632568,0.31299999356269836 0.6520000100135803,0.30799999833106995 0.7269999980926514,0.3449999988079071 C0.8270000219345093,0.3919999897480011 0.9240000247955322,0.44200000166893005 1.0199999809265137,0.49799999594688416 C1.1150000095367432,0.5529999732971191 1.2039999961853027,0.6140000224113464 1.2960000038146973,0.6769999861717224 C1.4359999895095825,0.7710000276565552 1.2649999856948853,0.6370000243186951 1.3370000123977661,0.7080000042915344 C1.3760000467300415,0.7459999918937683 1.4199999570846558,0.7799999713897705 1.4600000381469727,0.8169999718666077 C1.5410000085830688,0.890999972820282 1.61899995803833,0.968999981880188 1.6929999589920044,1.0509999990463257 C1.7289999723434448,1.0920000076293945 1.7640000581741333,1.1349999904632568 1.7999999523162842,1.1759999990463257 C1.8980000019073486,1.2879999876022339 1.6790000200271606,1.0069999694824219 1.8279999494552612,1.218000054359436 C2.1070001125335693,1.6150000095367432 2.6530001163482666,1.840000033378601 3.0989999771118164,1.5520000457763672 C3.49399995803833,1.2979999780654907 3.7330000400543213,0.7059999704360962 3.434000015258789,0.2809999883174896z"></path></g><g opacity="1" transform="matrix(1,0,0,1,11.1899995803833,14.982000350952148)"><path fill="rgb(7,5,6)" fill-opacity="1" d=" M3.2130000591278076,-0.15399999916553497 C2.3499999046325684,-0.949999988079071 1.253999948501587,-1.4220000505447388 0.07900000363588333,-1.4800000190734863 C-1.1319999694824219,-1.5399999618530273 -2.2730000019073486,-1.090999960899353 -3.2119998931884766,-0.35100001096725464 C-3.5950000286102295,-0.05000000074505806 -3.552000045776367,0.6510000228881836 -3.2119998931884766,0.9629999995231628 C-2.805000066757202,1.3359999656677246 -2.306999921798706,1.284999966621399 -1.8969999551773071,0.9629999995231628 C-2.0450000762939453,1.0779999494552612 -1.7710000276565552,0.8799999952316284 -1.7419999837875366,0.8619999885559082 C-1.6469999551773071,0.8009999990463257 -1.5499999523162842,0.7450000047683716 -1.4490000009536743,0.6930000185966492 C-1.4170000553131104,0.6759999990463257 -1.1050000190734863,0.5419999957084656 -1.2869999408721924,0.6119999885559082 C-1.2079999446868896,0.5809999704360962 -1.128999948501587,0.5529999732971191 -1.0479999780654907,0.5270000100135803 C-0.9399999976158142,0.492000013589859 -0.8320000171661377,0.46299999952316284 -0.722000002861023,0.43799999356269836 C-0.6840000152587891,0.42899999022483826 -0.33899998664855957,0.37400001287460327 -0.5529999732971191,0.39899998903274536 C-0.3440000116825104,0.37400001287460327 -0.13199999928474426,0.36800000071525574 0.07900000363588333,0.3779999911785126 C0.12300000339746475,0.3799999952316284 0.41600000858306885,0.41100001335144043 0.19900000095367432,0.38100001215934753 C0.30799999833106995,0.3959999978542328 0.41499999165534973,0.4180000126361847 0.5220000147819519,0.4429999887943268 C0.628000020980835,0.46799999475479126 0.734000027179718,0.4970000088214874 0.8370000123977661,0.531000018119812 C0.8650000095367432,0.5400000214576721 1.1269999742507935,0.6380000114440918 1.0329999923706055,0.5989999771118164 C0.9399999976158142,0.5609999895095825 1.1929999589920044,0.6769999861717224 1.2200000286102295,0.6909999847412109 C1.3170000314712524,0.7419999837875366 1.4119999408721924,0.7960000038146973 1.503999948501587,0.8539999723434448 C1.534000039100647,0.8730000257492065 1.809000015258789,1.0670000314712524 1.6510000228881836,0.9459999799728394 C1.7369999885559082,1.0130000114440918 1.8179999589920044,1.0859999656677246 1.899999976158142,1.159999966621399 C2.256999969482422,1.4900000095367432 2.864000082015991,1.5399999618530273 3.2130000591278076,1.159999966621399 C3.5420000553131104,0.8019999861717224 3.5950000286102295,0.1979999989271164 3.2130000591278076,-0.15399999916553497z"></path></g><g opacity="1" transform="matrix(1,0,0,1,24.763999938964844,21.38599967956543)"><path fill="rgb(254,254,255)" fill-opacity="1" d=" M-0.5070000290870667,-1.7089999914169312 C-0.5070000290870667,-1.7089999914169312 2.4820001125335693,-1.8539999723434448 3.2860000133514404,-1.0679999589920044 C4.091000080108643,-0.2809999883174896 4.039000034332275,1.7630000114440918 1.871999979019165,1.809000015258789 C-0.29499998688697815,1.8539999723434448 -3.066999912261963,1.7699999809265137 -3.509999990463257,0.8169999718666077 C-3.953000068664551,-0.13699999451637268 -4.090000152587891,-1.6770000457763672 -0.5070000290870667,-1.7089999914169312z"></path></g><g opacity="1" transform="matrix(1,0,0,1,10.456999778747559,20.663000106811523)"><path fill="rgb(254,254,255)" fill-opacity="1" d=" M-0.4880000054836273,-1.6260000467300415 C-0.4880000054836273,-1.6260000467300415 2.388000011444092,-1.7699999809265137 3.1589999198913574,-1.0219999551773071 C3.931999921798706,-0.27300000190734863 3.878999948501587,1.6770000457763672 1.7949999570846558,1.7239999771118164 C-0.2879999876022339,1.7699999809265137 -2.9519999027252197,1.694000005722046 -3.378000020980835,0.7860000133514404 C-3.802000045776367,-0.12200000137090683 -3.931999921798706,-1.590000033378601 -0.4880000054836273,-1.6260000467300415z"></path></g><g opacity="1" transform="matrix(1,0,0,1,25.14177703857422,21.336000442504883)"><path fill="rgb(7,5,6)" fill-opacity="1" d=" M0,1.309999942779541 C1.687000036239624,1.309999942779541 1.6890000104904175,-1.309999942779541 0,-1.309999942779541 C-1.687000036239624,-1.309999942779541 -1.6890000104904175,1.309999942779541 0,1.309999942779541z"></path></g><g opacity="1" transform="matrix(1,0,0,1,10.94777774810791,20.649999618530273)"><path fill="rgb(7,5,6)" fill-opacity="1" d=" M0,1.3109999895095825 C1.687000036239624,1.3109999895095825 1.6890000104904175,-1.3109999895095825 0,-1.3109999895095825 C-1.687000036239624,-1.3109999895095825 -1.6890000104904175,1.3109999895095825 0,1.3109999895095825z"></path></g><g opacity="1" transform="matrix(1,0,0,1,13.899999618530273,31.218000411987305)"><path fill="rgb(7,5,6)" fill-opacity="1" d=" M10.67199993133545,19.840999603271484 C7.336999893188477,20.375999450683594 3.7639999389648438,19.92099952697754 0.5770000219345093,18.85700035095215 C-2.871000051498413,17.70599937438965 -5.5329999923706055,15.32800006866455 -7.370999813079834,12.208000183105469 C-11.640000343322754,4.961999893188477 -9.906000137329102,-3.444999933242798 -7.689000129699707,-11.050999641418457 C-6.754000186920166,-14.26099967956543 -5.65500020980835,-17.604999542236328 -3.740000009536743,-20.37700080871582 C-3.059000015258789,-21.363000869750977 -4.669000148773193,-22.29199981689453 -5.3460001945495605,-21.31399917602539 C-7.235000133514404,-18.577999114990234 -8.357000350952148,-15.267000198364258 -9.314000129699707,-12.107000350952148 C-10.520000457763672,-8.121000289916992 -11.605999946594238,-3.9700000286102295 -11.861000061035156,0.20100000500679016 C-12.342000007629395,8.055000305175781 -8.937999725341797,16.957000732421875 -1.2419999837875366,20.152000427246094 C2.5989999771118164,21.746999740600586 7.059000015258789,22.29199981689453 11.164999961853027,21.632999420166016 C12.343000411987305,21.444000244140625 11.843999862670898,19.652999877929688 10.67199993133545,19.840999603271484z"></path></g><g opacity="1" transform="matrix(1,0,0,1,18.621000289916992,47.88800048828125)"><path fill="rgb(7,5,6)" fill-opacity="1" d=" M3.052000045776367,-0.7720000147819519 C1.059999942779541,-0.03999999910593033 -1.1779999732971191,-0.09300000220537186 -3.109999895095825,-0.9950000047683716 C-3.377000093460083,-1.11899995803833 -3.6989998817443848,-1.069000005722046 -3.8570001125335693,-0.7979999780654907 C-3.996000051498413,-0.5619999766349792 -3.928999900817871,-0.1770000010728836 -3.6610000133514404,-0.050999999046325684 C-1.4700000286102295,0.9700000286102295 1.065000057220459,1.1180000305175781 3.3420000076293945,0.2809999883174896 C3.996000051498413,0.04100000113248825 3.7130000591278076,-1.0149999856948853 3.052000045776367,-0.7720000147819519z"></path></g><g opacity="1" transform="matrix(1,0,0,1,43.68199920654297,26.579999923706055)"><path fill="rgb(7,5,6)" fill-opacity="1" d=" M0.9829999804496765,-2.4179999828338623 C0.08699999749660492,-2.4010000228881836 -0.6930000185966492,-1.7999999523162842 -1.0820000171661377,-1.0140000581741333 C-1.5290000438690186,-0.11299999803304672 -1.4850000143051147,0.9020000100135803 -1.406999945640564,1.8760000467300415 C-1.3830000162124634,2.1710000038146973 -1.1729999780654907,2.4230000972747803 -0.8610000014305115,2.4230000972747803 C-0.5830000042915344,2.4230000972747803 -0.29100000858306885,2.171999931335449 -0.3149999976158142,1.8760000467300415 C-0.34700000286102295,1.4709999561309814 -0.3790000081062317,1.062999963760376 -0.367000013589859,0.6570000052452087 C-0.35600000619888306,0.29899999499320984 -0.29499998688697815,-0.10899999737739563 -0.1679999977350235,-0.4050000011920929 C-0.0560000017285347,-0.6650000214576721 0.0949999988079071,-0.8669999837875366 0.3370000123977661,-1.0789999961853027 C0.40400001406669617,-1.1369999647140503 0.2800000011920929,-1.0410000085830688 0.35100001096725464,-1.0920000076293945 C0.3869999945163727,-1.1180000305175781 0.42399999499320984,-1.1419999599456787 0.4620000123977661,-1.1660000085830688 C0.492000013589859,-1.184000015258789 0.5230000019073486,-1.2009999752044678 0.5529999732971191,-1.218000054359436 C0.5509999990463257,-1.215999960899353 0.6819999814033508,-1.277999997138977 0.6299999952316284,-1.2569999694824219 C0.5830000042915344,-1.2369999885559082 0.6779999732971191,-1.2719999551773071 0.6880000233650208,-1.274999976158142 C0.7289999723434448,-1.2890000343322754 0.7710000276565552,-1.2970000505447388 0.8119999766349792,-1.309999942779541 C0.8510000109672546,-1.3220000267028809 0.8830000162124634,-1.3250000476837158 0.8240000009536743,-1.315999984741211 C0.8769999742507935,-1.3240000009536743 0.9290000200271606,-1.3250000476837158 0.9829999804496765,-1.3259999752044678 C1.277999997138977,-1.3309999704360962 1.5290000438690186,-1.5729999542236328 1.5290000438690186,-1.871999979019165 C1.5290000438690186,-2.1640000343322754 1.2790000438690186,-2.4230000972747803 0.9829999804496765,-2.4179999828338623z"></path></g><g opacity="1" transform="matrix(1,0,0,1,20.875999450683594,41.0620002746582)"><path fill="rgb(7,5,6)" fill-opacity="1" d=" M-1.8580000400543213,0.013000000268220901 C-0.875,0.859000027179718 0.6230000257492065,1.0140000581741333 1.7259999513626099,0.2939999997615814 C1.9709999561309814,0.1340000033378601 2.0950000286102295,-0.210999995470047 1.9259999990463257,-0.4740000069141388 C1.7680000066757202,-0.7179999947547913 1.4220000505447388,-0.8450000286102295 1.159999966621399,-0.6740000247955322 C1.059000015258789,-0.6079999804496765 0.9539999961853027,-0.5540000200271606 0.8460000157356262,-0.5009999871253967 C0.7760000228881836,-0.4650000035762787 0.9710000157356262,-0.5460000038146973 0.843999981880188,-0.5009999871253967 C0.8180000185966492,-0.4909999966621399 0.7919999957084656,-0.4830000102519989 0.765999972820282,-0.4740000069141388 C0.7120000123977661,-0.4560000002384186 0.6589999794960022,-0.4399999976158142 0.6039999723434448,-0.4259999990463257 C0.5429999828338623,-0.4099999964237213 0.4819999933242798,-0.3959999978542328 0.4189999997615814,-0.3840000033378601 C0.40400001406669617,-0.38199999928474426 0.30799999833106995,-0.36800000071525574 0.3889999985694885,-0.3790000081062317 C0.4690000116825104,-0.3889999985694885 0.37400001287460327,-0.3790000081062317 0.35899999737739563,-0.3779999911785126 C0.2329999953508377,-0.3659999966621399 0.10700000077486038,-0.3630000054836273 -0.019999999552965164,-0.3700000047683716 C-0.04699999839067459,-0.3720000088214874 -0.07599999755620956,-0.375 -0.10400000214576721,-0.3779999911785126 C-0.11999999731779099,-0.3790000081062317 -0.21400000154972076,-0.3880000114440918 -0.1340000033378601,-0.3790000081062317 C-0.05400000140070915,-0.36899998784065247 -0.15000000596046448,-0.38199999928474426 -0.16500000655651093,-0.3840000033378601 C-0.20000000298023224,-0.38999998569488525 -0.23399999737739563,-0.3970000147819519 -0.2680000066757202,-0.4050000011920929 C-0.38499999046325684,-0.4300000071525574 -0.49900001287460327,-0.4650000035762787 -0.6110000014305115,-0.5070000290870667 C-0.625,-0.5120000243186951 -0.7110000252723694,-0.5490000247955322 -0.640999972820282,-0.5170000195503235 C-0.5720000267028809,-0.4860000014305115 -0.6579999923706055,-0.5270000100135803 -0.6710000038146973,-0.5329999923706055 C-0.7279999852180481,-0.5600000023841858 -0.7829999923706055,-0.5889999866485596 -0.8370000123977661,-0.6209999918937683 C-0.8849999904632568,-0.6489999890327454 -0.9330000281333923,-0.6790000200271606 -0.9789999723434448,-0.7110000252723694 C-0.9829999804496765,-0.7139999866485596 -1.0870000123977661,-0.7950000166893005 -1.0240000486373901,-0.7419999837875366 C-0.9599999785423279,-0.6899999976158142 -1.062000036239624,-0.777999997138977 -1.065000057220459,-0.7799999713897705 C-1.2869999408721924,-0.9710000157356262 -1.6419999599456787,-1.0140000581741333 -1.8580000400543213,-0.7799999713897705 C-2.049999952316284,-0.5699999928474426 -2.0950000286102295,-0.19099999964237213 -1.8580000400543213,0.013000000268220901z"></path></g><g opacity="1" transform="matrix(1,0,0,1,21.638999938964844,35.957000732421875)"><path fill="rgb(7,5,6)" fill-opacity="1" d=" M1.5870000123977661,-1.0420000553131104 C1.3940000534057617,-1.4500000476837158 1.0920000076293945,-1.8700000047683716 0.7459999918937683,-2.1630001068115234 C0.40299999713897705,-2.453000068664551 0.003000000026077032,-2.6089999675750732 -0.4230000078678131,-2.736999988555908 C-1.1150000095367432,-2.944999933242798 -1.4110000133514404,-1.8630000352859497 -0.7210000157356262,-1.656000018119812 C-0.5910000205039978,-1.6169999837875366 -0.46299999952316284,-1.5729999542236328 -0.33500000834465027,-1.527999997138977 C-0.32899999618530273,-1.5269999504089355 -0.3319999873638153,-1.527999997138977 -0.32899999618530273,-1.5269999504089355 C-0.30399999022483826,-1.5149999856948853 -0.27799999713897705,-1.503999948501587 -0.2540000081062317,-1.4910000562667847 C-0.24799999594688416,-1.4889999628067017 -0.24300000071525574,-1.4850000143051147 -0.23800000548362732,-1.4819999933242798 C-0.9470000267028809,-1.1990000009536743 -1.5080000162124634,-0.5870000123977661 -1.7369999885559082,0.14000000059604645 C-2.0190000534057617,1.0390000343322754 -1.7280000448226929,2.072000026702881 -0.8539999723434448,2.5190000534057617 C-0.02199999988079071,2.944999933242798 1.0180000066757202,2.513000011444092 1.4980000257492065,1.7510000467300415 C2.0190000534057617,0.9240000247955322 1.996000051498413,-0.18199999630451202 1.5870000123977661,-1.0420000553131104z"></path></g></g><g transform="matrix(1,0,0,1,257,339)" opacity="1" style="display: block;"><g opacity="1" transform="matrix(1,0,0,1,-3,-3.5)"><path fill="rgb(246,158,170)" fill-opacity="1" d="M0 0"></path><path stroke-linecap="round" stroke-linejoin="miter" fill-opacity="0" stroke-miterlimit="4" stroke="rgb(195,29,30)" stroke-opacity="1" stroke-width="11" d="M0 0"></path></g></g><g transform="matrix(1,0,0,1,257,339)" opacity="1" style="display: block;"><g opacity="1" transform="matrix(1,0,0,1,0,0)"><path fill="rgb(246,158,170)" fill-opacity="1" d="M0 0"></path><path stroke-linecap="round" stroke-linejoin="round" fill-opacity="0" stroke="rgb(195,29,30)" stroke-opacity="1" stroke-width="11" d="M0 0"></path></g><g opacity="1" transform="matrix(1,0,0,1,0,0)"><path fill="rgb(246,158,170)" fill-opacity="1" d="M0 0"></path><path stroke-linecap="round" stroke-linejoin="miter" fill-opacity="0" stroke-miterlimit="4" stroke="rgb(195,29,30)" stroke-opacity="1" stroke-width="11" d="M0 0"></path></g></g></g></svg>